<?xml version="1.0" encoding="UTF-8"?>
<svg version="1.1" xmlns="http://www.w3.org/2000/svg" width="2048" height="2048">
<path d="M0 0 C3.02332869 0.0056433 6.04665176 0.00846185 9.06998444 0.0110817 C37.02103864 0.04629403 64.86380347 0.25987013 92.69937897 3.06482315 C95.36471581 3.33178794 98.03109594 3.58571618 100.69785309 3.83807755 C191.99669713 12.57361943 282.60990422 32.77556709 500.22763824 127.31805801 C501.85572418 128.22878067 501.85572418 128.22878067 503.51670074 129.15790176 C526.49426316 142.04712131 548.73388375 155.91113215 570.66513824 170.50555801 C571.78783112 171.25204605 571.78783112 171.25204605 572.93320465 172.01361465 C587.56688764 181.75706644 602.05340407 191.70190239 615.97763824 202.44305801 C616.86539948 203.12408585 617.75316071 203.80511368 618.66782379 204.50677872 C620.41127182 205.84472941 622.15375696 207.18393609 623.89511871 208.52460098 C625.88809397 210.05698493 627.88584272 211.58259368 629.88779449 213.10321426 C642.43441562 222.66476568 654.61370322 232.68370832 666.60361481 242.93231583 C668.29478045 244.37534893 669.99138444 245.81180619 671.68857574 247.24774551 C678.17244797 252.74953869 684.52362066 258.36212082 690.74399567 264.16058731 C693.63158275 266.85201285 696.54681367 269.49484917 699.54013824 272.06805801 C702.85618592 274.93223337 705.9347192 277.97896329 708.97763824 281.13055801 C710.84579759 282.94682404 712.74534313 284.63047631 714.72373199 286.32196426 C719.94965798 290.86303864 724.81779249 295.75822872 729.70053864 300.66058731 C731.28723771 302.25264768 732.87921566 303.83928792 734.47177887 305.42547989 C739.42969751 310.3804982 744.28083199 315.37990571 748.83872223 320.71088028 C750.54184342 322.68163907 752.35433015 324.50934675 754.22763824 326.31805801 C757.42025136 329.46785831 760.39925104 332.7302529 763.32138824 336.13055801 C765.53709472 338.67317201 767.81862416 341.14916 770.10263824 343.63055801 C774.15285116 348.07056586 777.98297946 352.63740083 781.75498199 357.31415176 C784.63647457 360.8147328 787.61508386 364.22063127 790.60263824 367.63055801 C796.21278871 374.05895679 801.54231558 380.6568656 806.75156403 387.4122963 C808.34635304 389.47133087 809.95576116 391.51834691 811.56748199 393.56415176 C819.18020036 403.24814889 826.50106645 413.10215269 833.65390778 423.12958145 C835.14906252 425.20878827 836.66548994 427.26997336 838.19248199 429.32587051 C864.95477218 465.5121764 888.13219154 504.62146899 909.22763824 544.31805801 C909.71941559 545.23844864 910.21119293 546.15883926 910.71787262 547.10712051 C944.48634358 610.40609679 970.65802639 677.3318259 990.22763824 746.31805801 C990.43626495 747.05308548 990.64489166 747.78811295 990.85984039 748.54541397 C1014.44232128 831.94830272 1027.275341 919.32666278 1027.54549408 1020.16430664 C1027.54005567 1023.11282606 1027.53768718 1026.06133745 1027.53562164 1029.00986099 C1027.50533814 1056.75116327 1027.15281545 1084.35059318 1024.45224762 1111.98236465 C1024.22489394 1114.34659579 1024.01308773 1116.71175712 1023.80576324 1119.07782364 C1019.13518289 1172.08447562 1009.68921879 1224.42016394 996.80387115 1276.0105629 C996.27516151 1278.12775354 995.74988887 1280.24576751 995.22519684 1282.36395645 C974.39532421 1365.74953856 941.40368168 1447.43568172 885.01181793 1546.34930801 C883.42892231 1548.98313542 881.87182994 1551.6292737 880.32920074 1554.28680801 C865.51746599 1579.67608499 848.70777954 1604.42135852 831.16513824 1628.00555801 C830.57498932 1628.80244034 829.98484039 1629.59932266 829.37680817 1630.42035294 C824.4060398 1637.11532916 819.35785787 1643.74444862 814.22763824 1650.31805801 C813.78323395 1650.8886293 813.33882965 1651.45920059 812.88095856 1652.04706192 C803.73355379 1663.78377755 794.32584377 1675.28511263 784.67783356 1686.61346817 C783.20960786 1688.33925131 781.74590292 1690.06880074 780.28232574 1691.79852676 C774.35724633 1698.77964734 768.284593 1705.59015442 762.04013824 1712.28680801 C759.500319 1715.01246769 757.0153322 1717.78346481 754.54013824 1720.56805801 C751.01934454 1724.50268823 747.35430455 1728.24508263 743.56357574 1731.91962051 C741.62883525 1733.90612664 739.82058106 1735.92566552 738.01279449 1738.02508926 C733.97062064 1742.68030449 729.65915325 1747.03366461 725.29013824 1751.38055801 C724.5302359 1752.14432755 723.77033356 1752.90809708 722.98740387 1753.69501114 C718.77915197 1757.89607559 714.47728235 1761.9128925 709.97153473 1765.79242325 C707.78584884 1767.70455416 705.74927523 1769.73421682 703.72763824 1771.81805801 C700.41777126 1775.1673953 697.02016875 1778.31731758 693.44638824 1781.38055801 C691.2436387 1783.30408579 689.09450124 1785.27910915 686.95102692 1787.26825333 C681.74050408 1792.10192226 676.40470636 1796.68861234 670.86435699 1801.14618301 C668.30343796 1803.25562151 665.8564037 1805.4469345 663.41513824 1807.69305801 C658.44561715 1812.21579251 653.21656537 1816.33169832 647.91123199 1820.44696426 C644.88343963 1822.79640315 641.89532097 1825.19056169 638.91660309 1827.60174942 C630.00333601 1834.80674027 620.86782389 1841.7019606 611.65634918 1848.52020645 C610.13936786 1849.64315081 608.62409809 1850.76841538 607.11142731 1851.89715958 C572.27294492 1877.86024528 534.92759553 1901.25518702 496.74033356 1921.95428848 C494.91706587 1922.94387003 493.0964409 1923.93832561 491.27744293 1924.9357338 C439.50215568 1953.30909465 385.29868036 1976.81829527 329.22763824 1995.31805801 C327.41803619 1995.92375626 327.41803619 1995.92375626 325.57187653 1996.54169083 C254.41228931 2020.33883677 180.86417289 2035.27144754 106.29013824 2043.06805801 C105.3377829 2043.1692897 104.38542755 2043.27052139 103.40421295 2043.37482071 C71.40197604 2046.73763356 39.45843634 2047.69944437 7.30015945 2047.63591385 C4.43069833 2047.63046894 1.56124546 2047.62810492 -1.30821991 2047.62604141 C-29.08029829 2047.59493567 -56.70986614 2047.16619534 -84.37813568 2044.54266739 C-86.78073879 2044.31727214 -89.18418289 2044.10499628 -91.58827972 2043.89618301 C-184.46893177 2035.75426526 -276.66881135 2014.02132221 -388.77236176 1970.31805801 C-389.76541321 1969.90647446 -389.76541321 1969.90647446 -390.77852631 1969.48657608 C-439.64207585 1949.1882807 -486.42458137 1925.00810951 -531.49697113 1897.32684708 C-534.47455556 1895.50070182 -537.45819561 1893.68501496 -540.44423676 1891.87274551 C-553.18261828 1884.10937433 -565.52959829 1875.8388521 -577.77236176 1867.31805801 C-578.91680756 1866.52335098 -578.91680756 1866.52335098 -580.08437347 1865.71258926 C-601.60083133 1850.74294543 -622.57743915 1835.03109741 -642.77236176 1818.31805801 C-644.54304294 1816.8803706 -646.31388068 1815.44287599 -648.08486176 1814.00555801 C-657.44476985 1806.34380467 -666.60085759 1798.44727978 -675.55751801 1790.31805801 C-677.54648677 1788.52202272 -679.5579937 1786.75852498 -681.58486176 1785.00555801 C-689.58753562 1778.02553821 -697.38617999 1770.81055549 -704.82534027 1763.2326088 C-706.62796629 1761.46004538 -708.480136 1759.81475213 -710.40517426 1758.17743301 C-715.26131062 1753.95511959 -719.7971148 1749.440034 -724.33486176 1744.88055801 C-725.1463266 1744.07296036 -725.95779144 1743.2653627 -726.79384613 1742.43329239 C-731.11963635 1738.10051946 -735.27229384 1733.68599413 -739.26430511 1729.04437637 C-741.16941805 1726.86353559 -743.19448319 1724.83391036 -745.27236176 1722.81805801 C-748.62169904 1719.50819103 -751.77162132 1716.11058852 -754.83486176 1712.53680801 C-756.75804931 1710.33444807 -758.73266705 1708.1856516 -760.72158051 1706.04266739 C-765.45858646 1700.93578563 -769.96622819 1695.71639545 -774.33486176 1690.28680801 C-777.20162979 1686.79523157 -780.17029494 1683.40296255 -783.14736176 1680.00555801 C-788.75886458 1673.57572792 -794.08996064 1666.97622493 -799.30068207 1660.2194252 C-800.88345166 1658.1745331 -802.479157 1656.14021481 -804.07704926 1654.10712051 C-817.28210403 1637.27875018 -829.84085572 1620.07120225 -841.77236176 1602.31805801 C-842.54144398 1601.17718699 -843.31065691 1600.03640407 -844.07997894 1598.89569473 C-865.36326825 1567.31833396 -884.89000843 1534.95835239 -902.77236176 1501.31805801 C-903.52380463 1499.90991837 -903.52380463 1499.90991837 -904.29042816 1498.47333145 C-943.69543799 1424.48161543 -972.92765471 1345.08906359 -1016.02236176 1122.69305801 C-1016.09958466 1121.90163406 -1016.17680756 1121.11021011 -1016.25637054 1120.29480362 C-1016.83177709 1114.30759661 -1017.31755774 1108.31553964 -1017.77236176 1102.31805801 C-1017.90316635 1100.64065033 -1017.90316635 1100.64065033 -1018.03661346 1098.92935562 C-1019.84057299 1075.15926757 -1020.13550278 1051.44549141 -1020.09041977 1027.61436081 C-1020.0847796 1024.58645449 -1020.08195901 1021.55855376 -1020.07933807 1018.53064346 C-1020.04413842 990.56125711 -1019.83239023 962.70015835 -1017.02559662 934.84631729 C-1016.75863183 932.18098044 -1016.50470359 929.51460031 -1016.25234222 926.84784317 C-1007.51677312 835.54871463 -987.31410125 744.93659596 -837.77236176 439.31805801 C-837.29444183 438.6314711 -836.81652191 437.94488419 -836.32411957 437.23749161 C-829.02588094 426.76160854 -821.50136895 416.47972241 -813.77236176 406.31805801 C-813.34745453 405.7566713 -812.9225473 405.19528458 -812.4847641 404.61688614 C-806.42511 396.61420384 -800.15108439 388.80446475 -793.79970551 381.03290176 C-791.40946293 378.10708006 -789.05158203 375.15793878 -786.70986176 372.19305801 C-779.39742291 363.02936883 -771.64990754 354.21226917 -763.77236176 345.53290176 C-761.97632647 343.543933 -760.21282872 341.53242607 -758.45986176 339.50555801 C-753.88244977 334.25623234 -749.13149648 329.16660738 -744.39052582 324.06561661 C-742.84099151 322.39217566 -741.30167756 320.70992208 -739.76454926 319.02508926 C-732.01955955 310.57942589 -723.99003115 302.42854846 -715.89736176 294.31805801 C-715.35729492 293.77540298 -714.81722809 293.23274796 -714.26079559 292.67364883 C-708.86041602 287.25285253 -703.44752386 281.89891619 -697.62734222 276.92352676 C-694.24405518 273.99532255 -691.02023267 270.89465449 -687.77236176 267.81805801 C-682.5398352 262.86146547 -677.23010569 258.02593604 -671.77236176 253.31805801 C-670.91505463 252.57749161 -670.91505463 252.57749161 -670.04042816 251.82196426 C-666.55967174 248.82290591 -663.06566802 245.83927707 -659.57167816 242.85565567 C-658.41153916 241.86426416 -657.25229081 240.87182897 -656.0941391 239.87811661 C-648.45145937 233.32100559 -640.66184343 226.99492593 -632.70595551 220.82196426 C-630.65006201 219.22293599 -628.60147338 217.61485762 -626.55361176 216.00555801 C-579.32874196 178.96368125 -528.75804096 146.47555465 -475.77236176 118.31805801 C-474.85197113 117.82628067 -473.93158051 117.33450333 -472.98329926 116.82782364 C-409.68432298 83.05935268 -342.75859387 56.88766986 -273.77236176 37.31805801 C-273.03733429 37.1094313 -272.30230682 36.9008046 -271.5450058 36.68585587 C-214.12374873 20.44977918 -155.06276309 9.96184161 -95.70986176 4.06805801 C-94.94707916 3.99092575 -94.18429657 3.91379349 -93.39839935 3.83432388 C-87.52881528 3.24902387 -81.65423057 2.7621503 -75.77236176 2.31805801 C-74.62805695 2.23085495 -73.48375214 2.14365189 -72.30477142 2.0538063 C-48.20524124 0.28047997 -24.15819772 -0.04580694 0 0 Z " fill="#0866FF" transform="translate(1019.7723617553711,-0.3180580139160156)"/>
<path d="M0 0 C1.14914194 0.0005797 1.14914194 0.0005797 2.32149887 0.00117111 C53.7770768 0.03354887 104.56517072 4.64648858 155.5625 11.375 C156.48500549 11.49572876 157.40751099 11.61645752 158.35797119 11.74084473 C182.75707301 14.94033397 206.68257008 19.40501752 230.5625 25.375 C230.5625 119.095 230.5625 212.815 230.5625 309.375 C211.2575 308.385 211.2575 308.385 191.5625 307.375 C178.21027283 306.86930424 178.21027283 306.86930424 164.85546875 306.53515625 C164.02718063 306.5209816 163.19889252 306.50680695 162.34550476 306.49220276 C149.10993437 306.28623245 135.87308731 306.22818641 122.6361618 306.1942215 C120.54324718 306.18763608 118.45037794 306.17755295 116.35748291 306.16644287 C88.12111929 306.02686266 60.4137944 307.58261034 32.5625 312.375 C31.64114258 312.53226563 30.71978516 312.68953125 29.77050781 312.8515625 C-13.92219388 320.48686617 -56.47990872 339.43886343 -82.875 376.4375 C-134.37958175 451.90001946 -119.86182725 562.62947011 -120.4375 644.375 C-10.2175 644.375 100.0025 644.375 213.5625 644.375 C212.25484793 652.87473845 210.90320605 661.34246299 209.390625 669.8046875 C209.18780914 670.94500931 208.98499329 672.08533112 208.77603149 673.26020813 C208.12348969 676.92382653 207.46823866 680.58695254 206.8125 684.25 C206.58773987 685.50841705 206.36297974 686.76683411 206.13140869 688.06338501 C203.44701016 703.08375742 200.70780502 718.08662956 197.74658203 733.05493164 C195.58219868 744.07395381 193.6339051 755.12824283 191.6875 766.1875 C189.04698914 781.18863333 186.31113458 796.16673186 183.4375 811.125 C180.735682 825.1940397 178.09906459 839.27073607 175.5541687 853.36912537 C175.43187897 854.04653275 175.30958923 854.72394012 175.18359375 855.421875 C175.05896759 856.11245499 174.93434143 856.80303497 174.80593872 857.51454163 C172.76907889 868.78475941 170.68697888 880.04677849 168.61233521 891.31008911 C166.46721202 902.95678391 164.33569153 914.60562389 162.2421875 926.26171875 C161.87162716 928.31991372 161.50102255 930.37810073 161.13037109 932.4362793 C160.42851548 936.33413136 159.73174387 940.23284867 159.03759766 944.13208008 C158.72318103 945.87975591 158.40857619 947.6273979 158.09375 949.375 C157.95250702 950.17665085 157.81126404 950.9783017 157.66574097 951.804245 C156.67619611 957.26130389 156.67619611 957.26130389 155.5625 958.375 C64.4825 958.375 -26.5975 958.375 -120.4375 958.375 C-120.4375 1190.365 -120.4375 1422.355 -120.4375 1661.375 C-148.23491624 1664.84967703 -148.23491624 1664.84967703 -160.95751953 1665.828125 C-163.20531307 1666.00137294 -165.45223994 1666.18370122 -167.69921875 1666.3671875 C-185.38029129 1667.78504299 -203.03259999 1668.53490883 -220.76953125 1668.578125 C-222.56394472 1668.5851077 -224.35835796 1668.59214862 -226.152771 1668.59924316 C-231.85185051 1668.61850129 -237.55089148 1668.62341888 -243.25 1668.625 C-244.7063341 1668.62588371 -244.7063341 1668.62588371 -246.19208908 1668.62678528 C-275.23069519 1668.63922124 -304.11075263 1668.34301471 -333.04327393 1665.59960938 C-335.44587704 1665.37421413 -337.84932113 1665.16193826 -340.25341797 1664.953125 C-477.9279217 1652.8845783 -477.9279217 1652.8845783 -492.4375 1638.375 C-492.53472623 1636.88065706 -492.56197342 1635.38171206 -492.5616985 1633.88420957 C-492.56394579 1632.90580517 -492.56619308 1631.92740076 -492.56850848 1630.91934773 C-492.56456796 1629.28444939 -492.56456796 1629.28444939 -492.56054783 1627.61652279 C-492.56170167 1626.46558647 -492.56285552 1625.31465014 -492.56404433 1624.12883696 C-492.56625035 1620.90558877 -492.56392198 1617.6823789 -492.55976619 1614.45913375 C-492.55634874 1610.96335346 -492.55869958 1607.46757652 -492.56034368 1603.97179562 C-492.56242333 1597.83557314 -492.56076361 1591.69936032 -492.55670547 1585.56313896 C-492.5506878 1576.43870213 -492.55036805 1567.31427144 -492.55124746 1558.18983298 C-492.55256359 1542.8435023 -492.54921155 1527.49717591 -492.54323006 1512.15084648 C-492.53731988 1496.94862281 -492.5334655 1481.74640092 -492.53237724 1466.5441761 C-492.5323085 1465.60014268 -492.53223976 1464.65610927 -492.53216894 1463.68346878 C-492.53183062 1458.88950715 -492.53152923 1454.09554552 -492.53124207 1449.30158389 C-492.52913976 1415.31604494 -492.52239713 1381.33050833 -492.51293945 1347.3449707 C-492.5037601 1314.32153333 -492.496674 1281.2980966 -492.49243164 1248.2746582 C-492.49230011 1247.25733765 -492.49216859 1246.2400171 -492.49203308 1245.19186866 C-492.49071459 1234.97583293 -492.48943878 1224.75979721 -492.48819422 1214.54376147 C-492.48565777 1193.73116505 -492.48283652 1172.91856866 -492.47984314 1152.10597229 C-492.4796372 1150.67047129 -492.4796372 1150.67047129 -492.47942711 1149.20597027 C-492.4752027 1119.86350444 -492.46977073 1090.521039 -492.46315002 1061.17857361 C-492.46296247 1060.34525192 -492.46277491 1059.51193023 -492.46258167 1058.65335636 C-492.45496505 1024.89390406 -492.44607204 991.13445207 -492.4375 957.375 C-562.0675 957.375 -631.6975 957.375 -703.4375 957.375 C-703.4375 854.085 -703.4375 750.795 -703.4375 644.375 C-633.8075 644.375 -564.1775 644.375 -492.4375 644.375 C-492.5556578 589.79646261 -492.5556578 589.79646261 -492.70776367 535.21801758 C-492.84263651 462.73862281 -492.84263651 462.73862281 -489.6534481 429.66047859 C-489.1636893 424.47713485 -488.72880949 419.28864363 -488.27903938 414.10170269 C-481.17189531 333.26570367 -460.49453307 250.0706007 -353.4375 107.375 C-352.93573242 106.93381836 -352.43396484 106.49263672 -351.91699219 106.03808594 C-281.3128085 44.15376362 -189.09863829 16.30816219 -97.4375 5.375 C-96.24930664 5.23320312 -95.06111328 5.09140625 -93.83691406 4.9453125 C-62.6266198 1.30282289 -31.40031335 -0.04683598 0 0 Z " fill="#FEFEFF" transform="translate(1268.4375,378.625)"/>
</svg>
