<?xml version="1.0" encoding="UTF-8"?>
<svg version="1.1" xmlns="http://www.w3.org/2000/svg" width="2048" height="2048">
<path d="M0 0 C6.91201541 -0.09054078 13.81687573 -0.06282162 20.72851562 0.04589844 C22.51225586 0.07272705 22.51225586 0.07272705 24.33203125 0.10009766 C115.48323303 1.67127464 205.63337927 13.6962686 317.72851562 47.04589844 C318.50497437 47.29210938 319.28143311 47.53832031 320.0814209 47.79199219 C351.91714457 57.91707457 383.14564765 69.58890673 413.72851562 83.04589844 C415.53231689 83.83673828 415.53231689 83.83673828 417.37255859 84.64355469 C448.64761713 98.3984113 479.65481449 113.25897516 509.14208984 130.54541016 C511.9266441 132.16084063 514.7321458 133.73405848 517.54492188 135.29980469 C518.5372583 135.85345703 519.52959473 136.40710938 520.55200195 136.97753906 C522.38474741 137.99887381 524.21898819 139.01753496 526.05541992 140.03222656 C541.45562073 148.66758237 556.15930062 158.54805019 570.83569336 168.34545898 C573.29130229 169.98358967 575.75097816 171.61548207 578.2109375 173.24707031 C594.79844749 184.28351567 610.85710299 196.00756567 626.72851562 208.04589844 C627.28845215 208.46935547 627.84838867 208.8928125 628.42529297 209.32910156 C637.07757771 215.88126678 645.51151146 222.68303497 653.90820312 229.55761719 C655.50113427 230.85999222 657.09881083 232.15655876 658.69726562 233.45214844 C669.43562936 242.16917311 679.88001339 251.18315137 690.03710938 260.56933594 C695.11894025 265.24550542 700.28496699 269.79312607 705.72851562 274.04589844 C705.20682294 278.20168734 703.01101347 280.14130137 700.11883831 283.0386858 C699.63263123 283.52985239 699.14642415 284.02101899 698.64548352 284.52706942 C697.0045812 286.18098728 695.35314022 287.82396516 693.70158386 289.46723938 C692.51499431 290.65871498 691.32905716 291.8508406 690.14371949 293.04356164 C686.87682201 296.32691753 683.60056087 299.60078987 680.32270515 302.87320101 C676.79237773 306.40086556 673.27065315 309.93710047 669.74778748 313.47221375 C662.84225776 320.3988297 655.92845928 327.31713502 649.01148888 334.23232446 C643.39234108 339.85016646 637.7757492 345.47055127 632.1609745 351.0927639 C630.54585621 352.70998129 628.93073717 354.32719794 627.31561738 355.94441384 C626.51182955 356.7492452 625.70804172 357.55407656 624.87989668 358.38329675 C609.66782313 373.61428488 594.44577113 388.83527047 579.22082982 404.05339428 C565.27736276 417.99128248 551.34715172 431.9423349 537.4230338 445.89955077 C523.14004573 460.21622726 508.84784704 474.52364909 494.54569036 488.82117718 C486.51043533 496.85418294 478.47900481 504.89092832 470.45729637 512.93746376 C463.62973767 519.78597279 456.79362807 526.62579947 449.94610807 533.45435248 C446.44970348 536.94156127 442.95752567 540.43275135 439.47599792 543.93481827 C436.29324646 547.13613887 433.09933314 550.32584862 429.89585034 553.50642004 C428.73464292 554.66340598 427.57770602 555.82469593 426.42535915 556.99050716 C424.86666073 558.56618098 423.29359446 560.1258859 421.71571636 561.68231678 C420.84290168 562.55540385 419.97008699 563.42849092 419.07082337 564.32803518 C416.72851562 566.04589844 416.72851562 566.04589844 414.60187417 565.96461838 C411.43486052 564.41147277 408.95603363 562.00965993 406.35351562 559.67089844 C399.93978991 554.04430797 393.36304524 548.70409676 386.60742188 543.49511719 C384.62324376 541.96470122 382.64479499 540.42703657 380.66601562 538.88964844 C305.82077808 480.96089125 217.60385562 440.74958812 82.04101562 415.73339844 C80.88762695 415.58604248 79.73423828 415.43868652 78.54589844 415.28686523 C74.61108171 414.82055503 70.6734688 414.41422791 66.72851562 414.04589844 C65.34486313 413.9166951 65.34486313 413.9166951 63.93325806 413.78488159 C46.07049034 412.17329028 28.28727022 411.67877242 10.3575592 411.72784042 C8.25273563 411.73350139 6.14792018 411.73630896 4.04309082 411.73892212 C-16.80729478 411.77650651 -37.50081178 412.23324681 -58.21496582 414.79266357 C-60.36935486 415.05794998 -62.52485949 415.31240816 -64.68066406 415.56591797 C-146.93269574 425.35770778 -226.90252838 451.90886438 -382.27148438 552.04589844 C-382.77067383 552.4601709 -383.26986328 552.87444336 -383.78417969 553.30126953 C-390.5641639 558.92903147 -397.17645936 564.69755221 -403.60693359 570.72290039 C-406.34458588 573.28593244 -409.11901356 575.78118846 -411.96679688 578.22167969 C-416.81672444 582.44579151 -421.35440524 586.97841037 -425.88989258 591.53393555 C-427.33173659 592.98114229 -428.77885553 594.4229187 -430.2265625 595.86425781 C-434.90371369 600.53805473 -439.45899164 605.26966 -443.76245117 610.29174805 C-445.98874738 612.87966881 -448.31970806 615.36043288 -450.64648438 617.85839844 C-455.76148643 623.40249671 -460.55873159 629.15495746 -465.27148438 635.04589844 C-466.18224457 636.16495657 -467.09373914 637.28341732 -468.00585938 638.40136719 C-494.33111965 670.79182597 -516.90535358 706.09735942 -536.27148438 743.04589844 C-536.75681641 743.97128418 -537.24214844 744.89666992 -537.7421875 745.85009766 C-571.69330634 811.07963527 -592.67888078 882.09897341 -601.27148438 955.04589844 C-601.35398437 955.72436829 -601.43648437 956.40283813 -601.52148438 957.10186768 C-606.85811499 1001.13304099 -606.81027235 1048.04140109 -601.27148438 1092.04589844 C-601.18427124 1092.75568848 -601.09705811 1093.46547852 -601.00720215 1094.19677734 C-596.13984056 1133.73889942 -587.98669446 1172.4843119 -576.02148438 1210.48339844 C-575.7651825 1211.29994904 -575.50888062 1212.11649963 -575.24481201 1212.95779419 C-571.75836987 1224.09688934 -571.75836987 1224.09688934 -567.28173828 1234.86401367 C-566.02276866 1237.58305947 -564.90908936 1240.34802073 -563.79101562 1243.12792969 C-563.35378174 1244.21477051 -562.91654785 1245.30161133 -562.46606445 1246.42138672 C-562.00997803 1247.55560059 -561.5538916 1248.68981445 -561.08398438 1249.85839844 C-556.7250473 1260.62255746 -552.18122025 1271.27058672 -547.30371094 1281.80957031 C-546.31040862 1283.9615687 -545.33265383 1286.12003884 -544.35742188 1288.28027344 C-538.92669047 1300.19370408 -532.64383022 1311.61497471 -526.27148438 1323.04589844 C-525.5980717 1324.26842494 -524.92486136 1325.49106295 -524.25195312 1326.71386719 C-514.56344791 1344.04341573 -503.84234124 1360.91243788 -492.27148438 1377.04589844 C-491.73700684 1377.79145996 -491.2025293 1378.53702148 -490.65185547 1379.30517578 C-483.00535106 1389.92132348 -475.05312585 1400.22926046 -466.70849609 1410.3046875 C-464.62645305 1412.82747564 -462.57741643 1415.37681614 -460.52148438 1417.92089844 C-457.00480656 1422.21691328 -453.35314155 1426.36653781 -449.60742188 1430.46386719 C-447.70878051 1432.56253264 -445.84523598 1434.68243912 -443.99023438 1436.81933594 C-440.22292391 1441.13413259 -436.32972492 1445.31996101 -432.39648438 1449.48339844 C-431.69394531 1450.2276709 -430.99140625 1450.97194336 -430.26757812 1451.73876953 C-423.62045394 1458.76217501 -416.97227528 1465.68043014 -409.62304688 1471.97558594 C-407.12742469 1474.17272839 -404.7038635 1476.43479635 -402.28051758 1478.7109375 C-395.81818376 1484.77744147 -389.196242 1490.50792915 -382.27148438 1496.04589844 C-381.07990328 1497.02718066 -379.88989841 1498.01037889 -378.70117188 1498.99511719 C-363.52179277 1511.53260081 -347.6334804 1523.10264401 -331.27148438 1534.04589844 C-330.62598633 1534.4793457 -329.98048828 1534.91279297 -329.31542969 1535.359375 C-316.64283232 1543.83076493 -303.5253219 1551.52424576 -290.27148438 1559.04589844 C-289.31387207 1559.59004395 -288.35625977 1560.13418945 -287.36962891 1560.69482422 C-216.63741206 1600.6084374 -137.50103717 1624.56851539 -56.89648438 1633.29589844 C-56.13001587 1633.37907318 -55.36354736 1633.46224792 -54.57385254 1633.54794312 C-49.47705468 1634.09406782 -44.37726467 1634.59152915 -39.27148438 1635.04589844 C-38.08554687 1635.15192383 -36.89960937 1635.25794922 -35.67773438 1635.3671875 C-21.48929676 1636.43591701 -7.24181462 1636.29178714 6.97851562 1636.29589844 C8.02906883 1636.29656122 8.02906883 1636.29656122 9.10084534 1636.2972374 C31.43913693 1636.30461748 53.53890124 1635.81151801 75.72851562 1633.04589844 C77.16161728 1632.87252709 78.59472284 1632.69918794 80.02783203 1632.52587891 C162.95869854 1622.34140675 244.1194544 1595.7221401 315.89599609 1552.73779297 C318.59352035 1551.12653257 321.30143893 1549.53458487 324.01367188 1547.94824219 C335.6058361 1541.13542092 346.74564591 1533.79919084 357.72851562 1526.04589844 C358.49437988 1525.50819824 359.26024414 1524.97049805 360.04931641 1524.41650391 C370.38270991 1517.1435612 380.30973568 1509.49291637 390.04052734 1501.43408203 C392.26482503 1499.60484329 394.526715 1497.82525824 396.79101562 1496.04589844 C413.93413421 1482.34287054 429.70523964 1467.1525882 445.22851562 1451.67089844 C445.79527008 1451.10682281 446.36202454 1450.54274719 446.94595337 1449.96157837 C453.09247757 1443.83710667 459.11900276 1437.67316331 464.72851562 1431.04589844 C465.74999681 1429.87751853 466.77342219 1428.71083539 467.79882812 1427.54589844 C480.87308501 1412.59541043 493.15657818 1397.19039827 504.72851562 1381.04589844 C505.38287598 1380.13356445 506.03723633 1379.22123047 506.71142578 1378.28125 C515.51388726 1365.95231689 523.78241015 1353.44384934 531.38769531 1340.34228516 C532.66200799 1338.15980426 533.95931246 1335.99331294 535.26757812 1333.83105469 C541.77887726 1323.02471353 547.63679028 1311.90725117 553.38134766 1300.67724609 C554.53988119 1298.41434751 555.70839293 1296.15706017 556.88085938 1293.90136719 C560.89272436 1286.11451869 564.54113048 1278.1723714 568.10351562 1270.17089844 C568.71851929 1268.80215576 568.71851929 1268.80215576 569.34594727 1267.40576172 C574.60136032 1255.4486203 579.02733741 1243.2689618 583.72851562 1231.04589844 C393.31851562 1230.71589844 202.90851563 1230.38589844 6.72851562 1230.04589844 C6.72851562 1094.08589844 6.72851562 958.12589844 6.72851562 818.04589844 C311.31851563 818.04589844 615.90851563 818.04589844 929.72851562 818.04589844 C929.72851562 819.69589844 929.72851562 821.34589844 929.72851562 823.04589844 C957.11851563 823.04589844 984.50851562 823.04589844 1012.72851562 823.04589844 C1020.95988266 868.90637189 1020.95988266 868.90637189 1022.97851562 884.67089844 C1023.09892212 885.59028198 1023.21932861 886.50966553 1023.34338379 887.45690918 C1025.7059796 905.56346756 1027.37197184 923.68796308 1028.58459473 941.9050293 C1028.72664587 944.01808523 1028.87457877 946.130647 1029.02441406 948.24316406 C1031.10861192 977.77125792 1032.20168255 1007.44310573 1031.72851562 1037.04589844 C1031.71062988 1038.25181641 1031.69274414 1039.45773437 1031.67431641 1040.70019531 C1030.10456047 1134.24389944 1017.65926726 1226.6840116 927.62823486 1479.22106934 C926.7049737 1481.09364666 925.7862438 1482.96838846 924.86865234 1484.84375 C917.09451253 1500.72392927 908.98697329 1516.32290442 900.11865234 1531.62841797 C898.52553672 1534.39888353 896.98229302 1537.1941931 895.4440918 1539.99536133 C878.9866182 1569.81891418 859.76561383 1598.51720526 839.72851562 1626.04589844 C839.19387695 1626.78340332 838.65923828 1627.5209082 838.10839844 1628.28076172 C824.66740806 1646.78985461 810.63574696 1664.79303589 795.80932617 1682.21337891 C792.93592545 1685.59496951 790.12958384 1689.02093973 787.35351562 1692.48339844 C782.73326283 1698.16730655 777.75145252 1703.47914358 772.74023438 1708.81542969 C770.40748512 1711.30345593 768.13801098 1713.83280773 765.91601562 1716.42089844 C763.07479907 1719.71811271 760.04656484 1722.77329919 756.91601562 1725.79589844 C755.02167529 1727.74436278 753.24901354 1729.73571326 751.47460938 1731.79199219 C747.75117441 1736.07696837 743.81544868 1740.10725043 739.79101562 1744.10839844 C739.12650391 1744.77677734 738.46199219 1745.44515625 737.77734375 1746.13378906 C733.86253682 1750.0410018 729.83795828 1753.75617334 725.65063477 1757.36889648 C722.66470857 1759.97404408 719.79795609 1762.70200036 716.91601562 1765.42089844 C712.81663652 1769.26218671 708.68397896 1772.97558443 704.29101562 1776.48339844 C699.72582214 1780.13420854 695.47158608 1784.03235546 691.22851562 1788.04589844 C686.07097607 1792.92332018 680.81027796 1797.54724484 675.25976562 1801.97949219 C672.72713409 1804.04702626 670.32120402 1806.20703185 667.91601562 1808.42089844 C662.94649453 1812.94363293 657.71744275 1817.05953875 652.41210938 1821.17480469 C649.38431701 1823.52424357 646.39619835 1825.91840212 643.41748047 1828.32958984 C634.5042134 1835.5345807 625.36870127 1842.42980102 616.15722656 1849.24804688 C614.64024524 1850.37099123 613.12497548 1851.49625581 611.61230469 1852.625 C572.63001282 1881.67622484 530.73436047 1907.42846704 487.72851562 1930.04589844 C486.42430685 1930.73451967 485.12010811 1931.42315989 483.81591797 1932.11181641 C406.95763625 1972.62310153 324.8495541 2002.91386421 20.72851562 2048.04589844 C19.69404297 2048.06249512 18.65957031 2048.0790918 17.59375 2048.09619141 C10.96949776 2048.18813185 4.35246639 2048.14077142 -2.27148438 2048.04589844 C-3.47981934 2048.03333008 -4.6881543 2048.02076172 -5.93310547 2048.0078125 C-50.63419081 2047.50802118 -95.80909894 2044.98980948 -140.04034424 2038.37799072 C-142.27648859 2038.04515359 -144.51376712 2037.72113914 -146.75146484 2037.39892578 C-235.28406025 2024.56211241 -322.37786442 1999.29710873 -417.27148438 1957.04589844 C-418.58489671 1956.44224304 -419.89837606 1955.83873345 -421.21191406 1955.23535156 C-449.3548698 1942.28698255 -476.89919618 1928.53270662 -503.52197266 1912.66455078 C-507.06356723 1910.579595 -510.64670604 1908.57384348 -514.2331543 1906.56738281 C-525.57848891 1900.20300473 -536.46401453 1893.23603048 -547.29052734 1886.02978516 C-550.34332239 1883.9980888 -553.40265842 1881.976528 -556.46289062 1879.95605469 C-586.60339444 1860.01264513 -615.61698288 1838.68319782 -643.41601562 1815.58105469 C-645.07887189 1814.20525993 -646.74968102 1812.84058371 -648.42773438 1811.48339844 C-653.73931481 1807.18638955 -658.88688981 1802.76211207 -663.93945312 1798.16308594 C-666.02972327 1796.26538675 -668.14134552 1794.39856429 -670.27148438 1792.54589844 C-674.98744754 1788.43357856 -679.63501706 1784.24748787 -684.27148438 1780.04589844 C-684.75697754 1779.60697266 -685.2424707 1779.16804688 -685.74267578 1778.71582031 C-691.62609622 1773.39101238 -697.41999617 1768.01450821 -702.94335938 1762.31152344 C-704.92345738 1760.38458243 -706.94293196 1758.58038371 -709.03320312 1756.77636719 C-713.31356083 1753.05876964 -717.33799734 1749.12764049 -721.33398438 1745.10839844 C-722.33655273 1744.11163086 -722.33655273 1744.11163086 -723.359375 1743.09472656 C-727.31052847 1739.1358935 -731.05702369 1735.05902823 -734.71069336 1730.82495117 C-736.63678393 1728.62951523 -738.67572272 1726.57910005 -740.77148438 1724.54589844 C-744.12082166 1721.23603146 -747.27074394 1717.83842895 -750.33398438 1714.26464844 C-752.25717193 1712.06228849 -754.23178967 1709.91349202 -756.22070312 1707.77050781 C-760.95770908 1702.66362605 -765.46535081 1697.44423587 -769.83398438 1692.01464844 C-772.70074655 1688.52307912 -775.66926671 1685.13066371 -778.64648438 1681.73339844 C-783.81096066 1675.82055579 -788.73120549 1669.76376187 -793.53710938 1663.55761719 C-795.85082359 1660.57059548 -798.2168066 1657.62977942 -800.59692383 1654.69555664 C-826.61133248 1622.5565934 -850.09551035 1587.54679607 -871.27148438 1552.04589844 C-871.82707031 1551.11583984 -872.38265625 1550.18578125 -872.95507812 1549.22753906 C-881.79135007 1534.37905981 -890.19939531 1519.32229946 -898.27148438 1504.04589844 C-898.59223938 1503.44068359 -898.91299438 1502.83546875 -899.24346924 1502.21191406 C-910.06442412 1481.78884272 -920.12019274 1461.11796644 -929.42767334 1439.96203613 C-930.24063369 1438.1159546 -931.05797545 1436.27180442 -931.87548828 1434.42773438 C-968.30823079 1352.0470101 -993.09581569 1264.43243396 -1006.96154785 1168.2612915 C-1007.25394464 1166.17127056 -1007.55112467 1164.08197392 -1007.84863281 1161.99267578 C-1013.60209352 1120.73526454 -1015.82562693 1078.68212436 -1016.27148438 1037.04589844 C-1016.2942041 1035.45938477 -1016.2942041 1035.45938477 -1016.31738281 1033.84082031 C-1016.40998941 1026.90661935 -1016.3689844 1019.97980991 -1016.27148438 1013.04589844 C-1016.25891602 1011.84368652 -1016.24634766 1010.64147461 -1016.23339844 1009.40283203 C-1015.68840542 964.54100897 -1012.79375684 919.44613422 -1006.27148438 875.04589844 C-1006.14751282 874.19606384 -1006.02354126 873.34622925 -1005.89581299 872.47064209 C-992.9905664 784.43017959 -968.58822608 698.46886942 -894.27148438 536.04589844 C-893.51351562 534.66144531 -893.51351562 534.66144531 -892.74023438 533.24902344 C-874.90584683 500.77697819 -855.31103407 469.52810389 -834.27148438 439.04589844 C-833.72250488 438.24812988 -833.17352539 437.45036133 -832.60791016 436.62841797 C-824.77754845 425.27653157 -816.47675102 414.30434253 -808.06494141 403.37841797 C-806.53255746 401.38544271 -805.00694871 399.38769396 -803.48632812 397.38574219 C-793.92477671 384.83912106 -783.90583407 372.65983346 -773.65722656 360.66992188 C-772.21419346 358.97875623 -770.7777362 357.28215225 -769.34179688 355.58496094 C-763.4122449 348.5966294 -757.33415463 341.77993141 -751.08398438 335.07714844 C-748.54416513 332.35148876 -746.05917833 329.58049164 -743.58398438 326.79589844 C-740.06319067 322.86126822 -736.39815068 319.11887382 -732.60742188 315.44433594 C-730.67268138 313.45782981 -728.86442719 311.43829093 -727.05664062 309.33886719 C-723.01446677 304.68365196 -718.70299938 300.33029184 -714.33398438 295.98339844 C-713.57408203 295.21962891 -712.81417969 294.45585937 -712.03125 293.66894531 C-707.8331496 289.47801503 -703.54142091 285.47287928 -699.04663086 281.6027832 C-696.67555852 279.52324417 -694.47101136 277.3048721 -692.27148438 275.04589844 C-688.78106997 271.51835196 -685.22504124 268.1720537 -681.45507812 264.94824219 C-679.26367073 263.0390912 -677.1283671 261.07598527 -674.99829102 259.09887695 C-669.89090745 254.36087751 -664.67062693 249.8526798 -659.24023438 245.48339844 C-655.74865793 242.61663041 -652.35638891 239.64796526 -648.95898438 236.67089844 C-642.52915428 231.05939561 -635.92965129 225.72829955 -629.17285156 220.51757812 C-627.12795946 218.93480853 -625.09364118 217.33910319 -623.06054688 215.74121094 C-575.85424695 178.69817421 -525.26560548 146.17062376 -472.27148438 118.04589844 C-471.70143677 117.74272705 -471.13138916 117.43955566 -470.54406738 117.12719727 C-437.34955282 99.48820557 -403.35186819 83.57254897 -368.27148438 70.04589844 C-367.24112061 69.64818237 -367.24112061 69.64818237 -366.18994141 69.24243164 C-294.61204926 41.67248264 -220.50434227 21.52439984 -144.57470703 10.38446045 C-142.30372805 10.05063809 -140.03371793 9.71070552 -137.76367188 9.37060547 C-92.27773453 2.63186822 -45.93579223 0.64447231 0 0 Z " fill="#1976D1" transform="translate(1016.271484375,-0.0458984375)"/>
<path d="M0 0 C6.91201541 -0.09054078 13.81687573 -0.06282162 20.72851562 0.04589844 C22.51225586 0.07272705 22.51225586 0.07272705 24.33203125 0.10009766 C115.48323303 1.67127464 205.63337927 13.6962686 317.72851562 47.04589844 C318.50497437 47.29210938 319.28143311 47.53832031 320.0814209 47.79199219 C351.91714457 57.91707457 383.14564765 69.58890673 413.72851562 83.04589844 C415.53231689 83.83673828 415.53231689 83.83673828 417.37255859 84.64355469 C448.64761713 98.3984113 479.65481449 113.25897516 509.14208984 130.54541016 C511.9266441 132.16084063 514.7321458 133.73405848 517.54492188 135.29980469 C518.5372583 135.85345703 519.52959473 136.40710938 520.55200195 136.97753906 C522.38474741 137.99887381 524.21898819 139.01753496 526.05541992 140.03222656 C541.45562073 148.66758237 556.15930062 158.54805019 570.83569336 168.34545898 C573.29130229 169.98358967 575.75097816 171.61548207 578.2109375 173.24707031 C594.79844749 184.28351567 610.85710299 196.00756567 626.72851562 208.04589844 C627.28845215 208.46935547 627.84838867 208.8928125 628.42529297 209.32910156 C637.07757771 215.88126678 645.51151146 222.68303497 653.90820312 229.55761719 C655.50113427 230.85999222 657.09881083 232.15655876 658.69726562 233.45214844 C669.43562936 242.16917311 679.88001339 251.18315137 690.03710938 260.56933594 C695.11894025 265.24550542 700.28496699 269.79312607 705.72851562 274.04589844 C705.20682294 278.20168734 703.01101347 280.14130137 700.11883831 283.0386858 C699.63263123 283.52985239 699.14642415 284.02101899 698.64548352 284.52706942 C697.0045812 286.18098728 695.35314022 287.82396516 693.70158386 289.46723938 C692.51499431 290.65871498 691.32905716 291.8508406 690.14371949 293.04356164 C686.87682201 296.32691753 683.60056087 299.60078987 680.32270515 302.87320101 C676.79237773 306.40086556 673.27065315 309.93710047 669.74778748 313.47221375 C662.84225776 320.3988297 655.92845928 327.31713502 649.01148888 334.23232446 C643.39234108 339.85016646 637.7757492 345.47055127 632.1609745 351.0927639 C630.54585621 352.70998129 628.93073717 354.32719794 627.31561738 355.94441384 C626.51182955 356.7492452 625.70804172 357.55407656 624.87989668 358.38329675 C609.66782313 373.61428488 594.44577113 388.83527047 579.22082982 404.05339428 C565.27736276 417.99128248 551.34715172 431.9423349 537.4230338 445.89955077 C523.14004573 460.21622726 508.84784704 474.52364909 494.54569036 488.82117718 C486.51043533 496.85418294 478.47900481 504.89092832 470.45729637 512.93746376 C463.62973767 519.78597279 456.79362807 526.62579947 449.94610807 533.45435248 C446.44970348 536.94156127 442.95752567 540.43275135 439.47599792 543.93481827 C436.29324646 547.13613887 433.09933314 550.32584862 429.89585034 553.50642004 C428.73464292 554.66340598 427.57770602 555.82469593 426.42535915 556.99050716 C424.86666073 558.56618098 423.29359446 560.1258859 421.71571636 561.68231678 C420.84290168 562.55540385 419.97008699 563.42849092 419.07082337 564.32803518 C416.72851562 566.04589844 416.72851562 566.04589844 414.60187417 565.96461838 C411.43486052 564.41147277 408.95603363 562.00965993 406.35351562 559.67089844 C399.93978991 554.04430797 393.36304524 548.70409676 386.60742188 543.49511719 C384.62324376 541.96470122 382.64479499 540.42703657 380.66601562 538.88964844 C305.82077808 480.96089125 217.60385562 440.74958812 82.04101562 415.73339844 C80.88762695 415.58604248 79.73423828 415.43868652 78.54589844 415.28686523 C74.61108171 414.82055503 70.6734688 414.41422791 66.72851562 414.04589844 C65.34486313 413.9166951 65.34486313 413.9166951 63.93325806 413.78488159 C46.07049034 412.17329028 28.28727022 411.67877242 10.3575592 411.72784042 C8.25273563 411.73350139 6.14792018 411.73630896 4.04309082 411.73892212 C-16.80729478 411.77650651 -37.50081178 412.23324681 -58.21496582 414.79266357 C-60.36935486 415.05794998 -62.52485949 415.31240816 -64.68066406 415.56591797 C-146.93269574 425.35770778 -226.90252838 451.90886438 -382.27148438 552.04589844 C-382.77067383 552.4601709 -383.26986328 552.87444336 -383.78417969 553.30126953 C-390.5641639 558.92903147 -397.17645936 564.69755221 -403.60693359 570.72290039 C-406.34458588 573.28593244 -409.11901356 575.78118846 -411.96679688 578.22167969 C-416.81672444 582.44579151 -421.35440524 586.97841037 -425.88989258 591.53393555 C-427.33173659 592.98114229 -428.77885553 594.4229187 -430.2265625 595.86425781 C-434.90371369 600.53805473 -439.45899164 605.26966 -443.76245117 610.29174805 C-445.98874738 612.87966881 -448.31970806 615.36043288 -450.64648438 617.85839844 C-455.76148643 623.40249671 -460.55873159 629.15495746 -465.27148438 635.04589844 C-466.18224457 636.16495657 -467.09373914 637.28341732 -468.00585938 638.40136719 C-494.33111965 670.79182597 -516.90535358 706.09735942 -536.27148438 743.04589844 C-536.75681641 743.97128418 -537.24214844 744.89666992 -537.7421875 745.85009766 C-571.69330634 811.07963527 -592.67888078 882.09897341 -601.27148438 955.04589844 C-601.35398437 955.72436829 -601.43648437 956.40283813 -601.52148438 957.10186768 C-606.85811499 1001.13304099 -606.81027235 1048.04140109 -601.27148438 1092.04589844 C-601.18427124 1092.75568848 -601.09705811 1093.46547852 -601.00720215 1094.19677734 C-595.22858401 1141.14188703 -584.20837589 1186.23522389 -569.27148438 1231.04589844 C-576.39499335 1237.14405384 -583.68028874 1242.92373957 -591.20727539 1248.51391602 C-595.59272362 1251.77481039 -599.92398052 1255.09169534 -604.20898438 1258.48339844 C-611.50388513 1264.25438238 -618.89596861 1269.89470248 -626.29199219 1275.53515625 C-635.10396246 1282.26042414 -643.86131882 1289.05507884 -652.60791016 1295.86499023 C-659.14286285 1300.95104501 -665.70225875 1306.00420558 -672.27148438 1311.04589844 C-674.43859285 1312.71199097 -676.6050339 1314.37895043 -678.77148438 1316.04589844 C-679.85480562 1316.87924749 -680.93813893 1317.71258085 -682.02148438 1318.54589844 C-682.55773437 1318.95839844 -683.09398437 1319.37089844 -683.64648438 1319.79589844 C-701.52148439 1333.54589845 -701.52148439 1333.54589845 -703.14526367 1334.79492188 C-704.23271439 1335.63144754 -705.32011644 1336.46803647 -706.4074707 1337.3046875 C-709.05242225 1339.33969132 -711.69829549 1341.37346377 -714.34570312 1343.40527344 C-720.58935939 1348.19964939 -726.81186504 1353.02000932 -733.02148438 1357.85839844 C-741.08903518 1364.14284784 -749.20465716 1370.36235782 -757.33447266 1376.56591797 C-761.2914752 1379.58927938 -765.23615514 1382.62862697 -769.18164062 1385.66699219 C-771.2299618 1387.24401822 -773.27942893 1388.81955703 -775.33007812 1390.39355469 C-781.57916929 1395.19154603 -787.80672855 1400.01600708 -794.02148438 1404.85839844 C-802.08903518 1411.14284784 -810.20465716 1417.36235782 -818.33447266 1423.56591797 C-822.2914752 1426.58927938 -826.23615514 1429.62862697 -830.18164062 1432.66699219 C-832.2299618 1434.24401822 -834.27942893 1435.81955703 -836.33007812 1437.39355469 C-842.57916929 1442.19154603 -848.80672855 1447.01600708 -855.02148438 1451.85839844 C-862.41166339 1457.61518972 -869.83945017 1463.32077758 -877.28710938 1469.00292969 C-880.97775756 1471.81896187 -884.65733165 1474.64913173 -888.33398438 1477.48339844 C-892.95335094 1481.04077495 -897.59621563 1484.56236487 -902.27148438 1488.04589844 C-900.79608208 1491.94202336 -899.017299 1495.57211895 -897.06835938 1499.25292969 C-896.75433167 1499.84629623 -896.44030396 1500.43966278 -896.11676025 1501.05101013 C-895.08879208 1502.9888512 -894.05586914 1504.92397539 -893.02148438 1506.85839844 C-892.486604 1507.86006042 -892.486604 1507.86006042 -891.94091797 1508.88195801 C-877.42069136 1536.03050921 -861.60055758 1562.59183853 -844.27148438 1588.04589844 C-843.06191752 1589.87841817 -841.8535755 1591.71174698 -840.64648438 1593.54589844 C-829.6232589 1610.03646667 -818.14898662 1626.12939774 -806.00048828 1641.81005859 C-804.49188092 1643.76089539 -802.99340584 1645.71865802 -801.50195312 1647.68261719 C-795.49825309 1655.56792918 -789.28321349 1663.26836031 -783.00097656 1670.93261719 C-781.23440424 1673.09120697 -779.475284 1675.2557191 -777.71679688 1677.42089844 C-771.60822326 1684.91873241 -765.38633163 1692.21835021 -758.78320312 1699.28417969 C-756.33004688 1701.98150701 -754.04328102 1704.75759522 -751.77148438 1707.60839844 C-747.83876345 1712.499632 -743.55206291 1716.89362817 -739.04492188 1721.24511719 C-736.96866974 1723.34183942 -735.05523568 1725.43155104 -733.14282227 1727.66796875 C-729.13364649 1732.26851168 -724.87594596 1736.58560457 -720.55664062 1740.89355469 C-719.74206894 1741.7090831 -718.92749725 1742.52461151 -718.08824158 1743.36485291 C-716.37589245 1745.07787852 -714.66229595 1746.78965809 -712.94750977 1748.50024414 C-710.34146422 1751.10093396 -707.74079915 1753.706918 -705.140625 1756.31347656 C-703.46711738 1757.9863233 -701.79329956 1759.65885977 -700.11914062 1761.33105469 C-699.35118668 1762.10103287 -698.58323273 1762.87101105 -697.79200745 1763.6643219 C-693.65810646 1767.78055628 -689.4436337 1771.73927406 -685.01637268 1775.53912354 C-682.32435935 1777.86377555 -679.74213298 1780.30246643 -677.14648438 1782.73339844 C-670.93059828 1788.51018316 -664.52711868 1794.04174368 -658.05517578 1799.52832031 C-656.23909663 1801.07345418 -654.43182547 1802.62831859 -652.62695312 1804.18652344 C-646.80989618 1809.20663731 -640.97121775 1814.17408612 -634.93945312 1818.93652344 C-632.91135855 1820.53999499 -630.8947864 1822.15441475 -628.88476562 1823.78027344 C-620.52456506 1830.53287132 -612.03137617 1837.07424088 -603.39453125 1843.46875 C-601.21631189 1845.08688444 -599.04820753 1846.71792657 -596.88085938 1848.35058594 C-585.23948239 1857.07694117 -573.24155308 1865.18932372 -561.08984375 1873.18554688 C-557.76541736 1875.37994475 -554.45872371 1877.5998594 -551.15332031 1879.82275391 C-537.17068261 1889.2098518 -523.00002294 1898.18906799 -508.33007812 1906.46679688 C-502.76681542 1909.60688588 -497.25947067 1912.82541485 -491.77905273 1916.10791016 C-482.74520015 1921.51523911 -473.66619066 1926.57246738 -464.17480469 1931.12646484 C-460.85556401 1932.7298846 -457.56576343 1934.39198056 -454.27148438 1936.04589844 C-452.91738394 1936.72181239 -451.56321762 1937.39759437 -450.20898438 1938.07324219 C-447.74481763 1939.3047263 -445.28788872 1940.54775577 -442.83398438 1941.79980469 C-434.03709549 1946.26576911 -425.14258944 1950.51925892 -416.21948242 1954.7260437 C-414.81708666 1955.38758025 -413.41537065 1956.0505601 -412.0144043 1956.71511841 C-404.24847738 1960.39521788 -396.48295196 1963.84222028 -388.42749023 1966.85473633 C-382.95135405 1968.92157848 -377.55775903 1971.19103388 -372.14648438 1973.42089844 C-361.26428847 1977.86914387 -350.36475777 1982.15441675 -339.27148438 1986.04589844 C-338.67100281 1986.25666016 -338.07052124 1986.46742187 -337.45184326 1986.68457031 C-317.84756008 1993.55753445 -298.18851776 2000.13000051 -278.27148438 2006.04589844 C-278.27148438 2006.70589844 -278.27148438 2007.36589844 -278.27148438 2008.04589844 C-289.56958122 2005.40154131 -300.53778914 2002.15250145 -311.52148438 1998.42089844 C-313.11219471 1997.88402985 -314.70293416 1997.34724752 -316.29370117 1996.81054688 C-320.2379028 1995.47662072 -324.1784015 1994.13212739 -328.11737061 1992.78283691 C-330.08585552 1992.10940346 -332.05579371 1991.44022184 -334.02587891 1990.77148438 C-384.23047197 1973.66811541 -433.75039822 1951.54124149 -480.27148438 1926.04589844 C-481.20025391 1925.53768555 -482.12902344 1925.02947266 -483.0859375 1924.50585938 C-514.47828497 1907.26346503 -544.85045419 1888.46548085 -574.27148438 1868.04589844 C-575.03299805 1867.51754395 -575.79451172 1866.98918945 -576.57910156 1866.44482422 C-599.59271028 1850.4320026 -621.85504742 1833.49910882 -643.41601562 1815.58105469 C-645.07887189 1814.20525993 -646.74968102 1812.84058371 -648.42773438 1811.48339844 C-653.73931481 1807.18638955 -658.88688981 1802.76211207 -663.93945312 1798.16308594 C-666.02972327 1796.26538675 -668.14134552 1794.39856429 -670.27148438 1792.54589844 C-674.98744754 1788.43357856 -679.63501706 1784.24748787 -684.27148438 1780.04589844 C-684.75697754 1779.60697266 -685.2424707 1779.16804688 -685.74267578 1778.71582031 C-691.62609622 1773.39101238 -697.41999617 1768.01450821 -702.94335938 1762.31152344 C-704.92345738 1760.38458243 -706.94293196 1758.58038371 -709.03320312 1756.77636719 C-713.31356083 1753.05876964 -717.33799734 1749.12764049 -721.33398438 1745.10839844 C-722.33655273 1744.11163086 -722.33655273 1744.11163086 -723.359375 1743.09472656 C-727.31052847 1739.1358935 -731.05702369 1735.05902823 -734.71069336 1730.82495117 C-736.63678393 1728.62951523 -738.67572272 1726.57910005 -740.77148438 1724.54589844 C-744.12082166 1721.23603146 -747.27074394 1717.83842895 -750.33398438 1714.26464844 C-752.25717193 1712.06228849 -754.23178967 1709.91349202 -756.22070312 1707.77050781 C-760.95770908 1702.66362605 -765.46535081 1697.44423587 -769.83398438 1692.01464844 C-772.70074655 1688.52307912 -775.66926671 1685.13066371 -778.64648438 1681.73339844 C-783.81096066 1675.82055579 -788.73120549 1669.76376187 -793.53710938 1663.55761719 C-795.85082359 1660.57059548 -798.2168066 1657.62977942 -800.59692383 1654.69555664 C-826.61133248 1622.5565934 -850.09551035 1587.54679607 -871.27148438 1552.04589844 C-871.82707031 1551.11583984 -872.38265625 1550.18578125 -872.95507812 1549.22753906 C-881.79135007 1534.37905981 -890.19939531 1519.32229946 -898.27148438 1504.04589844 C-898.59223938 1503.44068359 -898.91299438 1502.83546875 -899.24346924 1502.21191406 C-910.06442412 1481.78884272 -920.12019274 1461.11796644 -929.42767334 1439.96203613 C-930.24063369 1438.1159546 -931.05797545 1436.27180442 -931.87548828 1434.42773438 C-968.30823079 1352.0470101 -993.09581569 1264.43243396 -1006.96154785 1168.2612915 C-1007.25394464 1166.17127056 -1007.55112467 1164.08197392 -1007.84863281 1161.99267578 C-1013.60209352 1120.73526454 -1015.82562693 1078.68212436 -1016.27148438 1037.04589844 C-1016.2942041 1035.45938477 -1016.2942041 1035.45938477 -1016.31738281 1033.84082031 C-1016.40998941 1026.90661935 -1016.3689844 1019.97980991 -1016.27148438 1013.04589844 C-1016.25891602 1011.84368652 -1016.24634766 1010.64147461 -1016.23339844 1009.40283203 C-1015.68840542 964.54100897 -1012.79375684 919.44613422 -1006.27148438 875.04589844 C-1006.14751282 874.19606384 -1006.02354126 873.34622925 -1005.89581299 872.47064209 C-992.9905664 784.43017959 -968.58822608 698.46886942 -894.27148438 536.04589844 C-893.51351562 534.66144531 -893.51351562 534.66144531 -892.74023438 533.24902344 C-874.90584683 500.77697819 -855.31103407 469.52810389 -834.27148438 439.04589844 C-833.72250488 438.24812988 -833.17352539 437.45036133 -832.60791016 436.62841797 C-824.77754845 425.27653157 -816.47675102 414.30434253 -808.06494141 403.37841797 C-806.53255746 401.38544271 -805.00694871 399.38769396 -803.48632812 397.38574219 C-793.92477671 384.83912106 -783.90583407 372.65983346 -773.65722656 360.66992188 C-772.21419346 358.97875623 -770.7777362 357.28215225 -769.34179688 355.58496094 C-763.4122449 348.5966294 -757.33415463 341.77993141 -751.08398438 335.07714844 C-748.54416513 332.35148876 -746.05917833 329.58049164 -743.58398438 326.79589844 C-740.06319067 322.86126822 -736.39815068 319.11887382 -732.60742188 315.44433594 C-730.67268138 313.45782981 -728.86442719 311.43829093 -727.05664062 309.33886719 C-723.01446677 304.68365196 -718.70299938 300.33029184 -714.33398438 295.98339844 C-713.57408203 295.21962891 -712.81417969 294.45585937 -712.03125 293.66894531 C-707.8331496 289.47801503 -703.54142091 285.47287928 -699.04663086 281.6027832 C-696.67555852 279.52324417 -694.47101136 277.3048721 -692.27148438 275.04589844 C-688.78106997 271.51835196 -685.22504124 268.1720537 -681.45507812 264.94824219 C-679.26367073 263.0390912 -677.1283671 261.07598527 -674.99829102 259.09887695 C-669.89090745 254.36087751 -664.67062693 249.8526798 -659.24023438 245.48339844 C-655.74865793 242.61663041 -652.35638891 239.64796526 -648.95898438 236.67089844 C-642.52915428 231.05939561 -635.92965129 225.72829955 -629.17285156 220.51757812 C-627.12795946 218.93480853 -625.09364118 217.33910319 -623.06054688 215.74121094 C-575.85424695 178.69817421 -525.26560548 146.17062376 -472.27148438 118.04589844 C-471.70143677 117.74272705 -471.13138916 117.43955566 -470.54406738 117.12719727 C-437.34955282 99.48820557 -403.35186819 83.57254897 -368.27148438 70.04589844 C-367.24112061 69.64818237 -367.24112061 69.64818237 -366.18994141 69.24243164 C-294.61204926 41.67248264 -220.50434227 21.52439984 -144.57470703 10.38446045 C-142.30372805 10.05063809 -140.03371793 9.71070552 -137.76367188 9.37060547 C-92.27773453 2.63186822 -45.93579223 0.64447231 0 0 Z " fill="#FF3D00" transform="translate(1016.271484375,-0.0458984375)"/>
<path d="M0 0 C0.24532471 0.65669678 0.49064941 1.31339355 0.7434082 1.98999023 C6.96643629 18.57850543 13.65898714 34.87529602 21 51 C21.38510742 51.85142578 21.77021484 52.70285156 22.16699219 53.58007812 C28.14460805 66.73821931 34.95793264 79.38509196 42 92 C42.67222391 93.21985988 43.34414622 94.43988606 44.015625 95.66015625 C53.70356134 112.99313801 64.42757991 129.86435981 76 146 C76.53447754 146.74556152 77.06895508 147.49112305 77.61962891 148.25927734 C85.26613331 158.87542504 93.21835853 169.18336202 101.56298828 179.25878906 C103.64503132 181.7815772 105.69406795 184.3309177 107.75 186.875 C111.26667782 191.17101484 114.91834282 195.32063937 118.6640625 199.41796875 C120.56270386 201.5166342 122.42624839 203.63654068 124.28125 205.7734375 C128.04856046 210.08823415 131.94175945 214.27406257 135.875 218.4375 C136.57753906 219.18177246 137.28007813 219.92604492 138.00390625 220.69287109 C144.65103043 227.71627657 151.2992091 234.6345317 158.6484375 240.9296875 C161.14405968 243.12682995 163.56762088 245.38889791 165.9909668 247.66503906 C172.45330062 253.73154303 179.07524238 259.46203071 186 265 C187.19158109 265.98128222 188.38158596 266.96448045 189.5703125 267.94921875 C204.7496916 280.48670238 220.63800398 292.05674557 237 303 C237.64549805 303.43344727 238.29099609 303.86689453 238.95605469 304.31347656 C251.62865206 312.78486649 264.74616247 320.47834732 278 328 C278.9576123 328.54414551 279.91522461 329.08829102 280.90185547 329.64892578 C351.63407232 369.56253896 430.7704472 393.52261695 511.375 402.25 C512.14146851 402.33317474 512.90793701 402.41634949 513.69763184 402.50204468 C518.7944297 403.04816938 523.89421971 403.54563072 529 404 C530.77890625 404.15903809 530.77890625 404.15903809 532.59375 404.32128906 C546.78218762 405.39001857 561.02966976 405.2458887 575.25 405.25 C575.9503688 405.25044186 576.65073761 405.25088371 577.37232971 405.25133896 C599.71062131 405.25871905 621.81038561 404.76561958 644 402 C645.43310166 401.82662865 646.86620721 401.6532895 648.29931641 401.47998047 C731.23018292 391.29550831 812.39093878 364.67624166 884.16748047 321.69189453 C886.86500473 320.08063414 889.5729233 318.48868643 892.28515625 316.90234375 C910.26951773 306.33276951 927.16820869 294.29910216 944 282 C947.40829937 283.61817175 949.79530758 285.47765964 952.5625 288.0625 C956.04692728 291.25698224 959.57569235 294.33831892 963.25 297.3125 C967.51731033 300.76842033 971.71311775 304.29377899 975.875 307.875 C980.42295883 311.78831665 984.97966422 315.69005233 989.5625 319.5625 C990.09472168 320.01222168 990.62694336 320.46194336 991.17529297 320.92529297 C992.2471334 321.83068442 993.31907326 322.73595817 994.39111328 323.64111328 C997.09572289 325.92546186 999.79772127 328.21289508 1002.5 330.5 C1003.58332099 331.41668126 1004.66665432 332.33334793 1005.75 333.25 C1129.25 437.75 1129.25 437.75 1130.87548828 439.12548828 C1131.95709521 440.04064413 1133.03880069 440.9556835 1134.12060547 441.87060547 C1136.85617939 444.18443478 1139.58992474 446.50036471 1142.3203125 448.8203125 C1147.30314347 453.05079624 1152.29702715 457.2585368 1157.375 461.375 C1162.49813067 465.54221124 1167.47594928 469.86312457 1172.45263672 474.20263672 C1176.08719203 477.36452443 1179.75511868 480.46842941 1183.5 483.5 C1188.53348541 487.57757127 1193.42333309 491.80505915 1198.30810547 496.05810547 C1203.96264879 500.9787765 1209.67472086 505.82781099 1215.40722656 510.65722656 C1218.10814812 512.93421439 1220.80377244 515.21745794 1223.5 517.5 C1224.58330865 518.41669584 1225.66664196 519.33336253 1226.75 520.25 C1233.25 525.75 1233.25 525.75 1234.87695312 527.12670898 C1235.95370187 528.0377667 1237.03052407 528.94873762 1238.10742188 529.85961914 C1240.91712669 532.23637399 1243.72530795 534.61489732 1246.53125 536.99609375 C1247.11197266 537.48851562 1247.69269531 537.9809375 1248.29101562 538.48828125 C1249.39435822 539.42391577 1250.49725535 540.36007597 1251.59960938 541.296875 C1253.06201186 542.53645303 1254.53086842 543.76840464 1256 545 C1256.9075 545.76441406 1257.815 546.52882813 1258.75 547.31640625 C1260.79852924 549.19970333 1260.79852924 549.19970333 1263 549 C1265.20938147 547.98976707 1265.20938147 547.98976707 1267.5625 545.875 C1268.366875 545.25625 1269.17125 544.6375 1270 544 C1270.99 544.33 1271.98 544.66 1273 545 C1266.40234826 551.08083569 1259.80225651 557.14744771 1253 563 C1252.50806152 563.42361816 1252.01612305 563.84723633 1251.50927734 564.28369141 C1247.34766887 567.86535326 1243.17625123 571.4354276 1239 575 C1238.42491699 575.49113281 1237.84983398 575.98226562 1237.25732422 576.48828125 C1230.26886553 582.45026613 1223.22714939 588.32781239 1216 594 C1215.07888428 594.72413086 1215.07888428 594.72413086 1214.13916016 595.46289062 C1205.47046684 602.26945067 1196.74218855 608.99521251 1187.9375 615.625 C1187.1964502 616.18517822 1186.45540039 616.74535645 1185.69189453 617.32250977 C1171.88361003 627.67504211 1157.61734622 637.38321092 1143.25 646.9375 C1142.46596802 647.4594696 1141.68193604 647.98143921 1140.87414551 648.51922607 C1128.73221427 656.59607301 1116.53384446 664.54059636 1104 672 C1103.07429199 672.55268555 1102.14858398 673.10537109 1101.19482422 673.67480469 C1086.34222424 682.51405694 1071.28590626 690.93470136 1056 699 C1055.36557983 699.33535767 1054.73115967 699.67071533 1054.07751465 700.01623535 C977.3324718 740.55613028 895.56634081 771.03175649 589 817 C587.44829102 817.02489502 587.44829102 817.02489502 585.86523438 817.05029297 C579.24098214 817.14223341 572.62395077 817.09487298 566 817 C564.79166504 816.98743164 563.58333008 816.97486328 562.33837891 816.96191406 C517.63729356 816.46212274 472.46238544 813.94391105 428.23114014 807.33209229 C425.99499578 806.99925515 423.75771726 806.6752407 421.52001953 806.35302734 C386.31466666 801.24841539 351.45348991 793.88132907 317 785.0625 C316.08740417 784.82939117 315.17480835 784.59628235 314.23455811 784.35610962 C311.65452252 783.69350303 309.07677524 783.02282038 306.5 782.34765625 C305.75319977 782.15427673 305.00639954 781.96089722 304.23696899 781.76165771 C299.35836996 780.4641528 294.70356774 778.83501379 290 777 C290 776.34 290 775.68 290 775 C288.865625 774.77828125 287.73125 774.5565625 286.5625 774.328125 C279.68975517 772.79786541 273.00735653 770.60504595 266.30126953 768.47900391 C264.03443053 767.76090702 261.76545788 767.04991441 259.49609375 766.33984375 C243.92443246 761.44383249 228.59121405 755.9257393 213.3125 750.1875 C212.62844086 749.93087585 211.94438171 749.67425171 211.23959351 749.40985107 C202.38858371 746.08471044 193.56738087 742.69729084 184.8125 739.125 C183.58817261 738.62649536 183.58817261 738.62649536 182.33911133 738.11791992 C175.46782856 735.27630611 168.74140444 732.13455402 162 729 C159.86912669 728.02204811 157.73762248 727.04546963 155.60546875 726.0703125 C144.25206393 720.86514333 132.94950005 715.60713213 121.82568359 709.92675781 C119.93751588 708.96828166 118.04237201 708.02510462 116.14453125 707.0859375 C98.3105233 698.25962992 80.97972592 688.77485866 63.83935547 678.66357422 C61.27963569 677.16383814 58.70932196 675.68640709 56.12890625 674.22265625 C35.05534463 662.25763331 14.89481981 648.81856943 -5 635 C-5.75716309 634.4745459 -6.51432617 633.9490918 -7.29443359 633.40771484 C-26.40120231 620.11363744 -45.05590243 606.25137584 -63.01953125 591.4453125 C-65.29996318 589.57434214 -67.58877416 587.71644076 -69.88671875 585.8671875 C-76.62454622 580.43850078 -83.25964671 574.97534999 -89.6328125 569.1171875 C-92.24919083 566.77712635 -94.95317551 564.57579776 -97.6875 562.375 C-101.47194966 559.31342275 -104.96488014 556.15436499 -108.34765625 552.66015625 C-110.04363594 550.95615774 -111.80489696 549.38285917 -113.625 547.8125 C-125.39096043 537.63756656 -136.42391515 526.7348912 -147.40429688 515.72607422 C-149.88818449 513.23678685 -152.37742683 510.75294298 -154.8671875 508.26953125 C-156.47167518 506.66438331 -158.07585292 505.0589255 -159.6796875 503.453125 C-160.41210663 502.7227301 -161.14452576 501.99233521 -161.8991394 501.23980713 C-165.90325984 497.21761136 -169.74330091 493.10710867 -173.44082642 488.80072021 C-176.04594623 485.79201615 -178.77820474 482.90281044 -181.5 480 C-186.09207332 475.07477245 -190.61942568 470.11526183 -195 465 C-195.92298655 463.93082507 -196.84618382 462.86183204 -197.76953125 461.79296875 C-203.95786091 454.61640376 -210.03031938 447.36001341 -216 440 C-217.00721634 438.77424947 -218.01507076 437.54902308 -219.0234375 436.32421875 C-226.0448833 427.77425902 -232.79479423 419.06656435 -239.37841797 410.17626953 C-241.11518207 407.84541811 -242.8701509 405.52914172 -244.62890625 403.21484375 C-253.10875619 392.03710838 -261.19079479 380.65502324 -269 369 C-269.88143558 367.69135584 -270.7629423 366.38275959 -271.64453125 365.07421875 C-290.00576386 337.74329521 -307.12681835 309.76632085 -322.75073242 280.77807617 C-324.96101566 276.68530124 -327.19300418 272.62449309 -329.6015625 268.64453125 C-329.98924805 267.99863037 -330.37693359 267.35272949 -330.77636719 266.68725586 C-331.79323938 265.00986869 -332.82940073 263.34421608 -333.8671875 261.6796875 C-335 259 -335 259 -334.6328125 256.96875 C-332.16150812 253.98899543 -329.12463758 251.86289096 -326 249.625 C-324.54441655 248.55886865 -323.09003501 247.49109484 -321.63671875 246.421875 C-320.49662354 245.5855957 -320.49662354 245.5855957 -319.33349609 244.73242188 C-315.44316766 241.84418474 -311.6287173 238.86008295 -307.8125 235.875 C-306.28786314 234.68476424 -304.7631255 233.49465755 -303.23828125 232.3046875 C-302.51463379 231.73975586 -301.79098633 231.17482422 -301.04541016 230.59277344 C-298.20672416 228.38227123 -295.35440647 226.19017352 -292.5 224 C-287.39919888 220.08468658 -282.32202258 216.14000512 -277.25 212.1875 C-269.18249308 205.90299498 -261.06682656 199.68354012 -252.93701172 193.47998047 C-248.98000918 190.45661906 -245.03532924 187.41727147 -241.08984375 184.37890625 C-239.04152258 182.80188021 -236.99205545 181.22634141 -234.94140625 179.65234375 C-228.69231508 174.8543524 -222.46475583 170.02989136 -216.25 165.1875 C-208.1824492 158.90305059 -200.06682722 152.68354062 -191.93701172 146.47998047 C-187.98000918 143.45661906 -184.03532924 140.41727147 -180.08984375 137.37890625 C-178.04152258 135.80188021 -175.99205545 134.22634141 -173.94140625 132.65234375 C-167.69231508 127.8543524 -161.46475583 123.02989136 -155.25 118.1875 C-147.1824492 111.90305059 -139.06682722 105.68354062 -130.93701172 99.47998047 C-125.94715675 95.66746461 -120.97529632 91.8314782 -116 88 C-114.37848015 86.75233604 -112.75677566 85.50491248 -111.13500977 84.25756836 C-110.04427958 83.41863284 -108.95362212 82.57960276 -107.86303711 81.74047852 C-105.21842284 79.70570351 -102.57286614 77.67218697 -99.92578125 75.640625 C-93.59956202 70.78285063 -87.29355653 65.90003028 -81 61 C-70.14190336 52.5471493 -59.22644213 44.17088879 -48.29443359 35.81396484 C-37.27703152 27.39063991 -26.30212931 18.91459004 -15.359375 10.39453125 C-14.65103516 9.84490723 -13.94269531 9.2952832 -13.21289062 8.72900391 C-11.64156121 7.50127278 -10.07857809 6.26282617 -8.52148438 5.01708984 C-7.71517578 4.37594238 -6.90886719 3.73479492 -6.078125 3.07421875 C-5.3449707 2.48600342 -4.61181641 1.89778809 -3.85644531 1.29174805 C-2 0 -2 0 0 0 Z " fill="#4CAF4F" transform="translate(448,1231)"/>
<path d="M0 0 C0 0.66 0 1.32 0 2 C-1.06395996 2.35602295 -2.12791992 2.7120459 -3.22412109 3.07885742 C-36.69182849 14.29933785 -69.61170025 26.28256199 -101.87841797 40.61621094 C-104.5293556 41.79136458 -107.18564109 42.95180944 -109.84765625 44.1015625 C-163.15779448 67.2322694 -213.89609518 96.49401585 -262 129 C-262.76812012 129.51675293 -263.53624023 130.03350586 -264.32763672 130.56591797 C-275.67979344 138.21009563 -286.78985759 146.13353822 -297.75390625 154.32421875 C-299.89364739 155.92065171 -302.0396101 157.50830565 -304.1875 159.09375 C-313.06720075 165.67027165 -321.69319517 172.51693036 -330.22363281 179.53955078 C-332.70330314 181.57822422 -335.19673813 183.59990231 -337.6875 185.625 C-343.27963074 190.20720862 -348.80053889 194.87082273 -354.30419922 199.55859375 C-356.00234846 201.00199616 -357.70590193 202.43881423 -359.41015625 203.875 C-366.98575096 210.28388241 -374.29386111 216.93016382 -381.515625 223.734375 C-385.23570892 227.23586857 -389.04042577 230.63768016 -392.85546875 234.03515625 C-395.45807337 236.419692 -397.91541987 238.92026691 -400.33203125 241.4921875 C-402 243 -402 243 -404.359375 244.328125 C-407.61166608 246.38726787 -409.93759042 248.99674484 -412.4375 251.875 C-415.19128887 255.02555446 -417.83211644 257.86408418 -421.09765625 260.5078125 C-424.13658357 263.11728172 -425.80859539 265.66906499 -428 269 C-430.17284028 271.39329377 -432.48835542 273.62954061 -434.8125 275.875 C-439.13947801 280.1271264 -443.36750495 284.376759 -447.29296875 289.0078125 C-450.31818479 292.53838499 -453.49050233 295.93739448 -456.62890625 299.3671875 C-458.64139403 301.60181149 -460.58266697 303.87169923 -462.5 306.1875 C-463.325 307.115625 -464.15 308.04375 -465 309 C-465.66 309 -466.32 309 -467 309 C-467.08507812 309.56976563 -467.17015625 310.13953125 -467.2578125 310.7265625 C-468.21943026 313.67214955 -469.73171463 315.14018643 -471.875 317.375 C-476.05558089 321.8852797 -479.8734226 326.55706987 -483.63476562 331.41259766 C-486.61281786 335.24986097 -489.6514917 339.02607138 -492.74389648 342.77172852 C-498.55553062 349.82032475 -504.02484163 357.04502932 -509.32446289 364.48583984 C-513.24019497 369.98037128 -517.29488312 375.33215072 -521.48828125 380.6171875 C-524.85211329 385.02023495 -527.83139191 389.69404727 -530.8833313 394.31524658 C-532.78428053 397.18326886 -534.70814681 400.03585076 -536.62890625 402.890625 C-552.65694132 426.75786258 -567.79228057 450.99712577 -582 476 C-583.26548699 478.21622465 -584.53111111 480.43237099 -585.796875 482.6484375 C-586.99017631 484.74445418 -588.18290891 486.84079478 -589.375 488.9375 C-589.92881348 489.90888916 -590.48262695 490.88027832 -591.05322266 491.88110352 C-591.55901855 492.77498779 -592.06481445 493.66887207 -592.5859375 494.58984375 C-593.0298584 495.37222412 -593.4737793 496.15460449 -593.93115234 496.96069336 C-595.12331903 499.1027671 -595.12331903 499.1027671 -596 502 C-595.29230469 502.24105469 -594.58460938 502.48210937 -593.85546875 502.73046875 C-590.55178464 504.19927496 -588.138392 506.05548038 -585.3125 508.3125 C-580.09045803 512.42408163 -574.77611094 516.37681949 -569.375 520.25 C-560.66169178 526.50841225 -552.01901766 532.85842321 -543.39111328 539.23388672 C-539.43008849 542.15956094 -535.46489406 545.07957278 -531.5 548 C-526.73618529 551.50888924 -521.97328202 555.01897803 -517.21484375 558.53515625 C-509.50460543 564.22964599 -501.77836411 569.89882943 -494 575.5 C-485.41640731 581.68101263 -476.89798751 587.94785667 -468.39111328 594.23388672 C-464.43008849 597.15956094 -460.46489406 600.07957278 -456.5 603 C-451.73618529 606.50888924 -446.97328202 610.01897803 -442.21484375 613.53515625 C-434.50460543 619.22964599 -426.77836411 624.89882943 -419 630.5 C-410.41640731 636.68101263 -401.89798751 642.94785667 -393.39111328 649.23388672 C-389.43008849 652.15956094 -385.46489406 655.07957278 -381.5 658 C-376.73618529 661.50888924 -371.97328202 665.01897803 -367.21484375 668.53515625 C-359.50460543 674.22964599 -351.77836411 679.89882943 -344 685.5 C-335.41640731 691.68101263 -326.89798751 697.94785667 -318.39111328 704.23388672 C-314.43008849 707.15956094 -310.46489406 710.07957278 -306.5 713 C-301.73618529 716.50888924 -296.97328202 720.01897803 -292.21484375 723.53515625 C-281.52761384 731.42830353 -270.78739784 739.24430352 -260 747 C-260.66361741 750.87823723 -261.78841443 754.35695247 -263.1875 758.03125 C-263.63440186 759.21895996 -264.08130371 760.40666992 -264.54174805 761.63037109 C-264.77936859 762.25965515 -265.01698914 762.88893921 -265.2618103 763.53729248 C-281.72769807 807.3169901 -292.80453335 852.69379539 -298.8125 899.0625 C-298.91186859 899.81910919 -299.01123718 900.57571838 -299.11361694 901.35525513 C-302.25858521 925.63666486 -303.38503635 949.89778796 -303.31805801 974.3711586 C-303.31239758 976.47557909 -303.30958966 978.57999145 -303.30697632 980.68441772 C-303.26810412 1002.24322076 -302.69479471 1023.59042683 -300 1045 C-299.91278687 1045.70979004 -299.82557373 1046.41958008 -299.73571777 1047.15087891 C-293.95709964 1094.09598859 -282.93689152 1139.18932545 -268 1184 C-275.12350897 1190.09815541 -282.40880436 1195.87784114 -289.93579102 1201.46801758 C-294.32123925 1204.72891196 -298.65249615 1208.04579691 -302.9375 1211.4375 C-310.23240076 1217.20848394 -317.62448423 1222.84880404 -325.02050781 1228.48925781 C-333.83247808 1235.2145257 -342.58983445 1242.0091804 -351.33642578 1248.8190918 C-357.87137848 1253.90514657 -364.43077438 1258.95830715 -371 1264 C-373.16710847 1265.66609253 -375.33354953 1267.33305199 -377.5 1269 C-378.58332124 1269.83334905 -379.66665456 1270.66668241 -380.75 1271.5 C-381.28625 1271.9125 -381.8225 1272.325 -382.375 1272.75 C-400.24999999 1286.5 -400.24999999 1286.5 -401.8737793 1287.74902344 C-402.96123001 1288.5855491 -404.04863207 1289.42213803 -405.13598633 1290.25878906 C-407.78093787 1292.29379288 -410.42681112 1294.32756533 -413.07421875 1296.359375 C-419.31787502 1301.15375095 -425.54038067 1305.97411088 -431.75 1310.8125 C-439.8175508 1317.09694941 -447.93317278 1323.31645938 -456.06298828 1329.52001953 C-460.01999082 1332.54338094 -463.96467076 1335.58272853 -467.91015625 1338.62109375 C-469.95847742 1340.19811979 -472.00794455 1341.77365859 -474.05859375 1343.34765625 C-480.30768492 1348.1456476 -486.53524417 1352.97010864 -492.75 1357.8125 C-500.8175508 1364.09694941 -508.93317278 1370.31645938 -517.06298828 1376.52001953 C-521.01999082 1379.54338094 -524.96467076 1382.58272853 -528.91015625 1385.62109375 C-530.95847742 1387.19811979 -533.00794455 1388.77365859 -535.05859375 1390.34765625 C-541.30768492 1395.1456476 -547.53524417 1399.97010864 -553.75 1404.8125 C-561.14017902 1410.56929128 -568.5679658 1416.27487914 -576.015625 1421.95703125 C-579.70627319 1424.77306344 -583.38584727 1427.60323329 -587.0625 1430.4375 C-591.68186657 1433.99487652 -596.32473126 1437.51646643 -601 1441 C-599.52459771 1444.89612492 -597.74581463 1448.52622051 -595.796875 1452.20703125 C-595.48284729 1452.8003978 -595.16881958 1453.39376434 -594.84527588 1454.00511169 C-593.81730771 1455.94295276 -592.78438477 1457.87807695 -591.75 1459.8125 C-591.21511963 1460.81416199 -591.21511963 1460.81416199 -590.66943359 1461.83605957 C-576.14920698 1488.98461078 -560.32907321 1515.54594009 -543 1541 C-541.79043315 1542.83251974 -540.58209113 1544.66584854 -539.375 1546.5 C-528.35177452 1562.99056823 -516.87750225 1579.0834993 -504.72900391 1594.76416016 C-503.22039655 1596.71499695 -501.72192146 1598.67275959 -500.23046875 1600.63671875 C-494.22676872 1608.52203074 -488.01172911 1616.22246187 -481.72949219 1623.88671875 C-479.96291986 1626.04530854 -478.20379963 1628.20982066 -476.4453125 1630.375 C-470.33673888 1637.87283397 -464.11484726 1645.17245177 -457.51171875 1652.23828125 C-455.0585625 1654.93560857 -452.77179664 1657.71169678 -450.5 1660.5625 C-446.56727907 1665.45373356 -442.28057854 1669.84772973 -437.7734375 1674.19921875 C-435.69718536 1676.29594098 -433.78375131 1678.3856526 -431.87133789 1680.62207031 C-427.86216211 1685.22261325 -423.60446159 1689.53970613 -419.28515625 1693.84765625 C-418.47058456 1694.66318466 -417.65601288 1695.47871307 -416.8167572 1696.31895447 C-415.10440807 1698.03198008 -413.39081158 1699.74375965 -411.67602539 1701.4543457 C-409.06997985 1704.05503552 -406.46931478 1706.66101956 -403.86914062 1709.26757812 C-402.19563301 1710.94042486 -400.52181518 1712.61296134 -398.84765625 1714.28515625 C-398.0797023 1715.05513443 -397.31174835 1715.82511261 -396.52052307 1716.61842346 C-392.38662208 1720.73465784 -388.17214932 1724.69337563 -383.74488831 1728.4932251 C-381.05287498 1730.81787712 -378.47064861 1733.25656799 -375.875 1735.6875 C-369.65911391 1741.46428473 -363.25563431 1746.99584525 -356.78369141 1752.48242188 C-354.96761225 1754.02755574 -353.1603411 1755.58242015 -351.35546875 1757.140625 C-345.5384118 1762.16073887 -339.69973337 1767.12818768 -333.66796875 1771.890625 C-331.63987418 1773.49409655 -329.62330202 1775.10851631 -327.61328125 1776.734375 C-319.25308068 1783.48697288 -310.75989179 1790.02834244 -302.12304688 1796.42285156 C-299.94482751 1798.040986 -297.77672316 1799.67202814 -295.609375 1801.3046875 C-283.96799801 1810.03104273 -271.9700687 1818.14342528 -259.81835938 1826.13964844 C-256.49393299 1828.33404631 -253.18723934 1830.55396096 -249.88183594 1832.77685547 C-235.89919824 1842.16395337 -221.72853856 1851.14316955 -207.05859375 1859.42089844 C-201.49533104 1862.56098744 -195.9879863 1865.77951641 -190.50756836 1869.06201172 C-181.47371577 1874.46934068 -172.39470628 1879.52656894 -162.90332031 1884.08056641 C-159.58407963 1885.68398616 -156.29427906 1887.34608212 -153 1889 C-151.64589957 1889.67591395 -150.29173324 1890.35169593 -148.9375 1891.02734375 C-146.47333325 1892.25882786 -144.01640434 1893.50185733 -141.5625 1894.75390625 C-132.76561111 1899.21987067 -123.87110507 1903.47336048 -114.94799805 1907.68014526 C-113.54560229 1908.34168181 -112.14388627 1909.00466166 -110.74291992 1909.66921997 C-102.976993 1913.34931945 -95.21146758 1916.79632184 -87.15600586 1919.80883789 C-81.67986967 1921.87568004 -76.28627465 1924.14513544 -70.875 1926.375 C-59.99280409 1930.82324543 -49.0932734 1935.10851832 -38 1939 C-37.39951843 1939.21076172 -36.79903687 1939.42152344 -36.18035889 1939.63867188 C-16.57607571 1946.51163601 3.08296662 1953.08410207 23 1959 C23 1959.66 23 1960.32 23 1961 C11.70190316 1958.35564288 0.73369523 1955.10660301 -10.25 1951.375 C-11.84071034 1950.83813141 -13.43144979 1950.30134908 -15.0222168 1949.76464844 C-18.96641842 1948.43072228 -22.90691713 1947.08622896 -26.84588623 1945.73693848 C-28.81437115 1945.06350502 -30.78430933 1944.3943234 -32.75439453 1943.72558594 C-82.95898759 1926.62221697 -132.47891385 1904.49534305 -179 1879 C-179.92876953 1878.49178711 -180.85753906 1877.98357422 -181.81445312 1877.45996094 C-213.20680059 1860.21756659 -243.57896982 1841.41958241 -273 1821 C-273.76151367 1820.47164551 -274.52302734 1819.94329102 -275.30761719 1819.39892578 C-298.3212259 1803.38610416 -320.58356304 1786.45321038 -342.14453125 1768.53515625 C-343.80738751 1767.15936149 -345.47819665 1765.79468527 -347.15625 1764.4375 C-352.46783043 1760.14049111 -357.61540543 1755.71621364 -362.66796875 1751.1171875 C-364.75823889 1749.21948831 -366.86986115 1747.35266585 -369 1745.5 C-373.71596317 1741.38768012 -378.36353268 1737.20158943 -383 1733 C-383.48549316 1732.56107422 -383.97098633 1732.12214844 -384.47119141 1731.66992188 C-390.35461184 1726.34511394 -396.1485118 1720.96860977 -401.671875 1715.265625 C-403.651973 1713.33868399 -405.67144759 1711.53448527 -407.76171875 1709.73046875 C-412.04207646 1706.0128712 -416.06651296 1702.08174205 -420.0625 1698.0625 C-421.06506836 1697.06573242 -421.06506836 1697.06573242 -422.08789062 1696.04882812 C-426.03904409 1692.08999506 -429.78553931 1688.01312979 -433.43920898 1683.77905273 C-435.36529956 1681.58361679 -437.40423834 1679.53320161 -439.5 1677.5 C-442.84933729 1674.19013302 -445.99925956 1670.79253051 -449.0625 1667.21875 C-450.98568756 1665.01639006 -452.9603053 1662.86759359 -454.94921875 1660.72460938 C-459.6862247 1655.61772762 -464.19386643 1650.39833743 -468.5625 1644.96875 C-471.42926218 1641.47718068 -474.39778234 1638.08476528 -477.375 1634.6875 C-482.53947629 1628.77465735 -487.45972112 1622.71786343 -492.265625 1616.51171875 C-494.57933922 1613.52469705 -496.94532223 1610.58388099 -499.32543945 1607.6496582 C-525.3398481 1575.51069496 -548.82402597 1540.50089764 -570 1505 C-570.55558594 1504.06994141 -571.11117187 1503.13988281 -571.68359375 1502.18164062 C-580.5198657 1487.33316137 -588.92791093 1472.27640103 -597 1457 C-597.320755 1456.39478516 -597.64151001 1455.78957031 -597.97198486 1455.16601562 C-608.79293975 1434.74294428 -618.84870837 1414.072068 -628.15618896 1392.9161377 C-628.96914931 1391.07005616 -629.78649107 1389.22590598 -630.60400391 1387.38183594 C-667.03674642 1305.00111166 -691.82433131 1217.38653552 -705.69006348 1121.21539307 C-705.98246027 1119.12537212 -706.27964029 1117.03607548 -706.57714844 1114.94677734 C-712.33060914 1073.6893661 -714.55414256 1031.63622592 -715 990 C-715.01514648 988.94232422 -715.03029297 987.88464844 -715.04589844 986.79492188 C-715.13850503 979.86072091 -715.09750003 972.93391147 -715 966 C-714.98743164 964.79778809 -714.97486328 963.59557617 -714.96191406 962.35693359 C-714.41692105 917.49511053 -711.52227246 872.40023578 -705 828 C-704.87602844 827.15016541 -704.75205688 826.30033081 -704.62432861 825.42474365 C-691.71908203 737.38428116 -667.3167417 651.42297098 -593 489 C-592.24203125 487.61554688 -592.24203125 487.61554688 -591.46875 486.203125 C-573.63436245 453.73107975 -554.03954969 422.48220545 -533 392 C-532.45102051 391.20223145 -531.90204102 390.40446289 -531.33642578 389.58251953 C-523.50606408 378.23063313 -515.20526664 367.25844409 -506.79345703 356.33251953 C-505.26107308 354.33954427 -503.73546434 352.34179552 -502.21484375 350.33984375 C-492.65329233 337.79322262 -482.63434969 325.61393503 -472.38574219 313.62402344 C-470.94270908 311.93285779 -469.50625183 310.23625381 -468.0703125 308.5390625 C-462.14076052 301.55073096 -456.06267025 294.73403298 -449.8125 288.03125 C-447.27268076 285.30559033 -444.78769396 282.5345932 -442.3125 279.75 C-438.7917063 275.81536978 -435.1266663 272.07297538 -431.3359375 268.3984375 C-429.401197 266.41193137 -427.59294282 264.39239249 -425.78515625 262.29296875 C-421.7429824 257.63775352 -417.431515 253.28439341 -413.0625 248.9375 C-411.92264648 247.7918457 -411.92264648 247.7918457 -410.75976562 246.62304688 C-406.56166523 242.43211659 -402.26993653 238.42698084 -397.77514648 234.55688477 C-395.40407414 232.47734573 -393.19952699 230.25897366 -391 228 C-387.5095856 224.47245353 -383.95355686 221.12615526 -380.18359375 217.90234375 C-377.99218635 215.99319276 -375.85688272 214.03008684 -373.72680664 212.05297852 C-368.61942308 207.31497908 -363.39914256 202.80678137 -357.96875 198.4375 C-354.47717355 195.57073197 -351.08490453 192.60206682 -347.6875 189.625 C-341.25766991 184.01349717 -334.65816691 178.68240112 -327.90136719 173.47167969 C-325.85647509 171.8889101 -323.8221568 170.29320476 -321.7890625 168.6953125 C-274.58276257 131.65227578 -223.9941211 99.12472533 -171 71 C-170.42995239 70.69682861 -169.85990479 70.39365723 -169.27258301 70.08129883 C-119.69015539 43.73405319 -68.1868317 21.96085687 -14.9375 4.1875 C-14.28763123 3.97018219 -13.63776245 3.75286438 -12.96820068 3.52896118 C-2.37741736 0 -2.37741736 0 0 0 Z " fill="#FEC007" transform="translate(715,47)"/>
<path d="M0 0 C0 0.66 0 1.32 0 2 C-1.06395996 2.35602295 -2.12791992 2.7120459 -3.22412109 3.07885742 C-36.69182849 14.29933785 -69.61170025 26.28256199 -101.87841797 40.61621094 C-104.5293556 41.79136458 -107.18564109 42.95180944 -109.84765625 44.1015625 C-163.15779448 67.2322694 -213.89609518 96.49401585 -262 129 C-262.76812012 129.51675293 -263.53624023 130.03350586 -264.32763672 130.56591797 C-275.67979344 138.21009563 -286.78985759 146.13353822 -297.75390625 154.32421875 C-299.89364739 155.92065171 -302.0396101 157.50830565 -304.1875 159.09375 C-313.06720075 165.67027165 -321.69319517 172.51693036 -330.22363281 179.53955078 C-332.70330314 181.57822422 -335.19673813 183.59990231 -337.6875 185.625 C-343.27963074 190.20720862 -348.80053889 194.87082273 -354.30419922 199.55859375 C-356.00234846 201.00199616 -357.70590193 202.43881423 -359.41015625 203.875 C-366.98575096 210.28388241 -374.29386111 216.93016382 -381.515625 223.734375 C-385.23570892 227.23586857 -389.04042577 230.63768016 -392.85546875 234.03515625 C-395.45807337 236.419692 -397.91541987 238.92026691 -400.33203125 241.4921875 C-402 243 -402 243 -404.359375 244.328125 C-407.61166608 246.38726787 -409.93759042 248.99674484 -412.4375 251.875 C-415.19128887 255.02555446 -417.83211644 257.86408418 -421.09765625 260.5078125 C-424.13658357 263.11728172 -425.80859539 265.66906499 -428 269 C-430.17284028 271.39329377 -432.48835542 273.62954061 -434.8125 275.875 C-439.13947801 280.1271264 -443.36750495 284.376759 -447.29296875 289.0078125 C-450.31818479 292.53838499 -453.49050233 295.93739448 -456.62890625 299.3671875 C-458.64139403 301.60181149 -460.58266697 303.87169923 -462.5 306.1875 C-463.325 307.115625 -464.15 308.04375 -465 309 C-465.66 309 -466.32 309 -467 309 C-467.08507812 309.56976563 -467.17015625 310.13953125 -467.2578125 310.7265625 C-468.21943026 313.67214955 -469.73171463 315.14018643 -471.875 317.375 C-476.05558089 321.8852797 -479.8734226 326.55706987 -483.63476562 331.41259766 C-486.61281786 335.24986097 -489.6514917 339.02607138 -492.74389648 342.77172852 C-498.55553062 349.82032475 -504.02484163 357.04502932 -509.32446289 364.48583984 C-513.24019497 369.98037128 -517.29488312 375.33215072 -521.48828125 380.6171875 C-524.85211329 385.02023495 -527.83139191 389.69404727 -530.8833313 394.31524658 C-532.78428053 397.18326886 -534.70814681 400.03585076 -536.62890625 402.890625 C-558.0026794 434.71816465 -577.36726591 467.50539057 -596 501 C-596.66 501 -597.32 501 -598 501 C-596.32756305 494.98527194 -593.35325661 489.75683461 -590.375 484.3125 C-589.80378418 483.26449219 -589.23256836 482.21648437 -588.64404297 481.13671875 C-581.74072505 468.57375676 -574.43394914 456.25478572 -567 444 C-566.07598389 442.47656982 -566.07598389 442.47656982 -565.13330078 440.92236328 C-554.96633234 424.2415403 -544.09053035 408.07412042 -533 392 C-532.42121094 391.15824219 -531.84242188 390.31648438 -531.24609375 389.44921875 C-523.45157702 378.13837868 -515.17216856 367.21545368 -506.79345703 356.33251953 C-505.26107308 354.33954427 -503.73546434 352.34179552 -502.21484375 350.33984375 C-492.65329233 337.79322262 -482.63434969 325.61393503 -472.38574219 313.62402344 C-470.94270908 311.93285779 -469.50625183 310.23625381 -468.0703125 308.5390625 C-462.14076052 301.55073096 -456.06267025 294.73403298 -449.8125 288.03125 C-447.27268076 285.30559033 -444.78769396 282.5345932 -442.3125 279.75 C-438.7917063 275.81536978 -435.1266663 272.07297538 -431.3359375 268.3984375 C-429.401197 266.41193137 -427.59294282 264.39239249 -425.78515625 262.29296875 C-421.7429824 257.63775352 -417.431515 253.28439341 -413.0625 248.9375 C-412.30259766 248.17373047 -411.54269531 247.40996094 -410.75976562 246.62304688 C-406.56166523 242.43211659 -402.26993653 238.42698084 -397.77514648 234.55688477 C-395.40407414 232.47734573 -393.19952699 230.25897366 -391 228 C-387.5095856 224.47245353 -383.95355686 221.12615526 -380.18359375 217.90234375 C-377.99218635 215.99319276 -375.85688272 214.03008684 -373.72680664 212.05297852 C-368.61942308 207.31497908 -363.39914256 202.80678137 -357.96875 198.4375 C-354.47717355 195.57073197 -351.08490453 192.60206682 -347.6875 189.625 C-341.25766991 184.01349717 -334.65816691 178.68240112 -327.90136719 173.47167969 C-325.85647509 171.8889101 -323.8221568 170.29320476 -321.7890625 168.6953125 C-274.58276257 131.65227578 -223.9941211 99.12472533 -171 71 C-170.42995239 70.69682861 -169.85990479 70.39365723 -169.27258301 70.08129883 C-119.69015539 43.73405319 -68.1868317 21.96085687 -14.9375 4.1875 C-14.28763123 3.97018219 -13.63776245 3.75286438 -12.96820068 3.52896118 C-2.37741736 0 -2.37741736 0 0 0 Z " fill="#FF8F03" transform="translate(715,47)"/>
<path d="M0 0 C5.86130919 1.23064337 11.59531106 2.67763191 17.3203125 4.43359375 C18.0886441 4.66694931 18.85697571 4.90030487 19.64859009 5.14073181 C22.14238756 5.90102295 24.63399276 6.66811853 27.125 7.4375 C27.98758423 7.70355042 28.85016846 7.96960083 29.7388916 8.24371338 C79.8170692 23.7328921 128.12453163 43.83104606 175.08410645 67.05474854 C176.92487651 67.96293605 178.7679607 68.8661856 180.61230469 69.76708984 C195.07992972 76.83673073 209.20841146 84.3243363 223.15576172 92.37060547 C226.05212431 94.02986074 228.96255511 95.66131727 231.87890625 97.28515625 C232.86221924 97.83429688 233.84553223 98.3834375 234.85864258 98.94921875 C236.67814441 99.96444024 238.49935805 100.97660582 240.32299805 101.984375 C255.72499882 110.61933419 270.42966183 120.50140197 285.10717773 130.29956055 C287.56278666 131.93769123 290.02246253 133.56958363 292.48242188 135.20117188 C309.06993187 146.23761723 325.12858737 157.96166723 341 170 C341.55993652 170.42345703 342.11987305 170.84691406 342.69677734 171.28320312 C351.34906208 177.83536834 359.78299584 184.63713653 368.1796875 191.51171875 C369.77261865 192.81409379 371.3702952 194.11066032 372.96875 195.40625 C383.70711373 204.12327468 394.15149777 213.13725293 404.30859375 222.5234375 C409.39042462 227.19960698 414.55645137 231.74722763 420 236 C419.47830731 240.1557889 417.28249784 242.09540293 414.39032269 244.99278736 C413.90411561 245.48395396 413.41790853 245.97512055 412.9169679 246.48117098 C411.27606558 248.13508884 409.6246246 249.77806673 407.97306824 251.42134094 C406.78647869 252.61281654 405.60054153 253.80494216 404.41520387 254.9976632 C401.14830639 258.28101909 397.87204525 261.55489143 394.59418952 264.82730258 C391.0638621 268.35496713 387.54213752 271.89120203 384.01927185 275.42631531 C377.11374213 282.35293127 370.19994365 289.27123658 363.28297325 296.18642602 C357.66382546 301.80426802 352.04723358 307.42465283 346.43245888 313.04686546 C344.81734059 314.66408286 343.20222154 316.2812995 341.58710176 317.8985154 C340.78331393 318.70334676 339.97952609 319.50817812 339.15138105 320.33739831 C323.9393075 335.56838644 308.7172555 350.78937203 293.4923142 366.00749584 C279.54884714 379.94538404 265.61863609 393.89643646 251.69451817 407.85365234 C237.4115301 422.17032882 223.11933142 436.47775065 208.81717473 450.77527875 C200.7819197 458.8082845 192.75048919 466.84502988 184.72878075 474.89156532 C177.90122204 481.74007435 171.06511245 488.57990103 164.21759244 495.40845404 C160.72118785 498.89566283 157.22901004 502.38685291 153.7474823 505.88891983 C150.56473084 509.09024044 147.37081751 512.27995018 144.16733471 515.4605216 C143.00612729 516.61750754 141.84919039 517.77879749 140.69684353 518.94460873 C139.1381451 520.52028254 137.56507884 522.07998747 135.98720074 523.63641834 C135.11438605 524.50950541 134.24157136 525.38259248 133.34230775 526.28213674 C131 528 131 528 128.75079995 527.89772385 C127 527 127 527 126 525 C126.72018773 525.09212296 127.44037546 525.18424593 128.18238705 525.2791605 C132.09355317 524.89165409 133.32415826 523.29712041 136.08180714 520.53343201 C136.57045123 520.05055713 137.05909533 519.56768226 137.56254682 519.07017481 C139.20678086 517.43923926 140.8324856 515.79098858 142.4589386 514.14233398 C143.64188021 512.96157158 144.8259195 511.78190801 146.01096314 510.60325527 C149.27184796 507.3535829 152.51688366 504.08847047 155.75962317 500.82070494 C159.25634064 497.30244805 162.76744088 493.79859805 166.27684021 490.29299927 C172.35766023 484.21480436 178.42923948 478.12750257 184.49468422 472.03396606 C193.26436286 463.22369759 202.04777258 454.42722509 210.83462336 445.63408697 C225.08940434 431.36835572 239.3329777 417.09148825 253.56958008 402.80761719 C267.4012949 388.93002575 281.23823773 375.0576817 295.08227539 361.19238281 C295.93524251 360.33810208 296.78820963 359.48382134 297.66702423 358.60365331 C301.94602943 354.31812305 306.22513795 350.03269596 310.50429785 345.74732018 C346.01889835 310.18086387 381.51534536 274.59633161 417 239 C416.59007812 238.52949219 416.18015625 238.05898438 415.7578125 237.57421875 C415.21898437 236.95160156 414.68015625 236.32898438 414.125 235.6875 C413.59132813 235.07261719 413.05765625 234.45773437 412.5078125 233.82421875 C411 232 411 232 409 229 C407.34151823 227.98648336 405.67334039 226.98879205 404 226 C401.87475454 224.42481807 399.96681063 222.7838515 398 221 C398 220.34 398 219.68 398 219 C397.43410156 218.75378906 396.86820313 218.50757813 396.28515625 218.25390625 C393.60751742 216.78463776 391.66956388 215.02247565 389.4375 212.9375 C384.12318823 208.07184919 378.60275499 203.52747878 373 199 C371.78057483 198.00082343 370.56186423 197.00077435 369.34375 196 C360.35630992 188.63072555 351.20891572 181.50348581 341.94726562 174.48291016 C340.18088024 173.13774656 338.42377361 171.78191655 336.671875 170.41796875 C270.48010239 118.94471844 196.10143661 76.74737113 119 44 C117.8454834 43.50838379 116.6909668 43.01676758 115.50146484 42.51025391 C88.88415316 31.2501432 61.68135347 21.33077747 34.1875 12.4375 C33.06628754 12.07472458 33.06628754 12.07472458 31.92242432 11.70462036 C21.33321192 8.29100233 10.68584167 5.09677484 0 2 C0 1.34 0 0.68 0 0 Z " fill="#FF6701" transform="translate(1302,38)"/>
<path d="M0 0 C3.73558735 3.58830613 6.97707676 7.3842388 10.125 11.5 C14.31640772 16.91094767 18.63488033 22.18256419 23.08447266 27.38256836 C25.79553179 30.55678696 28.4264565 33.77612164 31 37.0625 C34.42264326 41.38804914 38.10488616 45.435532 41.86328125 49.46679688 C44.88685902 52.72841875 47.72765183 56.08094649 50.5 59.5625 C54.43272093 64.45373356 58.71942146 68.84772973 63.2265625 73.19921875 C65.30281464 75.29594098 67.21624869 77.3856526 69.12866211 79.62207031 C73.13783789 84.22261325 77.39553841 88.53970613 81.71484375 92.84765625 C82.93670128 94.07094887 82.93670128 94.07094887 84.1832428 95.31895447 C85.89559193 97.03198008 87.60918842 98.74375965 89.32397461 100.4543457 C91.93002015 103.05503552 94.53068522 105.66101956 97.13085938 108.26757812 C98.80436699 109.94042486 100.47818482 111.61296134 102.15234375 113.28515625 C103.30427467 114.44012352 103.30427467 114.44012352 104.47947693 115.61842346 C108.61337792 119.73465784 112.82785068 123.69337563 117.25511169 127.4932251 C119.94712502 129.81787712 122.52935139 132.25656799 125.125 134.6875 C131.34088609 140.46428473 137.74436569 145.99584525 144.21630859 151.48242188 C146.03238775 153.02755574 147.8396589 154.58242015 149.64453125 156.140625 C155.4615882 161.16073887 161.30026663 166.12818768 167.33203125 170.890625 C169.36012582 172.49409655 171.37669798 174.10851631 173.38671875 175.734375 C181.74691932 182.48697288 190.24010821 189.02834244 198.87695312 195.42285156 C201.05517249 197.040986 203.22327684 198.67202814 205.390625 200.3046875 C217.03200199 209.03104273 229.0299313 217.14342528 241.18164062 225.13964844 C244.50606701 227.33404631 247.81276066 229.55396096 251.11816406 231.77685547 C265.10080176 241.16395337 279.27146144 250.14316955 293.94140625 258.42089844 C299.50466896 261.56098744 305.0120137 264.77951641 310.49243164 268.06201172 C319.52628423 273.46934068 328.60529372 278.52656894 338.09667969 283.08056641 C341.41592037 284.68398616 344.70572094 286.34608212 348 288 C349.35410043 288.67591395 350.70826676 289.35169593 352.0625 290.02734375 C354.52666675 291.25882786 356.98359566 292.50185733 359.4375 293.75390625 C368.23438889 298.21987067 377.12889493 302.47336048 386.05200195 306.68014526 C387.45439771 307.34168181 388.85611373 308.00466166 390.25708008 308.66921997 C398.023007 312.34931945 405.78853242 315.79632184 413.84399414 318.80883789 C419.32013033 320.87568004 424.71372535 323.14513544 430.125 325.375 C441.00719591 329.82324543 451.9067266 334.10851832 463 338 C463.90072235 338.31614258 463.90072235 338.31614258 464.81964111 338.63867188 C484.42392429 345.51163601 504.08296662 352.08410207 524 358 C524 358.66 524 359.32 524 360 C512.70190316 357.35564288 501.73369523 354.10660301 490.75 350.375 C489.15928966 349.83813141 487.56855021 349.30134908 485.9777832 348.76464844 C482.03358158 347.43072228 478.09308287 346.08622896 474.15411377 344.73693848 C472.18562885 344.06350502 470.21569067 343.3943234 468.24560547 342.72558594 C418.04101241 325.62221697 368.52108615 303.49534305 322 278 C321.07123047 277.49178711 320.14246094 276.98357422 319.18554688 276.45996094 C287.79319941 259.21756659 257.42103018 240.41958241 228 220 C227.23848633 219.47164551 226.47697266 218.94329102 225.69238281 218.39892578 C202.6787741 202.38610416 180.41643696 185.45321038 158.85546875 167.53515625 C157.19261249 166.15936149 155.52180335 164.79468527 153.84375 163.4375 C148.53216957 159.14049111 143.38459457 154.71621364 138.33203125 150.1171875 C136.24176111 148.21948831 134.13013885 146.35266585 132 144.5 C127.28403683 140.38768012 122.63646732 136.20158943 118 132 C117.51450684 131.56107422 117.02901367 131.12214844 116.52880859 130.66992188 C110.64538816 125.34511394 104.8514882 119.96860977 99.328125 114.265625 C97.348027 112.33868399 95.32855241 110.53448527 93.23828125 108.73046875 C88.95792354 105.0128712 84.93348704 101.08174205 80.9375 97.0625 C80.26912109 96.39798828 79.60074219 95.73347656 78.91210938 95.04882812 C74.96095591 91.08999506 71.21446069 87.01312979 67.56079102 82.77905273 C65.63470044 80.58361679 63.59576166 78.53320161 61.5 76.5 C58.15066271 73.19013302 55.00074044 69.79253051 51.9375 66.21875 C50.01431244 64.01639006 48.0396947 61.86759359 46.05078125 59.72460938 C41.3137753 54.61772762 36.80613357 49.39833743 32.4375 43.96875 C29.57074611 40.47719078 26.60243083 37.08456873 23.625 33.6875 C18.35004561 27.65501341 13.33471648 21.46265497 8.4375 15.12109375 C6.74471323 12.9535671 5.03721374 10.88065587 3.23828125 8.80859375 C0.79532595 5.74317514 0.27567993 3.85951896 0 0 Z " fill="#DFBD12" transform="translate(214,1648)"/>
<path d="M0 0 C0.86625 0.3403125 0.86625 0.3403125 1.75 0.6875 C-5.20365933 7.22106545 -12.20271614 13.57489249 -19.6484375 19.55078125 C-22.19986729 21.64632494 -24.63326773 23.82713155 -27.0625 26.0625 C-32.03202109 30.58523449 -37.26107288 34.70114031 -42.56640625 38.81640625 C-45.59419861 41.16584513 -48.58231728 43.56000368 -51.56103516 45.97119141 C-60.47430223 53.17618226 -69.60981435 60.07140258 -78.82128906 66.88964844 C-80.33827039 68.01259279 -81.85354015 69.13785737 -83.36621094 70.26660156 C-122.34850281 99.3178264 -164.24415515 125.0700686 -207.25 147.6875 C-208.55420877 148.37612123 -209.85840751 149.06476145 -211.16259766 149.75341797 C-258.74801927 174.83525092 -308.04472317 195.48873097 -358.9375 212.875 C-359.93276703 213.21545349 -360.92803406 213.55590698 -361.95346069 213.90667725 C-364.78399209 214.87292302 -367.61618292 215.83409386 -370.44921875 216.79296875 C-371.73928833 217.23271782 -371.73928833 217.23271782 -373.05541992 217.68135071 C-379.0174633 219.6875 -379.0174633 219.6875 -381.25 219.6875 C-381.25 219.0275 -381.25 218.3675 -381.25 217.6875 C-380.0031543 217.26041748 -378.75630859 216.83333496 -377.47167969 216.39331055 C-353.86855342 208.29727403 -330.32999169 200.19181704 -307.25 190.6875 C-306.01168251 190.18149364 -304.77323402 189.67580779 -303.53466797 189.17041016 C-263.3107457 172.73204542 -223.32705798 154.3026082 -185.86181641 132.22216797 C-183.04720681 130.56834147 -180.21829903 128.94099249 -177.38671875 127.31640625 C-157.49778371 115.87196215 -138.11956834 103.74193736 -119.125 90.875 C-118.163022 90.2236055 -118.163022 90.2236055 -117.18161011 89.55905151 C-88.42790766 70.05607812 -60.55491158 49.28915335 -34.08691406 26.77270508 C-30.65902421 23.86103306 -27.18994063 21.00961044 -23.6875 18.1875 C-19.06109623 14.42939489 -14.65759322 10.47610943 -10.30834961 6.40429688 C-2.99937563 -0.41657995 -2.99937563 -0.41657995 0 0 Z " fill="#EDBF0C" transform="translate(1711.25,1782.3125)"/>
<path d="M0 0 C0 0.99 0 1.98 0 3 C-1.65840764 4.01363794 -3.32707206 5.0105103 -5 6 C-6.88543594 7.92660266 -8.67406896 9.84468477 -10.4375 11.875 C-13.19128887 15.02555446 -15.83211644 17.86408418 -19.09765625 20.5078125 C-22.13658357 23.11728172 -23.80859539 25.66906499 -26 29 C-28.17284028 31.39329377 -30.48835542 33.62954061 -32.8125 35.875 C-37.13947801 40.1271264 -41.36750495 44.376759 -45.29296875 49.0078125 C-48.31818479 52.53838499 -51.49050233 55.93739448 -54.62890625 59.3671875 C-56.64139403 61.60181149 -58.58266697 63.87169923 -60.5 66.1875 C-61.325 67.115625 -62.15 68.04375 -63 69 C-63.66 69 -64.32 69 -65 69 C-65.08507812 69.56976563 -65.17015625 70.13953125 -65.2578125 70.7265625 C-66.21943026 73.67214955 -67.73171463 75.14018643 -69.875 77.375 C-74.05558089 81.8852797 -77.8734226 86.55706987 -81.63476562 91.41259766 C-84.61281786 95.24986097 -87.6514917 99.02607138 -90.74389648 102.77172852 C-96.55553062 109.82032475 -102.02484163 117.04502932 -107.32446289 124.48583984 C-111.24019497 129.98037128 -115.29488312 135.33215072 -119.48828125 140.6171875 C-122.85211329 145.02023495 -125.83139191 149.69404727 -128.8833313 154.31524658 C-130.78428053 157.18326886 -132.70814681 160.03585076 -134.62890625 162.890625 C-156.0026794 194.71816465 -175.36726591 227.50539057 -194 261 C-194.66 261 -195.32 261 -196 261 C-194.32756305 254.98527194 -191.35325661 249.75683461 -188.375 244.3125 C-187.80378418 243.26449219 -187.23256836 242.21648437 -186.64404297 241.13671875 C-179.74072505 228.57375676 -172.43394914 216.25478572 -165 204 C-164.07598389 202.47656982 -164.07598389 202.47656982 -163.13330078 200.92236328 C-152.96633234 184.2415403 -142.09053035 168.07412042 -131 152 C-130.13181641 150.73736328 -130.13181641 150.73736328 -129.24609375 149.44921875 C-121.45157702 138.13837868 -113.17216856 127.21545368 -104.79345703 116.33251953 C-103.26107308 114.33954427 -101.73546434 112.34179552 -100.21484375 110.33984375 C-90.65329233 97.79322262 -80.63434969 85.61393503 -70.38574219 73.62402344 C-68.94270908 71.93285779 -67.50625183 70.23625381 -66.0703125 68.5390625 C-60.14076052 61.55073096 -54.06267025 54.73403298 -47.8125 48.03125 C-45.27268076 45.30559033 -42.78769396 42.5345932 -40.3125 39.75 C-36.7917063 35.81536978 -33.1266663 32.07297538 -29.3359375 28.3984375 C-27.4094324 26.42038712 -25.60865586 24.41070721 -23.80859375 22.3203125 C-19.63405355 17.51275695 -15.18639457 13.00256116 -10.6875 8.5 C-9.87732422 7.67757813 -9.06714844 6.85515625 -8.23242188 6.0078125 C-7.07129883 4.84378906 -7.07129883 4.84378906 -5.88671875 3.65625 C-5.18764404 2.95306641 -4.48856934 2.24988281 -3.76831055 1.52539062 C-2 0 -2 0 0 0 Z " fill="#FFA304" transform="translate(313,287)"/>
<path d="M0 0 C3.36358793 3.04477749 5.31945644 6.09013121 7.3984375 10.109375 C7.86523422 11.00154724 7.86523422 11.00154724 8.34146118 11.91174316 C9.00981773 13.18937478 9.67520765 14.46856193 10.33789062 15.74914551 C12.10904485 19.16616398 13.90928135 22.56773911 15.7109375 25.96875 C16.25581818 26.99781464 16.25581818 26.99781464 16.81170654 28.04766846 C29.77615232 52.43779002 44.45896429 76.17232484 60 99 C61.20956685 100.83251974 62.41790887 102.66584854 63.625 104.5 C73.58252213 119.39629314 83.80205167 134.06837489 94.859375 148.17358398 C101.15408651 156.26483062 101.15408651 156.26483062 103 161 C102.67 161.66 102.34 162.32 102 163 C94.69712431 154.43280216 88.12220301 145.41743523 81.60253906 136.24951172 C80.16727135 134.23480168 78.72234454 132.22756404 77.2734375 130.22265625 C61.63896834 108.46862041 46.72298591 86.00618226 33 63 C32.44441406 62.06994141 31.88882813 61.13988281 31.31640625 60.18164062 C23.01478677 46.23159185 15.11021204 32.08757989 7.48828125 17.75537109 C6.44525555 15.8243363 5.37797572 13.90629769 4.29296875 11.99853516 C3.74253906 11.02577637 3.19210938 10.05301758 2.625 9.05078125 C1.87089844 7.74040894 1.87089844 7.74040894 1.1015625 6.40356445 C0 4 0 4 0 0 Z " fill="#EDBF0C" transform="translate(112,1489)"/>
<path d="M0 0 C0 0.66 0 1.32 0 2 C-1.06395996 2.35602295 -2.12791992 2.7120459 -3.22412109 3.07885742 C-36.69182849 14.29933785 -69.61170025 26.28256199 -101.87841797 40.61621094 C-104.5293556 41.79136458 -107.18564109 42.95180944 -109.84765625 44.1015625 C-137.31843915 56.02084556 -164.16438823 69.62501649 -190.11474609 84.54907227 C-195.97974518 87.91337051 -201.91867341 91.04415241 -208 94 C-206.79822428 90.39467283 -206.07867567 90.18148044 -202.85546875 88.390625 C-201.96529053 87.89095215 -201.0751123 87.3912793 -200.15795898 86.87646484 C-199.17770752 86.33973145 -198.19745605 85.80299805 -197.1875 85.25 C-196.16793213 84.68361816 -195.14836426 84.11723633 -194.09790039 83.53369141 C-190.73913322 81.67567154 -187.37115167 79.83544696 -184 78 C-182.85208984 77.37383789 -181.70417969 76.74767578 -180.52148438 76.10253906 C-127.45082773 47.23151053 -72.2422876 23.32406126 -14.9375 4.1875 C-14.28744995 3.97009155 -13.6373999 3.75268311 -12.96765137 3.52868652 C-2.37752258 0 -2.37752258 0 0 0 Z " fill="#FF7D02" transform="translate(715,47)"/>
<path d="M0 0 C-1.19928787 3.5978636 -1.82304476 3.7399494 -5.07421875 5.42578125 C-5.95319824 5.8851709 -6.83217773 6.34456055 -7.73779297 6.81787109 C-8.71119629 7.31109863 -9.68459961 7.80432617 -10.6875 8.3125 C-11.7098877 8.83666504 -12.73227539 9.36083008 -13.78564453 9.90087891 C-59.11849453 32.91643532 -106.45817129 51.46735751 -154.625 67.625 C-155.64480957 67.96805176 -156.66461914 68.31110352 -157.71533203 68.66455078 C-158.64716309 68.97376465 -159.57899414 69.28297852 -160.5390625 69.6015625 C-161.35584473 69.87307129 -162.17262695 70.14458008 -163.01416016 70.42431641 C-165 71 -165 71 -167 71 C-167 70.34 -167 69.68 -167 69 C-165.7531543 68.57291748 -164.50630859 68.14583496 -163.22167969 67.70581055 C-139.61855342 59.60977403 -116.07999169 51.50431704 -93 42 C-91.76168251 41.49399364 -90.52323402 40.98830779 -89.28466797 40.48291016 C-63.03585033 29.75596012 -37.39917839 17.89084263 -12.12915039 5.02807617 C-11.46707077 4.69271851 -10.80499115 4.35736084 -10.12284851 4.01184082 C-8.32041249 3.09844584 -6.52023826 2.18059152 -4.72021484 1.26245117 C-2 0 -2 0 0 0 Z " fill="#E6BE0F" transform="translate(1497,1931)"/>
<path d="M0 0 C8.94319056 4.19941122 17.87925843 8.39810789 26.6875 12.875 C33.45228996 16.294497 40.30418224 19.51402579 47.1875 22.6875 C48.16098389 23.13915527 49.13446777 23.59081055 50.13745117 24.05615234 C56.24647626 26.85374807 62.41926323 29.36208079 68.70336914 31.73852539 C74.21868644 33.84899303 79.6654156 36.12522808 85.125 38.375 C96.00719591 42.82324543 106.9067266 47.10851832 118 51 C118.60048157 51.21076172 119.20096313 51.42152344 119.81964111 51.63867188 C139.42392429 58.51163601 159.08296662 65.08410207 179 71 C179 71.66 179 72.32 179 73 C167.70190316 70.35564288 156.73369523 67.10660301 145.75 63.375 C144.15928966 62.83813141 142.56855021 62.30134908 140.9777832 61.76464844 C137.03358158 60.43072228 133.09308287 59.08622896 129.15411377 57.73693848 C127.18562885 57.06350502 125.21569067 56.3943234 123.24560547 55.72558594 C80.88763012 41.29535083 40.1622133 22.62716881 0 3 C0 2.01 0 1.02 0 0 Z " fill="#B7BA22" transform="translate(559,1935)"/>
<path d="M0 0 C4.66875175 3.04333447 9.25481536 6.16255539 13.73046875 9.484375 C21.49114047 15.14600325 29.49960938 20.43528781 37.5 25.75 C38.30124298 26.28290649 39.10248596 26.81581299 39.92800903 27.36486816 C56.54283806 38.41084595 73.21278869 49.11052976 90.59375 58.91796875 C95.26939139 61.56505654 99.8855996 64.3029924 104.49511719 67.06323242 C113.10225795 72.21632909 121.73887955 77.07500178 130.78515625 81.4140625 C133.63875708 82.82179268 136.37351082 84.20266714 139 86 C139 86.66 139 87.32 139 88 C122.77457362 81.88701371 107.781379 72.51709156 92.92675781 63.71533203 C89.31523519 61.59866887 85.66710213 59.55233115 82.01416016 57.50830078 C70.67759871 51.14719439 59.79978683 44.18501814 48.98095703 36.98388672 C45.92816199 34.95219036 42.86882595 32.93062956 39.80859375 30.91015625 C30.57983052 24.80384688 21.38315919 18.65196071 12.3125 12.3125 C11.63590332 11.84368408 10.95930664 11.37486816 10.26220703 10.8918457 C6.46604709 8.21091146 3.09811672 5.47723617 0 2 C0 1.34 0 0.68 0 0 Z " fill="#D3BC17" transform="translate(420,1849)"/>
<path d="M0 0 C-1 3 -1 3 -3.32788086 4.25170898 C-4.36307861 4.66235596 -5.39827637 5.07300293 -6.46484375 5.49609375 C-8.2284021 6.20149292 -8.2284021 6.20149292 -10.02758789 6.92114258 C-11.33060222 7.42734141 -12.6339152 7.93277207 -13.9375 8.4375 C-15.2831981 8.96684694 -16.62881848 9.4963915 -17.97436523 10.02612305 C-33.49958737 16.09684578 -49.23176285 21.59857589 -65 27 C-66.15741699 27.39687012 -67.31483398 27.79374023 -68.50732422 28.20263672 C-71.50257674 29.22543891 -74.50007042 30.24100751 -77.5 31.25 C-78.78112671 31.68179565 -78.78112671 31.68179565 -80.08813477 32.12231445 C-85.75341099 34 -85.75341099 34 -88 34 C-88 33.34 -88 32.68 -88 32 C-86.7531543 31.57291748 -85.50630859 31.14583496 -84.22167969 30.70581055 C-47.12614715 18.00689089 -47.12614715 18.00689089 -10.67285156 3.59130859 C-9.58713867 3.13191895 -8.50142578 2.6725293 -7.3828125 2.19921875 C-6.39941895 1.77858154 -5.41602539 1.35794434 -4.40283203 0.92456055 C-2 0 -2 0 0 0 Z " fill="#DABD14" transform="translate(1418,1968)"/>
<path d="M0 0 C0.86105347 0.31469238 0.86105347 0.31469238 1.73950195 0.63574219 C29.59541364 10.79287579 57.57229556 20.55620244 86 29 C86 29.66 86 30.32 86 31 C74.70163293 28.35557963 63.73458032 25.10450913 52.75 21.375 C51.18349086 20.84755978 49.61692089 20.32030021 48.05029297 19.79321289 C38.04844629 16.41802734 28.07353447 12.96663966 18.125 9.4375 C16.97999023 9.03257324 15.83498047 8.62764648 14.65527344 8.21044922 C9.60333442 6.3976223 4.71627033 4.57176413 0 2 C0 1.34 0 0.68 0 0 Z " fill="#A5B82A" transform="translate(652,1977)"/>
<path d="M0 0 C4.71700057 1.37430062 8.66999964 3.41740906 12.8125 6 C14.14287458 6.81177932 15.473618 7.6229544 16.8046875 8.43359375 C17.83674316 9.06563721 17.83674316 9.06563721 18.88964844 9.71044922 C29.25236173 16.04268564 39.67776849 22.01019096 50.609375 27.30859375 C53.51590684 28.75851113 56.3202485 30.16406338 59 32 C59 32.66 59 33.32 59 34 C42.73982789 27.87392313 27.60311834 18.5268003 12.75292969 9.63867188 C10.86649199 8.51577636 8.97074013 7.40842407 7.06738281 6.31445312 C6.15053711 5.78271484 5.23369141 5.25097656 4.2890625 4.703125 C3.4635791 4.23036133 2.6380957 3.75759766 1.78759766 3.27050781 C1.19769043 2.85124023 0.6077832 2.43197266 0 2 C0 1.34 0 0.68 0 0 Z " fill="#C5BB1C" transform="translate(500,1903)"/>
<path d="M0 0 C0.99 0.33 1.98 0.66 3 1 C-4.59 8.59 -12.18 16.18 -20 24 C-20.33 23.34 -20.66 22.68 -21 22 C-17.88777538 18.18752484 -14.82199278 14.74304555 -11.0625 11.5625 C-6.93395173 8.06238201 -3.45434108 4.15600412 0 0 Z " fill="#FF5400" transform="translate(310,290)"/>
<path d="M0 0 C0 0.99 0 1.98 0 3 C-1.65840764 4.01363794 -3.32707206 5.0105103 -5 6 C-6.88543594 7.92660266 -8.67406896 9.84468477 -10.4375 11.875 C-13.21203221 15.0492865 -15.94048599 18.03570868 -19.22265625 20.6953125 C-22.12878568 22.88325767 -22.12878568 22.88325767 -24 26 C-24.66 26 -25.32 26 -26 26 C-24.41636918 22.16394511 -21.97385878 19.71554351 -19.0625 16.796875 C-18.58176025 16.3142218 -18.10102051 15.8315686 -17.60571289 15.33428955 C-16.59278907 14.32000936 -15.57735362 13.30823196 -14.55957031 12.29882812 C-12.99826835 10.74828028 -11.44797503 9.18729497 -9.8984375 7.625 C-8.91209939 6.63998266 -7.9251415 5.65558547 -6.9375 4.671875 C-5.58978516 3.32754395 -5.58978516 3.32754395 -4.21484375 1.95605469 C-2 0 -2 0 0 0 Z " fill="#FFAE04" transform="translate(313,287)"/>
<path d="M0 0 C11.97727273 8.38111888 11.97727273 8.38111888 13.8125 14.875 C13.874375 15.57625 13.93625 16.2775 14 17 C10.60580737 13.71529745 7.38092265 10.29302848 4.1875 6.8125 C3.39730469 5.95269531 2.60710937 5.09289063 1.79296875 4.20703125 C0 2 0 2 0 0 Z " fill="#EDBE0C" transform="translate(236,1678)"/>
<path d="M0 0 C0 3.66910381 -1.16751942 4.55727978 -3.66601562 7.07617188 C-4.16810547 7.56666016 -4.67019531 8.05714844 -5.1875 8.5625 C-5.67025391 9.05685547 -6.15300781 9.55121094 -6.65039062 10.06054688 C-9.55793791 12.94467767 -12.07789565 14.78823467 -16 16 C-12.63699159 11.69114547 -9.03918174 8.14405459 -4.8671875 4.61328125 C-3.16296232 3.14080217 -1.56975784 1.61363306 0 0 Z " fill="#277AC3" transform="translate(1448,1465)"/>
<path d="M0 0 C0.33 0.66 0.66 1.32 1 2 C-3.46351289 7.22325977 -8.0744893 12.20922972 -13 17 C-13.66 16.67 -14.32 16.34 -15 16 C-14.33613281 15.34773438 -13.67226562 14.69546875 -12.98828125 14.0234375 C-8.42649537 9.50826841 -3.97889622 5.03993521 0 0 Z " fill="#2C7BBE" transform="translate(1479,1433)"/>
<path d="M0 0 C4.95 2.31 9.9 4.62 15 7 C15 7.33 15 7.66 15 8 C9.22621075 7.5188509 5.04140164 5.81532819 0 3 C0 2.01 0 1.02 0 0 Z " fill="#AEB926" transform="translate(559,1935)"/>
<path d="M0 0 C2.94721162 2.74395564 5.19168608 5.38337216 7 9 C6.67 9.66 6.34 10.32 6 11 C1.9957657 7.50912907 0.37328935 5.35048061 0 0 Z " fill="#DEBD13" transform="translate(163,1576)"/>
<path d="M0 0 C3.39417765 3.12621626 5.6062718 5.56541027 7 10 C4.0625 8.375 4.0625 8.375 1 6 C0.125 2.75 0.125 2.75 0 0 Z " fill="#E0BD12" transform="translate(178,1599)"/>
<path d="M0 0 C0 3 0 3 -1.75 4.82421875 C-2.4925 5.43910156 -3.235 6.05398438 -4 6.6875 C-4.7425 7.31011719 -5.485 7.93273438 -6.25 8.57421875 C-6.8275 9.04472656 -7.405 9.51523438 -8 10 C-8 7 -8 7 -6.25 5.17578125 C-5.5075 4.56089844 -4.765 3.94601562 -4 3.3125 C-3.2575 2.68988281 -2.515 2.06726562 -1.75 1.42578125 C-1.1725 0.95527344 -0.595 0.48476562 0 0 Z " fill="#2579C4" transform="translate(1423,1488)"/>
<path d="M0 0 C0.66 0.33 1.32 0.66 2 1 C0.02 3.31 -1.96 5.62 -4 8 C-4.99 7.67 -5.98 7.34 -7 7 C-4.69 4.69 -2.38 2.38 0 0 Z " fill="#FFA504" transform="translate(329,270)"/>
<path d="M0 0 C2.64 1.65 5.28 3.3 8 5 C4 6 4 6 1.75 4.75 C1.1725 4.1725 0.595 3.595 0 3 C0 2.01 0 1.02 0 0 Z " fill="#C8BB1B" transform="translate(451,1871)"/>
<path d="M0 0 C0.66 0.33 1.32 0.66 2 1 C0.3125 3.5 0.3125 3.5 -2 6 C-4.75 6.3125 -4.75 6.3125 -7 6 C-4.74259377 3.66475218 -2.7194239 1.81294927 0 0 Z " fill="#E1BE12" transform="translate(1598,1869)"/>
<path d="M0 0 C5.78461538 3.32307692 5.78461538 3.32307692 6.875 6.75 C6.936875 7.86375 6.936875 7.86375 7 9 C4.03595495 6.19195732 1.55500981 3.81684226 0 0 Z " fill="#F5BF09" transform="translate(219,1657)"/>
<path d="M0 0 C0 0.99 0 1.98 0 3 C-2.375 4.75 -2.375 4.75 -5 6 C-5.66 5.67 -6.32 5.34 -7 5 C-4.53846154 1.18461538 -4.53846154 1.18461538 -1.8125 0.25 C-1.214375 0.1675 -0.61625 0.085 0 0 Z " fill="#F6C008" transform="translate(1575,1886)"/>
<path d="M0 0 C0.99 0.33 1.98 0.66 3 1 C0.6875 3.0625 0.6875 3.0625 -2 5 C-2.99 4.67 -3.98 4.34 -5 4 C-2.6875 1.9375 -2.6875 1.9375 0 0 Z " fill="#5D8C93" transform="translate(1718,1775)"/>
<path d="M0 0 C4 1 4 1 5.8125 3.4375 C6.204375 4.283125 6.59625 5.12875 7 6 C6.67 6.66 6.34 7.32 6 8 C4.02 5.36 2.04 2.72 0 0 Z " fill="#EEBE0B" transform="translate(266,1713)"/>
<path d="M0 0 C0.66 0.33 1.32 0.66 2 1 C0.02 3.31 -1.96 5.62 -4 8 C-4.66 7.67 -5.32 7.34 -6 7 C-4.60667426 3.63279613 -3.0210714 2.0140476 0 0 Z " fill="#71B240" transform="translate(119,1483)"/>
<path d="M0 0 C2 0 2 0 4.125 1.6875 C6 4 6 4 6.25 6.75 C6.1675 7.4925 6.085 8.235 6 9 C3.59927045 6.11912454 1.52708963 3.43595166 0 0 Z " fill="#F8C007" transform="translate(148,1556)"/>
<path d="M0 0 C0.33 0.66 0.66 1.32 1 2 C-0.65 4.31 -2.3 6.62 -4 9 C-4.66 8.67 -5.32 8.34 -6 8 C-4.02 5.36 -2.04 2.72 0 0 Z " fill="#347EB7" transform="translate(1509,1397)"/>
</svg>
