<?xml version="1.0" encoding="UTF-8"?>
<svg version="1.1" xmlns="http://www.w3.org/2000/svg" width="3840" height="2160">
<path d="M0 0 C0.99547852 0.30663574 1.99095703 0.61327148 3.01660156 0.92919922 C50.41245962 15.69924933 95.1989597 38.98005661 134 70 C134.90621094 70.72445312 135.81242188 71.44890625 136.74609375 72.1953125 C139.5177878 74.44002263 142.26021702 76.7164407 145 79 C145.50236679 79.41695129 146.00473358 79.83390259 146.52232361 80.26348877 C155.41820036 87.67108757 163.79542373 95.47877842 171.9519043 103.69116211 C173.82183141 105.57188528 175.70232638 107.44156819 177.58398438 109.31054688 C184.51665765 116.2356516 190.93321361 123.2957655 197 131 C197.86281797 132.02802894 198.73122454 133.05144314 199.609375 134.06640625 C206.96531099 142.64385716 213.51813405 151.75292485 220 161 C220.43812012 161.62213379 220.87624023 162.24426758 221.32763672 162.88525391 C235.90185059 183.71464407 248.56010865 206.39338932 258.75 229.6875 C259.04481262 230.36031006 259.33962524 231.03312012 259.64337158 231.72631836 C297.37031722 318.42445728 305.04599061 417.72925254 265.22802734 553.96972656 C254.8705109 579.52787647 242.4680689 604.0098469 227.56884766 627.23046875 C227.11944824 627.93171875 226.67004883 628.63296875 226.20703125 629.35546875 C225.80589111 629.97188232 225.40475098 630.5882959 224.99145508 631.22338867 C223.34544819 634.17290656 223 636.65417442 223 640 C223.94023587 643.19680195 224.76405504 645.21278681 227.6394043 647.04418945 C232.60832783 649.46877334 237.59399947 651.37107323 242.875 653 C243.68855957 653.2563623 244.50211914 653.51272461 245.34033203 653.77685547 C251.85281849 655.77538965 258.42093378 657.32061904 265.12451172 658.53125 C269.73493703 659.43271199 272.76176009 660.54667405 276 664 C277.68333849 668.15888866 278.25193719 671.67265467 278.26069641 676.14122009 C278.26778122 677.35099014 278.27486603 678.56076019 278.28216553 679.80718994 C278.27968811 681.12112732 278.27721069 682.4350647 278.2746582 683.78881836 C278.27900898 685.19704966 278.28419336 686.60527859 278.29014587 688.01350403 C278.30350732 691.82757349 278.30411777 695.64154368 278.30158257 699.45563197 C278.30051099 702.64395744 278.30540099 705.83226298 278.310188 709.02058417 C278.32127316 716.5442556 278.32172607 724.06787709 278.31567383 731.59155273 C278.30963317 739.34418159 278.32194961 747.09662899 278.3432439 754.84922689 C278.36087575 761.514382 278.36685879 768.17947944 278.36360615 774.844657 C278.36179578 778.82151098 278.36440488 782.79823549 278.37832069 786.77506828 C278.3909204 790.5155406 278.38893489 794.25573054 278.37590981 797.99619865 C278.37242689 800.01656713 278.38370599 802.03694431 278.39547729 804.05728149 C278.35854602 810.44172594 278.2521366 815.42191235 275 821 C269.28667903 826.35623841 261.98190639 825.26567679 254.66894531 825.08886719 C206.95009472 823.49998486 160.79771296 812.1866695 118 791 C117.21737793 790.61489258 116.43475586 790.22978516 115.62841797 789.83300781 C108.87712371 786.47735245 102.34571431 782.93117943 96.05078125 778.7734375 C94.78874878 777.94477173 94.78874878 777.94477173 93.5012207 777.09936523 C91.88071944 776.02266908 90.27270488 774.92683947 88.68041992 773.80883789 C84.31092723 770.88617188 80.78468531 769.08701983 75.44775391 769.45092773 C70.1456488 770.64027886 65.47115099 773.31174887 60.6875 775.8125 C58.2808694 777.01845886 55.87250408 778.21835406 53.45703125 779.40625 C52.84158447 779.70956741 52.2261377 780.01288483 51.59204102 780.32539368 C7.47537295 801.85227529 -43.93629747 814.47178395 -93 817 C-94.16273438 817.06026367 -95.32546875 817.12052734 -96.5234375 817.18261719 C-182.639771 821.34314557 -268.97236458 800.56527503 -342 754 C-342.58620117 753.62681641 -343.17240234 753.25363281 -343.77636719 752.86914062 C-347.23455772 750.64973598 -350.62824613 748.34818573 -354 746 C-354.53753906 745.62697754 -355.07507813 745.25395508 -355.62890625 744.86962891 C-378.26223485 729.11265612 -398.85495179 711.19530648 -418.375 691.75 C-419.2194165 690.91025635 -420.06383301 690.0705127 -420.93383789 689.20532227 C-425.82858013 684.29797346 -430.52019199 679.28834564 -435 674 C-435.81331787 673.04673828 -435.81331787 673.04673828 -436.64306641 672.07421875 C-489.02896823 610.2865161 -521.85706861 535.11401472 -533 455 C-533.16516113 453.81905762 -533.33032227 452.63811523 -533.50048828 451.42138672 C-538.15503366 416.42324874 -537.73486619 379.96624117 -533 345 C-532.75056641 343.14979248 -532.75056641 343.14979248 -532.49609375 341.26220703 C-521.21461345 260.86076826 -486.26335854 182.66547457 -431.3359375 122.58203125 C-430.05966144 121.17129802 -428.78981704 119.75420123 -427.5534668 118.30834961 C-422.78939322 112.74873025 -417.69794566 107.54476362 -412.51196289 102.3815918 C-411.06475615 100.93974779 -409.62297974 99.49262884 -408.18164062 98.04492188 C-402.95894465 92.81774886 -397.64936388 87.76442651 -392 83 C-391.36618408 82.45947998 -390.73236816 81.91895996 -390.0793457 81.36206055 C-317.32569023 19.6496597 -225.91316389 -14.87555554 0 0 Z M-222 168 C-222.7321875 168.31308105 -223.464375 168.62616211 -224.21875 168.94873047 C-247.63385643 179.11213489 -269.44805127 193.47282558 -288 211 C-289.32861796 212.15129758 -290.66184718 213.29729878 -292 214.4375 C-299.62949692 221.11522869 -306.48869537 228.31858319 -312.80078125 236.25 C-314.2041579 238.00484398 -315.63665255 239.7370523 -317.10546875 241.4375 C-346.00546262 275.12783894 -363.23174016 319.49606127 -370 363 C-370.11714355 363.70672852 -370.23428711 364.41345703 -370.35498047 365.14160156 C-374.36532471 390.20476337 -373.65733198 418.12667388 -369 443 C-368.76651855 444.33466309 -368.76651855 444.33466309 -368.52832031 445.69628906 C-361.33119936 486.13520218 -344.04622273 525.18844382 -318 557 C-317.56864746 557.52754883 -317.13729492 558.05509766 -316.69287109 558.59863281 C-307.54829029 569.72971438 -298.11118628 580.78781646 -287 590 C-286.10539062 590.7940625 -285.21078125 591.588125 -284.2890625 592.40625 C-250.83337901 621.94062624 -208.61905956 640.72984618 -165 649 C-164.2167334 649.16226074 -163.4334668 649.32452148 -162.62646484 649.49169922 C-135.52994137 654.98584679 -103.03611495 654.61023136 -76 649 C-75.00629395 648.79600586 -74.01258789 648.59201172 -72.98876953 648.38183594 C-32.59388842 639.8390367 4.85925128 623.04442423 37 597 C37.54978516 596.55462891 38.09957031 596.10925781 38.66601562 595.65039062 C52.33974595 584.46852811 65.3287371 572.11108391 76 558 C76.42055664 557.45053711 76.84111328 556.90107422 77.27441406 556.33496094 C120.03887629 500.28922791 137.58865212 432.20391349 128.50488281 362.47705078 C125.16047745 339.44464209 118.15345173 317.33731806 109 296 C108.69900391 295.28811523 108.39800781 294.57623047 108.08789062 293.84277344 C100.28909574 275.60254566 89.70616125 258.23097197 77 243 C76.12108222 241.92969697 75.24217632 240.85938418 74.36328125 239.7890625 C65.61185868 229.22332062 56.58701808 218.76497693 46 210 C45.0821875 209.19433594 44.164375 208.38867188 43.21875 207.55859375 C-29.46991557 143.96321455 -133.96317932 130.28779861 -222 168 Z " fill="#4255FF" transform="translate(563,695)"/>
<path d="M0 0 C0.75811981 -0.00067474 1.51623962 -0.00134949 2.29733276 -0.00204468 C34.87888312 0.04347632 66.48719361 5.31936147 97.5 15.25 C98.78632324 15.65557129 98.78632324 15.65557129 100.09863281 16.06933594 C134.8301921 27.14061332 167.16070575 45.42982245 195.5 68.25 C196.39203125 68.94996094 197.2840625 69.64992188 198.203125 70.37109375 C212.33282746 81.6294093 225.90144165 94.38884409 237.5 108.25 C237.95890625 108.7951123 238.4178125 109.34022461 238.890625 109.90185547 C274.49103881 152.34590944 298.16621986 202.87399068 308.5 257.25 C308.66580566 258.10561523 308.83161133 258.96123047 309.00244141 259.84277344 C314.24617428 287.52022062 323.46045308 344.78377903 307.38525391 369.99853516 C305.2357462 372.71340608 303.82237361 374.14254213 300.5 375.25 C297.97317947 375.34934273 295.47385594 375.39220473 292.94686604 375.3886652 C291.77669589 375.39292853 291.77669589 375.39292853 290.58288595 375.39727798 C287.94719933 375.40565463 285.31155648 375.40689551 282.67585754 375.40821838 C280.77585914 375.41278171 278.87586175 375.4177814 276.97586554 375.42318195 C271.73792184 375.43679855 266.49998466 375.44419158 261.26202786 375.45060861 C255.6198933 375.45859712 249.97777236 375.47230021 244.33564758 375.48532104 C234.55466449 375.50710582 224.77368003 375.52524298 214.99268532 375.54092598 C200.8508827 375.5636064 186.70909515 375.59175175 172.56730529 375.62124526 C149.62503603 375.66894361 126.68276142 375.71221022 103.74047852 375.75268555 C81.44978353 375.79202186 59.15909401 375.83344108 36.8684082 375.87768555 C36.18153706 375.87904808 35.49466592 375.88041061 34.7869805 375.88181442 C27.88925532 375.89549958 20.99153022 375.90922714 14.09380519 375.92298577 C-43.77078501 376.03840207 -101.63538704 376.14666048 -159.5 376.25 C-158.06528362 379.47021033 -156.62583408 382.68828377 -155.18554688 385.90600586 C-154.78116394 386.81379539 -154.37678101 387.72158493 -153.96014404 388.65688324 C-151.29883163 394.59456054 -148.51060801 400.32333462 -145 405.8125 C-144.54061035 406.54662109 -144.0812207 407.28074219 -143.60791016 408.03710938 C-139.68681049 414.19051155 -135.358551 419.79830453 -130.5 425.25 C-129.77167969 426.08660156 -129.04335937 426.92320312 -128.29296875 427.78515625 C-99.06520845 460.90312633 -57.98282434 482.99325281 -13.5 486.25 C35.98000588 488.30830367 81.02957458 474.07980148 117.97949219 440.65478516 C122.13827023 436.81252297 126.12736837 432.80417864 129.98046875 428.65625 C132.60702381 425.87614249 134.74946426 424.16476482 138.5 423.25 C142.6571582 423.25 145.00531146 424.4527023 148.20703125 426.9140625 C148.91077881 427.45450195 149.61452637 427.99494141 150.33959961 428.55175781 C153.71573081 431.20565866 157.05373203 433.90286272 160.375 436.625 C161.78882803 437.77893317 163.20288965 438.93258021 164.6171875 440.0859375 C165.28975586 440.63475586 165.96232422 441.18357422 166.65527344 441.74902344 C168.9258988 443.59653597 171.21039455 445.42607702 173.5 447.25 C178.56702315 451.28992386 183.59054617 455.38271376 188.6171875 459.47265625 C193.00320198 463.03939633 197.4071901 466.58207265 201.828125 470.10546875 C204.62388397 472.34943319 207.40373068 474.61210604 210.18237305 476.87719727 C217.23689611 482.6272708 224.33939358 488.30772521 231.51171875 493.91015625 C232.49785156 494.68230469 233.48398438 495.45445312 234.5 496.25 C235.87091797 497.26900391 235.87091797 497.26900391 237.26953125 498.30859375 C240.57049846 501.18176486 241.82307503 503.97989208 242.1875 508.3125 C241.99318358 517.4005295 232.4345241 524.5080595 226.33203125 530.41796875 C224.60498944 532.14501056 223.05065296 533.92747444 221.5 535.8125 C218.83504768 538.98472206 215.90546179 541.63513848 212.75 544.3125 C210.20947673 546.50017281 207.76720885 548.7790499 205.3125 551.0625 C184.46826245 569.9962534 159.8699716 585.25372326 134.48486328 597.30712891 C133.1675265 597.93290438 131.85333543 598.56534778 130.54248047 599.20458984 C90.9481136 618.43168456 45.83202937 627.46444895 2 627.5 C1.24188019 627.50067474 0.48376038 627.50134949 -0.29733276 627.50204468 C-86.45189592 627.38167465 -164.87118044 591.06631956 -225.20678711 530.73071289 C-229.17131403 526.69316722 -232.7888434 522.4357603 -236.3046875 518 C-238.55154621 515.18542965 -240.89580788 512.47510985 -243.25 509.75 C-276.12289592 470.33319945 -297.10989377 420.37960105 -306.5 370.25 C-306.66580566 369.36731445 -306.83161133 368.48462891 -307.00244141 367.57519531 C-321.79377516 286.07192771 -301.47903297 201.16733111 -254.77734375 133.33984375 C-247.70439413 123.19021532 -240.18351972 113.76422891 -231.7578125 104.69140625 C-229.82656147 102.60311578 -227.9668194 100.47908466 -226.125 98.3125 C-218.91159234 90.02475503 -210.94155072 82.27518315 -202.5 75.25 C-202.00177734 74.82203125 -201.50355469 74.3940625 -200.99023438 73.953125 C-145.55318422 26.38084667 -72.88072278 0.0591117 0 0 Z M-120.5 190.25 C-121.51900391 191.17425781 -121.51900391 191.17425781 -122.55859375 192.1171875 C-139.69211201 208.14646653 -151.34333362 229.94885421 -160.5 251.25 C-160.5 251.58 -160.5 251.91 -160.5 252.25 C-53.91 252.25 52.68 252.25 162.5 252.25 C158.34468234 241.27828764 158.34468234 241.27828764 153.3125 230.8125 C152.93158203 230.10077637 152.55066406 229.38905273 152.15820312 228.65576172 C148.18737241 221.41303106 143.52796608 214.78923844 138.5 208.25 C137.81679687 207.3425 137.13359375 206.435 136.4296875 205.5 C107.54154005 168.59346942 65.34143294 146.52487938 19.1875 140.6640625 C-33.11075641 135.26059477 -82.99175141 154.15608959 -120.5 190.25 Z " fill="#4255FF" transform="translate(3107.5,885.75)"/>
<path d="M0 0 C0.98239108 -0.00551503 0.98239108 -0.00551503 1.98462844 -0.01114148 C4.18936544 -0.02219525 6.39405533 -0.02602501 8.59881592 -0.02983093 C10.17556407 -0.03609434 11.75231074 -0.04274103 13.32905579 -0.04974365 C17.62052052 -0.06716551 21.91197411 -0.07770879 26.20346546 -0.08594918 C28.88401547 -0.09109718 31.564562 -0.09717303 34.24510956 -0.10346031 C42.63004276 -0.12251632 51.01496714 -0.13674618 59.39991784 -0.14507228 C69.08226773 -0.15484504 78.76438903 -0.18116379 88.44665837 -0.22157317 C95.92783658 -0.25172571 103.40894923 -0.26654036 110.89018703 -0.26985329 C115.35952433 -0.27220491 119.82861754 -0.28117958 124.29788971 -0.30631447 C128.50370936 -0.32958501 132.70912405 -0.33383265 136.91499138 -0.32355309 C138.45731643 -0.32305735 139.99966133 -0.32938895 141.54192543 -0.34310913 C143.65091195 -0.36081866 145.75844363 -0.35372854 147.86743164 -0.34057617 C149.63614309 -0.3441587 149.63614309 -0.3441587 151.44058609 -0.34781361 C155.44176565 0.2621227 157.57747719 1.58924925 160.68768311 4.14717102 C162.80349291 7.41113372 162.93856778 10.06684352 162.9410162 13.91181278 C162.94663159 15.09589759 162.95224699 16.2799824 162.95803255 17.49994856 C162.95206091 19.45325115 162.95206091 19.45325115 162.94596863 21.4460144 C162.94882273 22.84248441 162.95256045 24.23895284 162.95710713 25.63541836 C162.96710483 29.47766401 162.96471015 33.31981855 162.9603802 37.16207111 C162.95790707 41.30488153 162.96696882 45.4476678 162.97476196 49.59046936 C162.98681847 56.77403741 162.99191555 63.95758327 162.99264336 71.14116096 C162.99396921 81.54814018 163.00908454 91.95506561 163.02813853 102.36202585 C163.05900234 119.27339245 163.08315354 136.18476042 163.10101318 153.09614563 C163.1026222 154.61497623 163.1026222 154.61497623 163.10426373 156.16449028 C163.11606595 167.44334328 163.12627211 178.72219683 163.13470459 190.00105286 C163.13777807 194.08157859 163.14086695 198.16210431 163.14398193 202.24263 C163.14512994 203.75278791 163.14512994 203.75278791 163.14630114 205.29345406 C163.15941512 222.12296955 163.18410416 238.9524464 163.21772534 255.78193325 C163.23794712 266.15121565 163.24831416 276.52041518 163.24573613 286.88971745 C163.24469542 294.01070642 163.25442788 301.13163023 163.27237516 308.25259645 C163.28235031 312.35213803 163.28762462 316.45153533 163.27960777 320.55108452 C163.21895931 354.96635183 166.28325389 388.68237951 191.24627686 414.82685852 C212.8511201 435.4596406 241.50113303 442.37165909 270.56268311 442.39717102 C271.25298615 442.39784576 271.94328918 442.39852051 272.6545105 442.3992157 C283.56926981 442.38228967 294.07045341 441.8419263 304.68768311 439.14717102 C305.35718994 438.98088196 306.02669678 438.8145929 306.7164917 438.64326477 C320.97107899 434.96817423 334.54335185 428.87313284 345.68768311 419.14717102 C346.33608154 418.65217102 346.98447998 418.15717102 347.65252686 417.64717102 C366.13556095 403.00714401 374.04837239 377.88815687 377.07652473 355.3594017 C378.46683858 343.01477089 378.09865846 330.49239461 378.06178677 318.08465338 C378.05282335 313.92669525 378.06146869 309.76876683 378.06799316 305.61080933 C378.07709152 298.42856887 378.0758663 291.24639251 378.06780815 284.06415176 C378.05651714 273.67367014 378.06566861 263.28327872 378.08036996 252.89280491 C378.10406582 236.02088943 378.11749642 219.14898515 378.121521 202.27705383 C378.12176586 201.27013809 378.12201073 200.26322234 378.12226302 199.225794 C378.12481303 187.97320673 378.1253732 176.72062032 378.12432861 165.46803284 C378.1239955 161.37605286 378.12371014 157.28407288 378.12347412 153.1920929 C378.12337994 151.67721499 378.12337994 151.67721499 378.12328386 150.13173349 C378.12267937 133.30064217 378.13753891 116.4696027 378.16430718 99.638533 C378.18011092 89.26965169 378.18237187 78.90093773 378.16717315 68.53205465 C378.15772222 61.43933758 378.16244148 54.34672169 378.17838698 47.25401653 C378.18709531 43.1620017 378.18918747 39.07025562 378.17386055 34.97825432 C378.15994471 31.2333112 378.16436076 27.48885513 378.18338156 23.74393861 C378.18870898 21.74709957 378.17428423 19.75023804 378.15917104 17.75344908 C378.24845153 6.70721703 378.24845153 6.70721703 382.68768311 2.14717102 C386.00361709 -0.30061067 389.21069263 -0.10876069 393.24723816 -0.12025452 C393.90457996 -0.12478563 394.56192176 -0.12931674 395.23918301 -0.13398516 C397.44010557 -0.14663761 399.64078095 -0.14500829 401.84173584 -0.14335632 C403.42040322 -0.14934099 404.99906767 -0.1561464 406.57772827 -0.16371155 C410.86489612 -0.18138348 415.15198415 -0.18606738 419.4391849 -0.18734312 C423.01779558 -0.18924225 426.59638767 -0.19659982 430.17499119 -0.20368731 C438.61713832 -0.21997284 447.05924278 -0.22485605 455.50140381 -0.22343445 C464.2117741 -0.22223245 472.92189684 -0.24334547 481.63220447 -0.27492177 C489.11002025 -0.30106469 496.58775506 -0.3118026 504.06561619 -0.31052363 C508.53208274 -0.31001348 512.99832923 -0.31572609 517.46475029 -0.33687973 C521.66486735 -0.3562292 525.86455366 -0.35640939 530.06468582 -0.34184647 C531.60581274 -0.33975326 533.14696639 -0.34448971 534.68804741 -0.35656738 C536.79292054 -0.37199478 538.8963036 -0.36273084 541.00114441 -0.3473053 C542.17860953 -0.34839483 543.35607466 -0.34948437 544.56922054 -0.35060692 C548.38041676 0.25774715 549.985816 1.43060903 552.68768311 4.14717102 C554.83565348 7.51629257 554.93817741 10.24910974 554.93936539 14.2029562 C554.94718863 16.07651009 554.94718863 16.07651009 554.95516992 17.98791355 C554.95084556 19.37656615 554.94633224 20.76521818 554.94165039 22.15386963 C554.94395416 23.627285 554.94713011 25.10069923 554.95110488 26.57411104 C554.95947476 30.62912844 554.9553175 34.68405203 554.94913244 38.73906982 C554.94461722 43.11095503 554.95158755 47.48282383 554.95709229 51.85470581 C554.96600168 60.42647346 554.96405631 68.99820615 554.958267 77.56997519 C554.95375159 84.54481754 554.95313711 91.51965009 554.95531464 98.49449348 C554.9556211 99.48701839 554.95592757 100.4795433 554.95624332 101.50214471 C554.95688279 103.51861822 554.95753122 105.53509173 554.9581885 107.55156524 C554.96389761 126.48201764 554.95732742 145.4124507 554.94658777 164.34289993 C554.93767516 180.55330146 554.93918422 196.76367431 554.94842529 212.97407532 C554.95915819 231.81009838 554.96332357 250.64610441 554.95720077 269.48213011 C554.95656371 271.49641359 554.95593497 273.51069706 554.95531464 275.52498055 C554.95500609 276.51592534 554.95469753 277.50687013 554.95437963 278.52784355 C554.95265997 285.47808943 554.9555525 292.42832445 554.96027374 299.37856865 C554.96591722 307.87333269 554.96429494 316.36805984 554.95371225 324.86281972 C554.94849815 329.18941401 554.94632459 333.51594707 554.95301056 337.84254074 C554.982892 358.91914148 554.7017655 379.76785076 550.93768311 400.58467102 C550.76849365 401.52947327 550.5993042 402.47427551 550.42498779 403.44770813 C543.56121246 440.17134444 529.03466618 474.85517202 505.68768311 504.14717102 C504.89233154 505.14748352 504.09697998 506.14779602 503.27752686 507.17842102 C492.16128395 520.85912949 479.59180393 533.49766155 465.35858154 543.92060852 C463.70597056 545.13374668 462.07543941 546.37256014 460.44549561 547.61592102 C417.22995698 580.06928883 361.85305438 596.02472298 308.68768311 601.14717102 C307.78590332 601.24143372 306.88412354 601.33569641 305.95501709 601.43281555 C294.5817378 602.48202145 283.16225817 602.39094875 271.75018311 602.39717102 C270.63786316 602.39784576 269.52554321 602.39852051 268.3795166 602.3992157 C250.62769643 602.38214388 233.27089809 601.77708425 215.68768311 599.14717102 C214.52801025 598.97556458 213.3683374 598.80395813 212.17352295 598.62715149 C156.56910088 590.11184448 103.12246137 569.73956262 61.19940186 531.43623352 C59.50777991 529.89456873 57.8016266 528.36871658 56.08221436 526.85810852 C50.84206945 522.24424417 46.11205145 517.54295757 41.68768311 512.14717102 C41.26793213 511.65039856 40.84818115 511.1536261 40.41571045 510.64179993 C-0.89931962 461.71043388 -13.81801724 401.95385555 -13.73380899 339.39075053 C-13.7310982 334.92952472 -13.74574362 330.4683466 -13.75790405 326.00714111 C-13.77877884 317.30892745 -13.78350985 308.61078067 -13.78171617 299.91254488 C-13.78040159 292.84510727 -13.78424777 285.77769031 -13.79164124 278.71025658 C-13.79374062 276.66447741 -13.79583822 274.61869824 -13.79793406 272.57291907 C-13.79897758 271.55440565 -13.80002111 270.53589223 -13.80109626 269.48651477 C-13.81991945 250.30748246 -13.81897033 231.12848858 -13.81212693 211.94945087 C-13.80653365 194.40488111 -13.82746676 176.86045655 -13.8604874 159.31592075 C-13.89419767 141.26426969 -13.90939765 123.21268833 -13.90477037 105.1610052 C-13.90252605 95.04032538 -13.90776639 84.91978043 -13.93266296 74.79912758 C-13.9536393 66.20008674 -13.95730256 57.60125509 -13.93836337 49.00220577 C-13.92919034 44.6164464 -13.92811146 40.23107757 -13.94871902 35.84534836 C-13.96736849 31.83221805 -13.96299445 27.81979989 -13.94017321 23.80669721 C-13.93597277 22.35445265 -13.94023591 20.9021541 -13.95376915 19.44996653 C-14.05978323 7.24455991 -14.05978323 7.24455991 -10.89847565 3.30666637 C-6.99389934 0.04626545 -5.04081481 0.01829248 0 0 Z " fill="#4255FF" transform="translate(963.3123168945313,910.8528289794922)"/>
<path d="M0 0 C0.91169737 -0.00350607 1.82339474 -0.00701215 2.7627193 -0.01062447 C5.84612791 -0.01999712 8.92935007 -0.0150001 12.01276684 -0.01015663 C14.23434882 -0.01388994 16.45592949 -0.01849018 18.67750806 -0.02388728 C24.80460955 -0.03617221 30.93165667 -0.03585037 37.05876768 -0.03349853 C42.9810289 -0.03313347 48.90327114 -0.04210209 54.82552501 -0.0507243 C68.44030074 -0.07009155 82.05506144 -0.07569355 95.66984931 -0.07683842 C106.18222079 -0.07775664 116.69458635 -0.0818688 127.20695591 -0.08823967 C130.23025725 -0.09003469 133.25355859 -0.09181432 136.27685994 -0.09358943 C137.02841134 -0.09403152 137.77996275 -0.09447362 138.55428844 -0.09492911 C159.70152325 -0.10724196 180.84875601 -0.11512979 201.99599457 -0.11424255 C203.19256305 -0.11419582 203.19256305 -0.11419582 204.41330463 -0.11414814 C208.45666444 -0.11398192 212.50002425 -0.11378383 216.54338405 -0.11357872 C217.34644433 -0.11353883 218.14950461 -0.11349894 218.97690004 -0.11345784 C220.60088468 -0.11337697 222.22486931 -0.11329337 223.84885394 -0.11320706 C249.11804807 -0.11198142 274.38718853 -0.12699525 299.6563673 -0.15435219 C328.03044101 -0.18505771 356.40447945 -0.2022856 384.77857083 -0.20042574 C387.80281524 -0.20027648 390.82705964 -0.20017907 393.85130405 -0.20011711 C394.96831516 -0.20008215 394.96831516 -0.20008215 396.10789214 -0.20004648 C408.1041993 -0.19998487 420.10045997 -0.21276977 432.09675329 -0.22998164 C444.14882397 -0.24691615 456.20082645 -0.24892914 468.25290243 -0.235763 C474.7852003 -0.22901204 481.31736309 -0.22919383 487.84964848 -0.2464695 C493.82496225 -0.26211006 499.79997192 -0.25942923 505.77527788 -0.24190123 C507.94149998 -0.23881137 510.10774429 -0.24253771 512.27394024 -0.25362138 C515.21039387 -0.26765574 518.14576795 -0.2572243 521.08218384 -0.24050903 C522.35436769 -0.25541357 522.35436769 -0.25541357 523.65225223 -0.27061921 C528.97106349 -0.20626724 532.01052062 0.72258375 536.22985363 4.25726891 C538.50367692 7.81629666 538.42081245 10.90216459 537.8438673 15.0360775 C536.66160573 19.31290286 533.87745698 22.50668177 531.16735363 25.94476891 C530.54828136 26.75711998 529.9292091 27.56947105 529.29137707 28.40643883 C527.28478928 31.03438761 525.25731965 33.64540719 523.22985363 36.25726891 C521.15990916 38.96017161 519.0959861 41.66758891 517.03283215 44.37567711 C515.66156324 46.17517198 514.28834462 47.97318274 512.91320324 49.76972008 C508.8633681 55.06906134 504.92303145 60.42362744 501.08947277 65.88055992 C497.33244005 71.19185282 493.3760647 76.34534734 489.41735363 81.50726891 C484.42138293 88.02253667 479.50356849 94.57735723 474.72985363 101.25726891 C469.29277498 108.86543283 463.65075024 116.30213637 457.96032238 123.72211266 C454.29684485 128.51009391 450.69522687 133.32412088 447.22985363 138.25726891 C443.10876128 144.1238689 438.78006109 149.81856031 434.41735363 155.50726891 C429.421381 162.02253918 424.50363912 168.57740628 419.72985363 175.25726891 C414.36009815 182.76973518 408.79139652 190.11442267 403.17125988 197.44086266 C398.93124665 202.98299127 394.78756171 208.58052518 390.72985363 214.25726891 C385.36001932 221.7696805 379.79139868 229.11441985 374.17125988 236.44086266 C369.93124665 241.98299127 365.78756171 247.58052518 361.72985363 253.25726891 C356.36001932 260.7696805 350.79139868 268.11441985 345.17125988 275.44086266 C340.93124665 280.98299127 336.78756171 286.58052518 332.72985363 292.25726891 C327.36001932 299.7696805 321.79139868 307.11441985 316.17125988 314.44086266 C311.38724325 320.69405906 306.74755227 327.03466351 302.17003918 333.43988609 C297.24017073 340.30873992 292.10515253 347.01356302 286.96032238 353.72211266 C283.29684485 358.51009391 279.69522687 363.32412088 276.22985363 368.25726891 C272.10875946 374.12387148 267.78000921 379.81851753 263.41735363 385.50726891 C257.85585417 392.76131369 252.39268417 400.06961253 247.0938673 407.51801109 C243.47654727 412.588143 239.75513966 417.57582286 236.01403332 422.55487633 C235.4572691 423.29651779 234.90050488 424.03815926 234.32686901 424.8022747 C232.9615418 426.6208653 231.59586066 428.43918893 230.22985363 430.25726891 C230.81966709 430.25710655 231.40948055 430.2569442 232.01716715 430.25677693 C266.9726584 430.2479151 301.92799428 430.27023473 336.883432 430.3330592 C341.08036709 430.34057526 345.27730258 430.34783074 349.4742384 430.35492516 C350.30977436 430.35634191 351.14531032 430.35775866 352.00616556 430.35921834 C365.53589747 430.38153819 379.06555311 430.38274724 392.5952983 430.37615754 C406.47760405 430.36986592 420.35974937 430.3862539 434.24200672 430.42370498 C442.80850954 430.4461003 451.37464691 430.45079548 459.9411618 430.43286555 C465.81519041 430.42226552 471.68891869 430.43369095 477.56288553 430.46243043 C480.95243035 430.47836412 484.34066839 430.48132717 487.73029995 430.46466064 C491.40696145 430.44810945 495.08165037 430.46831734 498.7581892 430.49777794 C499.82726483 430.48419184 500.89634047 430.47060574 501.99781233 430.45660794 C508.09961147 430.55177622 511.55744027 431.39269665 516.00424808 435.67850101 C518.43375482 438.80807826 518.35864733 441.82762421 518.37029552 445.62685204 C518.37886074 447.29865532 518.37886074 447.29865532 518.38759899 449.00423241 C518.38871685 450.22766853 518.38983471 451.45110466 518.39098644 452.71161461 C518.39595135 453.99963982 518.40091625 455.28766502 518.40603161 456.6147213 C518.41914842 460.14995722 518.42559921 463.68517416 518.43004227 467.22043061 C518.43297429 469.42978181 518.43707936 471.63912782 518.44154644 473.84847641 C518.45521979 480.76294916 518.46488711 487.67741007 518.46874833 494.5918954 C518.47322815 502.57002141 518.49077305 510.54797602 518.51974893 518.52604991 C518.54137591 524.69515881 518.55145316 530.86421951 518.55278945 537.03336591 C518.5538368 540.71681985 518.5597295 544.40011263 518.57760906 548.08352661 C518.59717365 552.19403649 518.59279675 556.30418831 518.58629894 560.41473961 C518.59551373 561.63210304 518.60472851 562.84946648 518.61422253 564.10371971 C518.56296174 574.44023104 518.56296174 574.44023104 515.22985363 579.25726891 C511.58448487 582.66745258 508.04528839 583.38129541 503.16320199 583.3849194 C502.35615959 583.38793537 501.5491172 583.39095134 500.71761897 583.3940587 C499.8349032 583.39228923 498.95218743 583.39051976 498.0427227 583.38869667 C497.09809198 583.3907493 496.15346127 583.39280194 495.18020537 583.39491677 C491.99082453 583.40060537 488.80148661 583.39912723 485.61210155 583.3977108 C483.31199907 583.40029336 481.01189704 583.40330622 478.71179563 583.4067142 C472.3722669 583.41480011 466.03274948 583.41657466 459.6932162 583.41731167 C453.5643264 583.41848736 447.43544145 583.42528591 441.30655499 583.43139008 C424.88444595 583.44745547 408.46233782 583.45335376 392.04022233 583.45813883 C384.27355158 583.46047402 376.50688157 583.46407656 368.74021139 583.46783421 C342.16064725 583.48066956 315.58108352 583.49138926 289.00151634 583.49483681 C287.33280355 583.49505844 285.66409076 583.49528022 283.99537798 583.49550216 C282.32260993 583.4957228 280.64984189 583.49594328 278.97707385 583.49616361 C275.62114823 583.49660616 272.26522261 583.49705328 268.90929699 583.49750328 C268.07722163 583.49761267 267.24514626 583.49772206 266.38785649 583.49783477 C239.39949511 583.50146651 212.41116056 583.51739103 185.42280946 583.54069364 C156.89726507 583.56527855 128.37173603 583.579009 99.84618074 583.58020473 C96.71605384 583.58037618 93.58592695 583.58059161 90.45580006 583.58083916 C89.29969005 583.58092281 89.29969005 583.58092281 88.12022428 583.58100815 C75.70668234 583.5821597 63.29316791 583.59319041 50.87963526 583.60772621 C38.40760272 583.62207824 25.93560551 583.62533551 13.46356698 583.61728624 C6.70432141 583.61321737 -0.05482585 583.61436009 -6.81406116 583.62834358 C-12.99781886 583.64101989 -19.18141353 583.63994034 -25.3651708 583.62775287 C-27.60607771 583.62578497 -29.84699592 583.6289243 -32.08788691 583.63759723 C-35.12728837 583.64861888 -38.16610723 583.64125168 -41.20549202 583.6292057 C-42.08118429 583.6368009 -42.95687656 583.64439609 -43.85910496 583.65222144 C-49.24613763 583.60593959 -52.99949945 582.81664789 -57.77014637 580.25726891 C-60.21598105 577.6891425 -61.65359071 575.86514939 -61.91541004 572.25336266 C-61.41050216 565.56314627 -58.86067635 561.89836157 -54.58264637 556.88226891 C-53.29504312 555.30353234 -52.00996128 553.72273657 -50.72717762 552.14008141 C-50.06798328 551.33473961 -49.40878895 550.52939781 -48.72961903 549.69965172 C-45.61223217 545.81398786 -42.69510374 541.7885745 -39.77014637 537.75726891 C-34.64763289 530.74253976 -29.38149528 523.86012655 -24.02014637 517.02680016 C-19.83586752 511.67503278 -15.77842799 506.24181496 -11.77014637 500.75726891 C-6.64494621 493.74443922 -1.38156821 486.86021951 3.97985363 480.02680016 C8.16413248 474.67503278 12.22157201 469.24181496 16.22985363 463.75726891 C20.79667879 457.50846573 25.45234676 451.34652285 30.22985363 445.25726891 C35.71136483 438.27010986 41.01818844 431.17107306 46.26549816 424.00678062 C50.26517279 418.55063556 54.3371929 413.16452823 58.47985363 407.81586266 C67.31119556 396.41205787 76.01595479 384.90842969 84.65124035 373.35565758 C89.49529672 366.88362728 94.40317045 360.46064893 99.30797863 354.03461266 C103.78764586 348.16146116 108.23499525 342.26562181 112.65612316 336.34833336 C116.76880099 330.85212479 120.93548978 325.39804311 125.10485363 319.94476891 C130.2580946 313.20276479 135.34413842 306.41831206 140.35485363 299.56976891 C145.44000341 292.62102322 150.66559532 285.80033121 155.98034191 279.02606773 C160.16456614 273.67462829 164.22174544 268.24157766 168.22985363 262.75726891 C173.35505379 255.74443922 178.61843179 248.86021951 183.97985363 242.02680016 C188.16413248 236.67503278 192.22157201 231.24181496 196.22985363 225.75726891 C201.35505379 218.74443922 206.61843179 211.86021951 211.97985363 205.02680016 C216.76817029 198.90245764 221.37932523 192.6597446 225.96447277 186.38251305 C230.63394004 180.01159921 235.44739151 173.76366413 240.34899426 167.56976891 C243.32832325 163.78569919 246.18074344 159.9449971 248.93322277 155.99188805 C249.55354885 155.10207741 250.17387493 154.21226677 250.81299877 153.29549217 C251.28056087 152.62287849 251.74812298 151.95026482 252.22985363 151.25726891 C251.67948415 151.25878779 251.12911467 151.26030667 250.56206733 151.26187158 C217.95326812 151.35135552 185.34450138 151.42000075 152.73560773 151.46153022 C148.82149874 151.46653314 144.90738999 151.47171042 140.99328136 151.47699547 C139.82442301 151.47856933 139.82442301 151.47856933 138.63195135 151.48017499 C126.00939763 151.49758716 113.38691666 151.52912931 100.76440612 151.56588009 C87.81557442 151.60326694 74.86678087 151.62549997 61.9178974 151.63362288 C53.92568392 151.63911536 45.93367609 151.6564718 37.9415259 151.68893477 C31.81636754 151.71254914 25.69136645 151.71509445 19.56616879 151.70969963 C17.05105414 151.71080269 14.53593191 151.71879388 12.02086353 151.73409081 C8.59351796 151.75391885 5.1670606 151.74923355 1.73969555 151.73828697 C0.2382356 151.75576402 0.2382356 151.75576402 -1.29355687 151.77359414 C-5.54634606 151.73674369 -8.07974339 151.66261716 -11.80201149 149.47720528 C-15.28881449 145.54430369 -16.01971254 142.93501595 -16.03757191 137.69150352 C-16.04610188 136.55876503 -16.05463184 135.42602654 -16.0634203 134.25896263 C-16.06251392 133.0204203 -16.06160755 131.78187798 -16.06067371 130.50580406 C-16.06739094 129.19812569 -16.07410816 127.89044731 -16.08102894 126.54314232 C-16.09868851 122.95836117 -16.10338429 119.37367552 -16.10466051 115.78885508 C-16.10608271 113.54816668 -16.11035359 111.30750252 -16.11565495 109.06682014 C-16.13415513 101.24682386 -16.14232558 93.42689573 -16.14075184 85.60687828 C-16.13955046 78.32228098 -16.16065196 71.03797999 -16.19223917 63.75345767 C-16.21840757 57.49514678 -16.2291189 51.23693264 -16.22784102 44.97856748 C-16.22733154 41.2425516 -16.23300642 37.50679907 -16.25419712 33.77083778 C-16.27719308 29.60286072 -16.26805524 25.43554581 -16.25598621 21.26752281 C-16.26722523 20.03302895 -16.27846424 18.79853508 -16.29004383 17.52663231 C-16.24325825 11.17786227 -16.19784262 7.00254909 -11.77014637 2.25726891 C-7.85141254 -0.35522031 -4.5463685 -0.02185413 0 0 Z " fill="#4255FF" transform="translate(1928.770146369934,910.7427310943604)"/>
<path d="M0 0 C0.96657837 -0.00679667 0.96657837 -0.00679667 1.95268357 -0.01373065 C4.10981503 -0.02638108 6.26669422 -0.0247539 8.42385864 -0.02310181 C9.9713473 -0.02908666 11.51883296 -0.03589211 13.0663147 -0.04345703 C17.26884197 -0.06112852 21.4712878 -0.06581289 25.67384863 -0.0670886 C29.18277602 -0.06898807 32.69168446 -0.07634614 36.20060456 -0.08343279 C44.47978496 -0.09971868 52.75892187 -0.10460156 61.03811646 -0.10317993 C69.57692176 -0.10197838 78.11547435 -0.12308232 86.65421569 -0.15466726 C93.9868256 -0.18082358 101.31935293 -0.1915475 108.65200913 -0.19026911 C113.03075997 -0.18975929 117.40928622 -0.19545342 121.78799057 -0.21662521 C125.90685657 -0.23599688 130.02528351 -0.23613964 134.14416504 -0.22159195 C135.65423346 -0.21950141 137.16432929 -0.22421944 138.67435074 -0.23631287 C140.73946969 -0.25177828 142.80307707 -0.24245135 144.86816406 -0.22705078 C146.59979451 -0.22868508 146.59979451 -0.22868508 148.36640739 -0.2303524 C152.9112388 0.47780372 156.07599608 2.36666393 158.92103386 6.00806808 C159.89787404 9.45638284 159.82830646 12.86409637 159.80157471 16.41714478 C159.80413798 17.65958769 159.80413798 17.65958769 159.80675304 18.92713046 C159.81005083 21.70633989 159.79903947 24.48530861 159.78811646 27.26449585 C159.7875524 29.25520828 159.78786878 31.24592112 159.78900146 33.2366333 C159.78957621 38.64535117 159.77780208 44.05398066 159.76385355 49.46267796 C159.75136659 55.11347063 159.7501773 60.76426524 159.74780273 66.41506958 C159.74158198 77.11766127 159.7251631 87.82021218 159.70510375 98.5227859 C159.68276328 110.70643802 159.67175598 122.89009206 159.66171288 135.07375956 C159.6407974 160.1383375 159.60560985 185.20287924 159.56106567 210.26742554 C160.63768463 210.2607637 161.71430359 210.25410187 162.82354736 210.24723816 C172.97578587 210.18639045 183.12798732 210.14143528 193.2803669 210.11198902 C198.49966159 210.09634142 203.71880891 210.07511952 208.9380188 210.04110718 C213.97601645 210.00848167 219.01387247 209.9905657 224.05196762 209.98279381 C225.9728811 209.97725605 227.89378695 209.96644214 229.81464005 209.95023537 C232.50779142 209.92841874 235.2003595 209.92546039 237.89358521 209.92684937 C238.6855278 209.91606354 239.4774704 209.90527771 240.29341125 209.89416504 C246.39533313 209.92815799 250.44737446 211.16667095 254.90474033 215.59675598 C256.82333515 218.69031052 257.06150845 220.38379353 257.06227112 223.99813843 C257.07210526 225.1421109 257.08193939 226.28608337 257.09207153 227.46472168 C257.08240356 228.71059052 257.0727356 229.95645935 257.06277466 231.24008179 C257.07087914 233.21885818 257.07087914 233.21885818 257.07914734 235.23760986 C257.09309248 238.84927238 257.08193923 242.460458 257.06543612 246.07209396 C257.05156981 249.85473745 257.0580475 253.63735369 257.06156921 257.42001343 C257.0642701 263.7718981 257.05080636 270.12359368 257.02761841 276.47543335 C257.00100933 283.81514207 256.99926197 291.15453466 257.01100677 298.49427509 C257.02179256 305.55988414 257.01559123 312.62537902 257.00145149 319.690979 C256.9956986 322.69566553 256.99576886 325.70026832 257.00051689 328.70495605 C257.00618295 332.90173503 256.98695249 337.09804336 256.96511841 341.29476929 C256.97187088 343.16357254 256.97187088 343.16357254 256.97875977 345.07012939 C256.96885513 346.21410187 256.9589505 347.35807434 256.94874573 348.53671265 C256.94510088 350.02442421 256.94510088 350.02442421 256.94138241 351.54219055 C256.35375483 355.75295253 254.8321649 358.26792283 251.4953956 360.89172268 C247.59440947 362.72062328 244.042208 362.66388463 239.82351685 362.60800171 C238.95471893 362.60843979 238.08592102 362.60887787 237.1907959 362.60932922 C234.32831093 362.60724456 231.46641668 362.58392867 228.60403442 362.56039429 C226.61578186 362.55479719 224.62752515 362.55052763 222.63926697 362.54753113 C217.4129692 362.53609134 212.18692259 362.50663148 206.96072388 362.47341919 C201.62506508 362.44269971 196.28936559 362.42902177 190.9536438 362.41390991 C180.4893409 362.38176107 170.0252242 362.33057507 159.56106567 362.26742554 C159.56258456 363.15597044 159.56410344 364.04451535 159.56566834 364.95998585 C159.65513219 417.59322944 159.72378739 470.22646498 159.76532699 522.85976935 C159.77032997 529.17599342 159.77550724 535.49221733 159.78079224 541.80844116 C159.78184148 543.06591612 159.78289072 544.32339107 159.78397176 545.61897133 C159.80138882 565.99419999 159.83293369 586.36938361 159.86967686 606.74458553 C159.90705005 627.64306102 159.92929386 648.5415129 159.93741965 669.44002044 C159.94291494 682.34110488 159.96028685 695.24206206 159.99273154 708.14310734 C160.01383471 716.98338557 160.02027524 725.82359777 160.01507118 734.66389938 C160.01250287 739.76840171 160.0165087 744.87268127 160.03788757 749.97714424 C160.05730819 754.64804438 160.05836492 759.31857127 160.04466125 763.98948835 C160.0429668 765.68138144 160.048079 767.37329753 160.0605984 769.06514515 C160.07660951 771.36196383 160.06802662 773.65742837 160.05325699 775.95422554 C160.05477587 777.23084529 160.05629475 778.50746504 160.05785966 779.82277024 C159.46677494 783.92121581 158.14513108 786.0671614 155.56106567 789.26742554 C151.3138556 792.03621285 148.01561336 792.64335025 142.99551392 792.64837646 C141.03985756 792.66106567 141.03985756 792.66106567 139.04469299 792.67401123 C137.61199825 792.66817913 136.17930475 792.66203467 134.74661255 792.65560913 C133.22838463 792.659677 131.71015968 792.6650201 130.19194031 792.67153931 C126.07831346 792.68519313 121.96491283 792.6799223 117.85128212 792.67040205 C113.54193141 792.66279542 109.23259978 792.66985385 104.92324829 792.67456055 C97.68708832 792.68001518 90.45102027 792.67283418 83.21487427 792.65853882 C74.85442154 792.64221285 66.49418831 792.64750156 58.1337409 792.66401803 C50.94970241 792.67764125 43.76572992 792.67954848 36.58168268 792.67170203 C32.29355936 792.6670301 28.00553914 792.66638742 23.71742249 792.67631149 C19.68556911 792.68499106 15.65399815 792.67894131 11.62217522 792.66162872 C10.14436753 792.65766915 8.666536 792.65878888 7.18873787 792.66541672 C5.16803982 792.67364242 3.14728969 792.66148753 1.12661743 792.64837646 C-0.0030822 792.64724539 -1.13278183 792.64611431 -2.29671478 792.64494896 C-5.9937684 792.20076474 -8.30987675 791.2827685 -11.43893433 789.26742554 C-14.5433588 785.20198978 -14.81257004 782.10942048 -14.80807781 777.061656 C-14.81327011 775.98426162 -14.81327011 775.98426162 -14.81856731 774.88510171 C-14.82652549 772.47165891 -14.81303532 770.05881322 -14.79969788 767.645401 C-14.80100582 765.90041854 -14.80363203 764.15543665 -14.80746537 762.41045791 C-14.81418453 757.61021529 -14.802158 752.81017287 -14.78713119 748.00995576 C-14.77419571 742.83548951 -14.77855853 737.66103487 -14.78083801 732.48655701 C-14.78241232 723.51970932 -14.77298663 714.55292704 -14.7561245 705.58609581 C-14.73176044 692.62151612 -14.72393188 679.65696811 -14.72016052 666.69236801 C-14.71359197 645.65901964 -14.69361983 624.62570614 -14.66525269 603.59237671 C-14.63772258 583.15845922 -14.61648386 562.72455119 -14.60372925 542.2906189 C-14.60294108 541.03142038 -14.60215291 539.77222186 -14.60134085 538.47486582 C-14.59742579 532.15794098 -14.59363465 525.84101607 -14.58990514 519.52409112 C-14.55879665 467.10517849 -14.50594984 414.68630371 -14.43893433 362.26742554 C-16.09477791 362.27741829 -16.09477791 362.27741829 -17.78407288 362.28761292 C-28.18679832 362.34842568 -38.58948771 362.39339902 -48.99235058 362.42286205 C-54.34058732 362.4385185 -59.68868056 362.45975658 -65.03683472 362.4937439 C-70.19802066 362.52633781 -75.35906858 362.54427871 -80.5203495 362.55205727 C-82.48953741 362.55760069 -84.45871776 362.56842561 -86.42784691 362.58461571 C-89.18585924 362.60639028 -91.94330105 362.60939244 -94.7013855 362.60800171 C-95.92274452 362.62418045 -95.92274452 362.62418045 -97.16877747 362.64068604 C-101.77961894 362.61552493 -104.78228021 362.14868553 -108.43893433 359.26742554 C-112.63441609 353.67559902 -111.86758434 347.05779537 -111.84298706 340.38070679 C-111.84985031 339.08248993 -111.85671356 337.78427307 -111.86378479 336.44671631 C-111.88168584 332.89712315 -111.88055387 329.34777761 -111.87484241 325.79815292 C-111.87174662 322.83091747 -111.87784721 319.8637293 -111.88388115 316.89650059 C-111.89791424 309.89542753 -111.8963748 302.89447654 -111.88497925 295.8934021 C-111.87349424 288.67804721 -111.88758262 281.46306386 -111.91437572 274.24775791 C-111.9365453 268.04459553 -111.94316744 261.84154967 -111.93729931 255.63835049 C-111.9339321 251.93703242 -111.93632908 248.2359526 -111.95355034 244.53466797 C-111.97191598 240.40758792 -111.95781962 236.28122941 -111.94064331 232.15414429 C-111.95514526 230.32114273 -111.95514526 230.32114273 -111.96994019 228.45111084 C-111.8768141 217.7780887 -111.8768141 217.7780887 -107.43893433 213.26742554 C-102.42528953 210.13463111 -98.48957395 209.84897168 -92.77145386 209.92684937 C-91.92201706 209.92641129 -91.07258026 209.92597321 -90.19740295 209.92552185 C-87.40527923 209.9276026 -84.61376494 209.95089975 -81.82174683 209.97445679 C-79.87976408 209.98005528 -77.93777708 209.98432418 -75.99578857 209.98731995 C-70.89608975 209.99874872 -65.79664914 210.02819903 -60.697052 210.06143188 C-55.48865247 210.09217517 -50.28021103 210.10583438 -45.07174683 210.12094116 C-34.86069617 210.15307057 -24.64983676 210.20424316 -14.43893433 210.26742554 C-14.4426215 209.23190237 -14.44630867 208.1963792 -14.45010757 207.12947655 C-14.53887641 181.94158875 -14.60462338 156.75372121 -14.64618301 131.56571007 C-14.66681475 119.38500792 -14.69494718 107.20440905 -14.74069214 95.02377319 C-14.780541 84.40805258 -14.80636268 73.79240677 -14.81528831 63.17661345 C-14.82050632 57.55477555 -14.83278353 51.93315165 -14.86185455 46.31138229 C-14.88899267 41.02056284 -14.89738248 35.73004566 -14.89136505 30.43916321 C-14.892466 28.49692264 -14.90042932 26.55467202 -14.91575623 24.61249161 C-14.93565904 21.96050744 -14.93087255 19.3096644 -14.91995239 16.65765381 C-14.93160376 15.8891593 -14.94325512 15.12066479 -14.95525956 14.32888258 C-14.89785178 9.17072588 -13.78393469 6.18602607 -10.43893433 2.26742554 C-7.14696076 -0.15275314 -4.00488364 0.01163519 0 0 Z " fill="#4255FF" transform="translate(3555.438934326172,701.7325744628906)"/>
<path d="M0 0 C1.31792038 -0.00571014 2.63584076 -0.01142029 3.99369812 -0.01730347 C5.45776358 -0.01854882 6.92182914 -0.01967391 8.38589478 -0.02069092 C9.92500426 -0.02531931 11.4641126 -0.030344 13.0032196 -0.03573608 C17.1871281 -0.04885912 21.37102056 -0.05530472 25.55494642 -0.05974674 C28.16832286 -0.06267731 30.7816949 -0.06678206 33.39506912 -0.07125092 C41.57016269 -0.0849249 49.74524622 -0.09459233 57.92035043 -0.09845281 C67.36041799 -0.10293503 76.80034087 -0.12049095 86.24036443 -0.1494534 C93.53556248 -0.17105939 100.83071979 -0.18115649 108.1259495 -0.18249393 C112.48396974 -0.18354263 116.84185396 -0.1894644 121.19984055 -0.20731354 C125.29892281 -0.22377579 129.39776652 -0.22595879 133.49687004 -0.21717453 C135.0009074 -0.21640319 136.50495748 -0.22075965 138.00896263 -0.23063278 C140.0633073 -0.24332731 142.11680382 -0.23749006 144.17114258 -0.22705078 C145.32040915 -0.22851734 146.46967571 -0.2299839 147.65376854 -0.2314949 C151.97627451 0.29410539 154.61619505 1.88745918 157.46255493 5.14044189 C159.6385047 8.62196153 159.83805813 11.44898558 159.84020543 15.45621997 C159.84472938 17.12392388 159.84472938 17.12392388 159.84934473 18.82531878 C159.84757526 20.05427734 159.84580579 21.28323589 159.8439827 22.54943562 C159.84603533 23.85452405 159.84808796 25.15961249 159.8502028 26.50424907 C159.85578758 30.15053961 159.85509374 33.79680675 159.85342521 37.44310021 C159.85269622 41.40104094 159.85771208 45.35897494 159.86200023 49.31691283 C159.86959378 57.17761131 159.87177397 65.038303 159.87232928 72.89900476 C159.87324158 82.31002669 159.87990509 91.7210423 159.88667611 101.13206152 C159.90275174 123.88000448 159.90864097 146.62794677 159.91342486 169.37589438 C159.91575904 180.1317614 159.91936147 190.88762789 159.92312023 201.64349449 C159.93595655 238.4439509 159.94667613 275.24440701 159.95012283 312.04486561 C159.95034447 314.35585667 159.95056625 316.66684773 159.95078819 318.9778388 C159.95100883 321.29448808 159.95122931 323.61113736 159.95144963 325.92778665 C159.95189219 330.57557603 159.95233931 335.22336541 159.95278931 339.87115479 C159.95295339 341.5997328 159.95295339 341.5997328 159.95312079 343.36323159 C159.9567529 380.74464958 159.97267831 418.1260482 159.99597967 455.50745877 C160.02055612 495.0064671 160.03429464 534.50546434 160.03549075 574.00448054 C160.03566221 578.33748194 160.03587764 582.67048333 160.03612518 587.00348473 C160.03618095 588.07043286 160.03623672 589.13738099 160.03629418 590.23666088 C160.03744648 607.43258365 160.04848356 624.62848658 160.06301224 641.82440264 C160.07735345 659.09662617 160.08062768 676.36882419 160.07257226 693.64105204 C160.06810489 703.91114866 160.07202069 714.18116312 160.08781077 724.451249 C160.09752511 731.30455763 160.09641662 738.15780839 160.08637454 745.01111643 C160.08095679 748.9204861 160.08035446 752.82969744 160.09288326 756.7390543 C160.10624789 760.94413447 160.09656999 765.1488409 160.08449173 769.35392475 C160.09208692 770.57585981 160.09968212 771.79779486 160.10750747 773.05675825 C160.04328779 783.32838659 160.04328779 783.32838659 156.71255493 788.14044189 C152.57021008 791.89444192 148.96114502 792.26655932 143.50776672 792.28088379 C141.55829636 792.28944901 141.55829636 792.28944901 139.56944275 792.29818726 C138.12585459 792.29943261 136.68226632 792.30055771 135.23867798 792.30157471 C133.72089517 792.30620319 132.20311354 792.3112279 130.68533325 792.31661987 C126.55920701 792.32974308 122.43309704 792.33618869 118.30695319 792.34063053 C115.72908099 792.34356143 113.15121324 792.34766627 110.57334328 792.3521347 C102.50770453 792.36580953 94.44207594 792.37547622 86.3764264 792.3793366 C77.0659791 792.38381724 67.75567862 792.40136545 58.44527596 792.43033719 C51.24857523 792.45195419 44.0519158 792.46204089 36.85518295 792.46337771 C32.55693374 792.46442575 28.25882255 792.47033309 23.96060753 792.48819733 C19.91651318 792.50467832 15.87266059 792.50683345 11.82854462 792.49805832 C10.34589045 792.49728795 8.86322329 792.50163067 7.38060188 792.51151657 C5.35320552 792.52423999 3.32571198 792.51656613 1.29829407 792.50793457 C0.16469798 792.50940113 -0.96889811 792.51086769 -2.13684559 792.51237869 C-6.60661116 791.98471077 -10.01105336 790.50486061 -13.09994507 787.20294189 C-15.26089427 783.44971433 -15.41279615 779.9927202 -15.41509557 775.71444005 C-15.41811154 774.60351321 -15.42112751 773.49258636 -15.42423487 772.34799507 C-15.4224654 771.12515807 -15.42069592 769.90232107 -15.41887283 768.6424284 C-15.42092547 767.33986246 -15.4229781 766.03729652 -15.42509294 764.69525889 C-15.43067075 761.06069811 -15.42998514 757.42616085 -15.42831535 753.79159716 C-15.42758568 749.84461859 -15.43260381 745.89764674 -15.43689036 741.95067102 C-15.44447993 734.11385436 -15.44666391 726.27704452 -15.44721942 718.44022458 C-15.4481321 709.05693261 -15.45479677 699.67364697 -15.46156624 690.29035773 C-15.47763769 667.6103762 -15.4835306 644.93039534 -15.48831499 622.25040914 C-15.49064956 611.52586698 -15.49425203 600.80132535 -15.49801037 590.0767836 C-15.51084621 553.38052364 -15.52156591 516.68426398 -15.52501297 479.98800182 C-15.5252346 477.68380056 -15.52545639 475.37959931 -15.52567832 473.07539805 C-15.52589896 470.76557043 -15.52611945 468.45574282 -15.52633977 466.14591521 C-15.52678233 461.51184793 -15.52722944 456.87778066 -15.52767944 452.24371338 C-15.52778883 451.09473136 -15.52789823 449.94574935 -15.52801093 448.7619497 C-15.53164301 411.49120813 -15.54756857 374.22048599 -15.57086981 336.94975186 C-15.59544857 297.563752 -15.60918488 258.17776325 -15.61038089 218.7917555 C-15.61055235 214.47082825 -15.61076778 210.14990101 -15.61101532 205.82897377 C-15.61107109 204.76500586 -15.61112686 203.70103795 -15.61118432 202.6048286 C-15.6123364 185.46029908 -15.62337163 168.31578946 -15.63790238 151.17126666 C-15.65224652 133.94955719 -15.65551614 116.72787331 -15.6474624 99.50615951 C-15.64299646 89.26737293 -15.64690517 79.02866877 -15.6627009 68.78989297 C-15.67242014 61.95621382 -15.67130202 55.12259268 -15.66126468 48.28891411 C-15.65585051 44.3915936 -15.65523326 40.49443186 -15.6677734 36.59712424 C-15.68115549 32.40328567 -15.67145109 28.20982118 -15.65938187 24.01597881 C-15.66697706 22.80016531 -15.67457225 21.5843518 -15.6823976 20.33169547 C-15.63857467 13.32791279 -15.30335348 7.9103274 -10.78744507 2.26544189 C-7.43012268 -0.2525499 -4.02322519 0.01042021 0 0 Z " fill="#4255FF" transform="translate(2554.2874450683594,701.8595581054688)"/>
<path d="M0 0 C0.96891835 -0.0083016 0.96891835 -0.0083016 1.95741081 -0.0167709 C4.11409271 -0.03034527 6.26961078 -0.01542739 8.42626953 -0.00050354 C9.97552989 -0.00428792 11.52478687 -0.00978895 13.07403564 -0.01687622 C17.27656462 -0.03083268 21.47868427 -0.01965988 25.68119049 -0.00316501 C30.08043231 0.01069067 34.47965049 0.00422482 38.87890625 0.0007019 C46.26650586 -0.00199981 53.65394296 0.01147203 61.04150391 0.03465271 C69.58089394 0.06126224 78.12001226 0.06300942 86.65942955 0.05126435 C94.87619882 0.04048271 103.09286987 0.04667666 111.30963135 0.06081963 C114.80554528 0.06657609 118.30138726 0.06649942 121.79730225 0.06175423 C125.91451359 0.05697962 130.03142765 0.06710603 134.14858246 0.08870888 C135.65905505 0.09427034 137.16955624 0.0947479 138.68003082 0.08975601 C140.74307105 0.08379334 142.80520539 0.09632558 144.86816406 0.11352539 C146.02220734 0.11595529 147.17625061 0.11838518 148.36526489 0.12088871 C151.93957878 0.56385136 153.67326379 1.18153532 156.43408203 3.50120544 C159.46710689 9.15467578 159.86206018 13.79412822 159.81160545 20.13836002 C159.81596578 21.09519374 159.8203261 22.05202745 159.82481855 23.03785613 C159.83578511 26.25080432 159.82534601 29.46332432 159.81503296 32.67626953 C159.81848895 35.00029961 159.82325312 37.32432804 159.82921469 39.64835304 C159.84044635 45.36978476 159.83769589 51.09109122 159.8290624 56.81252467 C159.81949741 63.66628886 159.8273374 70.52000513 159.83569813 77.37376693 C159.85149904 90.80200641 159.85012477 104.23020309 159.8414614 117.65844666 C159.8339175 129.40903065 159.83194334 141.15959894 159.83552933 152.91018486 C159.83575848 153.68934617 159.83598764 154.46850748 159.83622374 155.27127974 C159.83715774 158.43406444 159.83811294 161.59684912 159.83910303 164.7596338 C159.84828163 194.43348527 159.83995694 224.10730947 159.82381234 253.78115673 C159.80957394 280.15196557 159.81085039 306.52273096 159.82519531 332.89353943 C159.84125421 362.51430409 159.84763212 392.13504465 159.83835852 421.75581306 C159.83739635 424.91255597 159.83645783 428.06929888 159.83552933 431.22604179 C159.8352921 432.00332547 159.83505486 432.78060915 159.83481044 433.58144688 C159.8313961 445.32613032 159.83539241 457.07079635 159.84296799 468.81547737 C159.85153711 482.16713083 159.84941972 495.51873475 159.83312576 508.87038202 C159.8250826 515.68622288 159.82179346 522.50198321 159.83207321 529.31782341 C159.84098457 535.55199486 159.83614606 541.78599572 159.82014056 548.02015161 C159.81677765 550.28046314 159.81852046 552.54078896 159.82576792 554.80109138 C159.83483942 557.86423226 159.82558538 560.92678239 159.81160545 563.98989201 C159.81862895 564.87537547 159.82565245 565.76085894 159.83288878 566.67317525 C159.78678833 571.69845263 159.20737147 575.13914252 156.43408203 579.50120544 C152.30340615 583.24463046 148.7058829 583.62726799 143.26725769 583.64164734 C141.33040855 583.65021255 141.33040855 583.65021255 139.35443115 583.65895081 C137.92028818 583.66019616 136.4861451 583.66132125 135.05200195 583.66233826 C133.54407123 583.66696677 132.03614168 583.67199148 130.5282135 583.67738342 C126.42894591 583.69050638 122.3296947 583.6969522 118.23040938 583.70139408 C115.66928814 583.70432502 113.10817137 583.70842988 110.54705238 583.71289825 C102.53373936 583.72657302 94.52043657 583.73623973 86.50711268 583.74010015 C77.25722551 583.74458076 68.00748612 583.76212884 58.75764388 583.79110074 C51.60765187 583.81271813 44.45770143 583.82280446 37.30767709 583.82414126 C33.03737319 583.82518927 28.7672082 583.83109604 24.49693871 583.84896088 C20.4791087 583.86544254 16.46152204 583.86759667 12.44367027 583.85882187 C10.97069141 583.85805154 9.49769946 583.86239375 8.02475357 583.87228012 C6.01049465 583.88500468 3.99613792 583.87732927 1.9818573 583.86869812 C0.29252469 583.87089796 0.29252469 583.87089796 -1.43093586 583.87314224 C-5.89212067 583.34386369 -9.29558068 581.8591522 -12.37841797 578.56370544 C-14.28207531 575.25735323 -14.69078068 572.19116584 -14.69356847 568.41531771 C-14.69658444 567.60397507 -14.69960041 566.79263242 -14.70270777 565.95670363 C-14.7009383 565.06917483 -14.69916883 564.18164602 -14.69734573 563.2672224 C-14.70042468 561.84267865 -14.70042468 561.84267865 -14.70356584 560.38935623 C-14.70925461 557.18274523 -14.70777627 553.97617694 -14.70635986 550.76956177 C-14.70894242 548.45708489 -14.71195527 546.14460845 -14.71536326 543.83213264 C-14.72260028 538.12763404 -14.72513651 532.42314665 -14.72569232 526.71864379 C-14.72660558 519.88748149 -14.73327197 513.05632785 -14.74003914 506.22516927 C-14.75610465 489.71450543 -14.76200284 473.2038425 -14.76678789 456.69317224 C-14.76912307 448.88464482 -14.77272561 441.07611813 -14.77648327 433.26759128 C-14.78931863 406.54486634 -14.80003833 379.82214182 -14.80348587 353.09941387 C-14.8037075 351.42170832 -14.80392929 349.74400277 -14.80415122 348.06629722 C-14.80437186 346.38451419 -14.80459235 344.70273115 -14.80481267 343.02094811 C-14.80525523 339.64693558 -14.80570234 336.27292305 -14.80615234 332.89891052 C-14.80626173 332.06235063 -14.80637113 331.22579074 -14.80648383 330.36388055 C-14.81011557 303.2300138 -14.82604012 276.09617375 -14.84934271 248.96231723 C-14.87392749 220.28308715 -14.88765806 191.60387234 -14.88885379 162.92463142 C-14.88902525 159.77765357 -14.88924068 156.63067573 -14.88948822 153.48369789 C-14.88954399 152.70880843 -14.88959976 151.93391898 -14.88965722 151.13554802 C-14.89080877 138.65505816 -14.90183957 126.17459566 -14.91637528 113.69411505 C-14.93072715 101.15487011 -14.93398466 88.61566032 -14.9259353 76.07640942 C-14.92186638 69.28070924 -14.92300943 62.48510686 -14.93699265 55.68941689 C-14.94966863 49.47235187 -14.9485897 43.25544901 -14.93640193 37.03838442 C-14.93443398 34.78536454 -14.93757362 32.53233342 -14.9462463 30.27932938 C-14.95726731 27.22359151 -14.94990119 24.16843319 -14.93785477 21.11271191 C-14.94544996 20.2322066 -14.95304515 19.35170129 -14.9608705 18.44451401 C-14.90526628 11.93822429 -13.91654606 6.98504318 -9.28878784 2.09503078 C-5.94837491 0.1397281 -3.85964459 0.00069994 0 0 Z " fill="#4255FF" transform="translate(1638.56591796875,910.4987945556641)"/>
<path d="M0 0 C25.93341346 -0.85730292 52.42592154 8.50014859 71.4609375 26.15625 C72.31042969 26.92582031 73.15992188 27.69539062 74.03515625 28.48828125 C91.91021778 45.43263514 103.89221746 70.17094622 104.69921875 94.89453125 C105.21309808 125.16732385 97.54985518 149.09923998 77.4609375 172.15625 C76.92082031 172.78144531 76.38070313 173.40664063 75.82421875 174.05078125 C60.84094536 190.16629193 36.56220832 201.97986355 14.58691406 203.33325195 C-16.18978697 203.96499483 -42.47078965 198.00339853 -65.37890625 176.25 C-66.09175781 175.5590625 -66.80460937 174.868125 -67.5390625 174.15625 C-68.13847656 173.6303125 -68.73789063 173.104375 -69.35546875 172.5625 C-88.22441293 155.40095448 -95.80597544 128.86544579 -97.76171875 104.3671875 C-98.64604922 79.52903606 -88.95981418 55.19703027 -73.5390625 36.15625 C-73.03761719 35.50140625 -72.53617188 34.8465625 -72.01953125 34.171875 C-56.59308574 14.78879072 -30.86628293 3.57888013 -6.7890625 0.40625 C-4.52722703 0.23682412 -2.26397358 0.13932145 0 0 Z " fill="#4255FF" transform="translate(1708.5390625,638.84375)"/>
</svg>
